<svg xmlns="http://www.w3.org/2000/svg" id="add" width="95.434" height="95.434" viewBox="0 0 95.434 95.434">
    <defs>
        <style>
            .cls-1{fill:#00c2cb}
        </style>
    </defs>
    <g id="Group_14077">
        <g id="Group_14076">
            <path id="Path_43481" d="M47.717 0a47.717 47.717 0 1 0 47.717 47.717A47.769 47.769 0 0 0 47.717 0zm0 88.042a40.325 40.325 0 1 1 40.325-40.325 40.372 40.372 0 0 1-40.325 40.325z" class="cls-1"/>
        </g>
    </g>
    <g id="Group_14079" transform="translate(25.54 25.208)">
        <g id="Group_14078">
            <path id="Path_43482" d="M177.68 153.719H162.9v-14.785a3.7 3.7 0 0 0-7.392 0v14.784h-14.79a3.7 3.7 0 1 0 0 7.392H155.5v14.79a3.7 3.7 0 1 0 7.392 0v-14.789h14.788a3.7 3.7 0 1 0 0-7.392z" class="cls-1" transform="translate(-137.022 -135.238)"/>
        </g>
    </g>
</svg>
