<svg xmlns="http://www.w3.org/2000/svg" width="30" height="30.5" viewBox="0 0 30 30.5">
  <g id="Group_14579" data-name="Group 14579" transform="translate(16346 -1544.75)">
    <g id="noun_blood_1510446" transform="translate(-16365 1545)">
      <path id="Path_43421" data-name="Path 43421" d="M35.313,26.016H32.5A1.363,1.363,0,0,1,31.094,24.7v-.094h2.555a6.7,6.7,0,0,1-.937-.656l-.023-.023c-.094-.094-.188-.164-.281-.258H30.625A4.677,4.677,0,0,1,26.1,20.156h1.477a.234.234,0,0,0,0-.469H25.984c-.023-.234-.07-.469-.07-.7V17.813h3.047a.234.234,0,1,0,0-.469H25.938V15.469h1.641a.234.234,0,0,0,0-.469H25.938V13.125h3.047a.234.234,0,0,0,0-.469H25.938V10.781h1.641a.234.234,0,1,0,0-.469H25.961a4.683,4.683,0,0,1,4.664-4.219h4.969c.047-.141.07-.281.117-.422a2.478,2.478,0,0,1,.164-.516H30.859V5.063A1.363,1.363,0,0,1,32.266,3.75h3.281a1.466,1.466,0,0,1,1.125.516A1.383,1.383,0,0,1,37,4.219a.649.649,0,0,1,.211.023,1.892,1.892,0,0,0-1.664-.961h-.7V.234a.234.234,0,1,0-.469,0V3.281h-.938V.234a.234.234,0,1,0-.469,0V3.281h-.7a1.832,1.832,0,0,0-1.875,1.781v.094A5.644,5.644,0,0,0,25,10.5v8.461a5.642,5.642,0,0,0,5.625,5.625v.094a1.82,1.82,0,0,0,1.43,1.734,1.8,1.8,0,0,0,1.617,1.453v1.9a.234.234,0,0,0,.469,0v-1.9a1.774,1.774,0,0,0,1.617-1.453,1.9,1.9,0,0,0,1.219-.891,4.184,4.184,0,0,1-.539-.047A1.447,1.447,0,0,1,35.313,26.016Zm-1.406,1.406a1.369,1.369,0,0,1-1.359-.938h2.719A1.369,1.369,0,0,1,33.906,27.422Z" fill="#00c2cb" stroke="#00c2cb" stroke-width="0.5"/>
      <path id="Path_43422" data-name="Path 43422" d="M81.2,22.4a2.1,2.1,0,0,1,.117.445,4.272,4.272,0,0,0,.164.586,4.682,4.682,0,0,1,3.422,4.5v2.484c.328.586.656,1.172.938,1.8V27.931A5.637,5.637,0,0,0,81.2,22.4Z" transform="translate(-43.028 -17.15)" fill="#00c2cb" stroke="#00c2cb" stroke-width="0.5"/>
      <path id="Path_43423" data-name="Path 43423" d="M58.845,22.75c-.117-.492-.258-.75-.375-.75-.141,0-.258.258-.4.75a27.814,27.814,0,0,1-1.313,3.867c-1.336,3.234-4.008,6.164-3.727,9.914a5.672,5.672,0,0,0,10.828,1.5c1.687-4.734-2.437-8.32-4.008-12.234A19.309,19.309,0,0,1,58.845,22.75ZM62.97,37.727a4.374,4.374,0,0,1-4.312,2.789,4.443,4.443,0,0,1-4.688-4.055c-.188-2.32.938-4.336,2.133-6.492a26.047,26.047,0,0,0,1.523-3.023c.3-.75.586-1.477.82-2.227.164.492.352.938.539,1.383a24.012,24.012,0,0,0,1.922,3.586C62.5,32.336,64.025,34.82,62.97,37.727Z" transform="translate(-21.447 -16.844)" fill="#00c2cb" stroke="#00c2cb" stroke-width="0.5"/>
      <path id="Path_43424" data-name="Path 43424" d="M65.69,75.952a2.241,2.241,0,0,1-1.055-1.641c-.023-.141-.047-.211-.117-.211q-.07,0-.141.141a3.028,3.028,0,0,0,.117,3.117,2.051,2.051,0,0,0,1.594.938h0c.516,0,1.2-.352,1.2-.984C67.284,76.4,66.276,76.3,65.69,75.952Zm.4,1.875a1.548,1.548,0,0,1-1.2-.75,2.4,2.4,0,0,1-.4-1.734,2.673,2.673,0,0,0,.961.984,3,3,0,0,0,.563.258c.609.258.8.375.8.7S66.393,77.827,66.088,77.827Z" transform="translate(-29.862 -56.733)" fill="#00c2cb" stroke="#00c2cb" stroke-width="0.5"/>
    </g>
    <g id="Group_14557" data-name="Group 14557" transform="translate(-12448 30)">
      <rect id="Rectangle_2613" data-name="Rectangle 2613" width="30" height="30" transform="translate(-3898 1515)" fill="none"/>
    </g>
  </g>
</svg>
