<svg xmlns="http://www.w3.org/2000/svg" width="75" height="75" viewBox="0 0 75 75">
  <g id="Group_14579" data-name="Group 14579" transform="translate(-6907 -3463)">
    <rect id="Rectangle_2615" data-name="Rectangle 2615" width="75" height="75" transform="translate(6907 3463)" fill="none"/>
    <g id="camera_1_" data-name="camera (1)" transform="translate(6911 3429.2)">
      <g id="Group_14578" data-name="Group 14578" transform="translate(0 44.8)">
        <g id="Group_14577" data-name="Group 14577" transform="translate(0)">
          <path id="Path_43704" data-name="Path 43704" d="M64.771,53.151a7.147,7.147,0,0,0-5.286-2.266H48.913v-.129a5.861,5.861,0,0,0-1.72-4.208,5.78,5.78,0,0,0-4.14-1.748H23.947a5.818,5.818,0,0,0-4.2,1.748,5.973,5.973,0,0,0-1.72,4.208v.129H7.515a7.147,7.147,0,0,0-5.286,2.266A7.76,7.76,0,0,0,0,58.525v32.24a7.381,7.381,0,0,0,2.229,5.373A7.512,7.512,0,0,0,7.515,98.4h51.97a7.147,7.147,0,0,0,5.286-2.266A7.759,7.759,0,0,0,67,90.764V58.525A7.381,7.381,0,0,0,64.771,53.151ZM63.688,90.764h-.064a4.191,4.191,0,0,1-1.21,2.978,4.056,4.056,0,0,1-2.93,1.23H7.515a4.056,4.056,0,0,1-2.93-1.23,4.191,4.191,0,0,1-1.21-2.978V58.525a4.191,4.191,0,0,1,1.21-2.978,4.056,4.056,0,0,1,2.93-1.23H19.807a1.727,1.727,0,0,0,1.72-1.748V50.691a2.566,2.566,0,0,1,.7-1.813,2.48,2.48,0,0,1,1.783-.712H43.053a2.48,2.48,0,0,1,1.783.712,2.566,2.566,0,0,1,.7,1.813v1.877a1.727,1.727,0,0,0,1.72,1.748H59.548a4.056,4.056,0,0,1,2.93,1.23,4.191,4.191,0,0,1,1.21,2.978Z" transform="translate(0 -44.8)" fill="#00c2cb"/>
          <path id="Path_43705" data-name="Path 43705" d="M127.926,130.8a15.914,15.914,0,1,0,11.264,4.661A15.954,15.954,0,0,0,127.926,130.8Zm8.8,24.795a12.5,12.5,0,0,1-17.609,0,12.376,12.376,0,0,1-3.625-8.8,12.651,12.651,0,0,1,3.625-8.8,12.376,12.376,0,0,1,8.8-3.625,12.651,12.651,0,0,1,8.8,3.625,12.376,12.376,0,0,1,3.625,8.8A12.114,12.114,0,0,1,136.73,155.595Z" transform="translate(-94.426 -116.881)" fill="#00c2cb"/>
          <circle id="Ellipse_588" data-name="Ellipse 588" cx="3.172" cy="3.172" r="3.172" transform="translate(52.822 13.854)" fill="#00c2cb"/>
        </g>
      </g>
    </g>
  </g>
</svg>
