<svg xmlns="http://www.w3.org/2000/svg" width="30" height="30" viewBox="0 0 30 30">
  <g id="Group_14577" data-name="Group 14577" transform="translate(713 -2403)">
    <g id="Group_14576" data-name="Group 14576">
      <g id="Group_14575" data-name="Group 14575">
        <g id="Group_14558" data-name="Group 14558" transform="translate(3185 888)">
          <g id="Group_14557" data-name="Group 14557">
            <rect id="Rectangle_2613" data-name="Rectangle 2613" width="30" height="30" transform="translate(-3898 1515)" fill="none"/>
          </g>
          <path id="Icon_metro-cancel" data-name="Icon metro-cancel" d="M14.571,1.928a12,12,0,1,0,12,12,12,12,0,0,0-12-12Zm0,21.75a9.75,9.75,0,1,1,9.75-9.75,9.75,9.75,0,0,1-9.75,9.75Zm3.75-15.75-3.75,3.75-3.75-3.75-2.25,2.25,3.75,3.75-3.75,3.75,2.25,2.25,3.75-3.75,3.75,3.75,2.25-2.25-3.75-3.75,3.75-3.75Z" transform="translate(-3897.571 1516.072)" fill="#00c2cb"/>
        </g>
      </g>
    </g>
  </g>
</svg>
