<svg xmlns="http://www.w3.org/2000/svg" width="30" height="30" viewBox="0 0 30 30">
  <g id="Group_14558" data-name="Group 14558" transform="translate(3898 -1515)">
    <g id="Group_14557" data-name="Group 14557">
      <rect id="Rectangle_2613" data-name="Rectangle 2613" width="30" height="30" transform="translate(-3898 1515)" fill="none"/>
    </g>
    <g id="noun_tick_1611518" transform="translate(-3895 1518)">
      <path id="Path_43564" data-name="Path 43564" d="M41.342,37.126,35.776,42.4l-2.311-2.441a.99.99,0,1,0-1.432,1.367l3,3.125a.944.944,0,0,0,.684.293.911.911,0,0,0,.684-.26l6.283-5.957a.977.977,0,0,0,.033-1.367.944.944,0,0,0-1.367-.033Z" transform="translate(-25.371 -28.804)" fill="#9a9a9a"/>
      <path id="Path_43565" data-name="Path 43565" d="M24.2,12.2a12,12,0,1,0,12,12,12,12,0,0,0-12-12Zm0,22.043A10.043,10.043,0,1,1,34.243,24.2,10.043,10.043,0,0,1,24.2,34.243Z" transform="translate(-12.2 -12.2)" fill="#9a9a9a"/>
    </g>
  </g>
</svg>
