<svg xmlns="http://www.w3.org/2000/svg" width="30" height="30" viewBox="0 0 30 30">
  <g id="Group_14560" data-name="Group 14560" transform="translate(3898 -1515)">
    <g id="Group_14557" data-name="Group 14557">
      <rect id="Rectangle_2613" data-name="Rectangle 2613" width="30" height="30" transform="translate(-3898 1515)" fill="none"/>
    </g>
    <g id="Group_14559" data-name="Group 14559" transform="translate(-3895 1518)">
      <path id="Path_43566" data-name="Path 43566" d="M26.268,3.515l-1.59-1.59a3.377,3.377,0,0,0-4.77,0L5.6,16.235a.749.749,0,0,0-.191.324l-2.12,7.421a.751.751,0,0,0,.927.928l7.421-2.12a.742.742,0,0,0,.324-.191L26.268,8.285a3.371,3.371,0,0,0,0-4.77ZM11.035,21.4,5.1,23.094l1.7-5.936L18.317,5.633l4.241,4.241ZM25.208,7.226l-1.59,1.59L19.377,4.575l1.59-1.59a1.878,1.878,0,0,1,2.651,0l1.59,1.59a1.876,1.876,0,0,1,0,2.651Z" transform="translate(-3.257 -0.939)" fill="#00cece"/>
    </g>
  </g>
</svg>
