<svg xmlns="http://www.w3.org/2000/svg" width="40" height="40" viewBox="0 0 40 40">
  <g id="Group_13782" data-name="Group 13782" transform="translate(-1713 -1825)">
    <g id="Group_13781" data-name="Group 13781">
      <g id="Group_13736" data-name="Group 13736" transform="translate(16224.5 2302.047)">
        <path id="Path_43326" data-name="Path 43326" d="M5,24.7c0,.952.275,1.525,1.02,1.626a.987.987,0,0,0,.192.022h4.026V39.131a2.478,2.478,0,0,0,1.721,2.632,3.451,3.451,0,0,0,.425.113H34.277a2.716,2.716,0,0,0,.425-.113,2.477,2.477,0,0,0,1.721-2.632V26.344s3.657.023,4.207,0c.893-.033,1.222-.615,1.222-1.647,0-1.312-.223-1.579-1.222-2.61-1.19-1.244-15.4-16.08-15.4-16.08a2.69,2.69,0,0,0-1.9-.876,2.623,2.623,0,0,0-1.891.876s-3.348,3.6-6.929,7.4V9.939s-.011-1.3-1.849-1.58a4.749,4.749,0,0,0-.723-.045h-.425a4.653,4.653,0,0,0-.711.045c-1.851.268-1.861,1.58-1.861,1.58v9.3c-1.411,1.469-2.445,2.544-2.73,2.847C5.213,23.117,5,23.384,5,24.7Z" transform="translate(-14515 -480.176)" fill="#fff"/>
        <path id="Path_43327" data-name="Path 43327" d="M8.665,15.659a6.738,6.738,0,0,1-.506-2.85,2.282,2.282,0,0,1,.736-1.563c.483-.46.943-.942,1.425-1.425a1.357,1.357,0,0,1,2.046,0l1.149,1.149c.368.368.759.736,1.126,1.126a1.359,1.359,0,0,1,0,2.092l-1.4,1.4a.287.287,0,0,0-.069.368A8.464,8.464,0,0,0,14.435,18,14.939,14.939,0,0,0,18,21.245c.3.184.621.322.92.483a.268.268,0,0,0,.391-.069c.46-.483.943-.942,1.425-1.425a1.357,1.357,0,0,1,2.046,0c.759.759,1.54,1.517,2.3,2.276a1.35,1.35,0,0,1,0,2.069c-.437.437-.9.851-1.31,1.31a2.567,2.567,0,0,1-2.207.828A8.516,8.516,0,0,1,18.045,25.7a19.1,19.1,0,0,1-6.3-4.919A17.709,17.709,0,0,1,8.665,15.659Z" transform="translate(-14508.428 -468.915)" fill="#0cc"/>
      </g>
      <rect id="Rectangle_2436" data-name="Rectangle 2436" width="40" height="40" transform="translate(1713 1825)" fill="none"/>
    </g>
  </g>
</svg>
