<svg xmlns="http://www.w3.org/2000/svg" width="30" height="30" viewBox="0 0 30 30">
  <defs>
    <style>
      .cls-1 {
        fill: #00c2cb;
      }
    </style>
  </defs>
  <path id="Icon_metro-cancel" data-name="Icon metro-cancel" class="cls-1" d="M17.571,1.928a15,15,0,1,0,15,15,15,15,0,0,0-15-15Zm0,27.188A12.187,12.187,0,1,1,29.758,16.928,12.188,12.188,0,0,1,17.571,29.116ZM22.258,9.428l-4.687,4.687L12.883,9.428l-2.812,2.812,4.688,4.688-4.687,4.687,2.813,2.813,4.688-4.687,4.688,4.688,2.813-2.812-4.687-4.687,4.688-4.688Z" transform="translate(-2.571 -1.928)"/>
</svg>
