<svg xmlns="http://www.w3.org/2000/svg" width="100" height="100" viewBox="0 0 100 100">
  <g id="Group_14566" data-name="Group 14566" transform="translate(3365 -1514)">
    <rect id="Rectangle_2614" data-name="Rectangle 2614" width="100" height="100" transform="translate(-3365 1514)" fill="none"/>
    <g id="Group_14565" data-name="Group 14565" transform="translate(-4095 656)">
      <path id="Path_43556" data-name="Path 43556" d="M32.816,5.229v-3.9a1.331,1.331,0,0,1,2.661,0v3.9A34.181,34.181,0,0,1,68.292,39.341v.2c0,.009,0,.028,0,.038s0,.019,0,.029,0,.023,0,.036a1.932,1.932,0,0,1-.054.45,1.33,1.33,0,0,1-1.29,1.008,1.357,1.357,0,0,1-.324-.04,1.329,1.329,0,0,1-.992-1.484c-.02-4.529-4.32-8.21-9.606-8.21s-9.608,3.7-9.608,8.24a1.331,1.331,0,0,1-2.661,0c0-.056.009-.111.01-.167,0-.032-.01-.062-.01-.095,0-4.156-3.609-7.593-8.278-8.152V62.668a1.758,1.758,0,0,1,.443,1.162v7.114a5.77,5.77,0,0,0,11.541,0,1.774,1.774,0,0,1,3.548,0,9.317,9.317,0,0,1-18.635,0V63.83a1.763,1.763,0,0,1,.443-1.162V31.19c-4.669.558-8.278,4-8.278,8.152a1.331,1.331,0,0,1-1.331,1.331H23.2a1.331,1.331,0,0,1-1.331-1.331c0-4.548-4.3-8.248-9.6-8.248s-9.614,3.7-9.614,8.248a1.331,1.331,0,0,1-2.661,0A34.183,34.183,0,0,1,32.816,5.229ZM56.024,28.7a13.029,13.029,0,0,1,8.723,3.247A31.555,31.555,0,0,0,37.312,8.015c4.682,3.056,8.057,12.838,8.585,25.446A12.749,12.749,0,0,1,56.024,28.7ZM34.147,28.44A12.777,12.777,0,0,1,44.1,32.994c-.721-15.056-5.5-24.21-9.955-24.21S24.911,17.938,24.192,33A12.773,12.773,0,0,1,34.147,28.44Zm-21.871-.009a12.725,12.725,0,0,1,10.132,4.78c.562-12.486,3.923-22.161,8.574-25.2a31.559,31.559,0,0,0-27.357,23.6A13.05,13.05,0,0,1,12.276,28.431Z" transform="translate(733 883.583) rotate(-22)" fill="#00cece"/>
      <path id="Path_43557" data-name="Path 43557" d="M40.694,980.362a1.731,1.731,0,0,0-1.731,1.731v9.232H29.731a1.731,1.731,0,0,0,0,3.462h9.232v9.232a1.731,1.731,0,1,0,3.462,0v-9.232h9.232a1.731,1.731,0,0,0,0-3.462H42.425v-9.232A1.731,1.731,0,0,0,40.694,980.362Z" transform="translate(725.306 -59.952)" fill="#00cece"/>
    </g>
  </g>
</svg>
