<svg xmlns="http://www.w3.org/2000/svg" width="80" height="80" viewBox="0 0 80 80">
  <g id="Group_14577" data-name="Group 14577" transform="translate(3378 -1603)">
    <rect id="Rectangle_2616" data-name="Rectangle 2616" width="80" height="80" transform="translate(-3378 1603)" fill="none"/>
    <g id="Group_14576" data-name="Group 14576" transform="translate(-4111.996 741.351)">
      <path id="Path_43556" data-name="Path 43556" d="M40.47,9.582V6.166a1.166,1.166,0,0,1,2.332,0V9.582A29.955,29.955,0,0,1,71.559,39.477v.171c0,.008,0,.024,0,.034s0,.016,0,.025,0,.02,0,.031a1.692,1.692,0,0,1-.048.395,1.165,1.165,0,0,1-1.13.883,1.19,1.19,0,0,1-.284-.035,1.164,1.164,0,0,1-.869-1.3c-.017-3.969-3.786-7.195-8.419-7.195s-8.42,3.239-8.42,7.221a1.166,1.166,0,0,1-2.332,0c0-.049.008-.1.009-.146,0-.028-.009-.055-.009-.083,0-3.642-3.163-6.654-7.254-7.144V59.92a1.541,1.541,0,0,1,.388,1.018v6.234a5.057,5.057,0,0,0,10.114,0,1.554,1.554,0,0,1,3.109,0,8.165,8.165,0,0,1-16.331,0V60.938a1.545,1.545,0,0,1,.388-1.018V32.333c-4.091.489-7.254,3.5-7.254,7.144a1.166,1.166,0,0,1-1.166,1.166h-.005a1.166,1.166,0,0,1-1.166-1.166c0-3.986-3.772-7.228-8.41-7.228s-8.425,3.243-8.425,7.228a1.166,1.166,0,0,1-2.332,0A29.956,29.956,0,0,1,40.47,9.582ZM60.808,30.153A11.418,11.418,0,0,1,68.453,33,27.654,27.654,0,0,0,44.41,12.024c4.1,2.678,7.061,11.251,7.524,22.3A11.173,11.173,0,0,1,60.808,30.153Zm-19.173-.229a11.2,11.2,0,0,1,8.724,3.991C49.729,20.72,45.541,12.7,41.636,12.7s-8.094,8.023-8.724,21.219A11.194,11.194,0,0,1,41.636,29.924Zm-19.167-.008a11.151,11.151,0,0,1,8.879,4.189c.492-10.942,3.438-19.421,7.514-22.081A27.657,27.657,0,0,0,14.887,32.7,11.436,11.436,0,0,1,22.469,29.916Z" transform="translate(732.284 861.649)" fill="#707070"/>
      <path id="Path_43557" data-name="Path 43557" d="M39.124,980.362a1.517,1.517,0,0,0-1.517,1.517v8.09h-8.09a1.517,1.517,0,1,0,0,3.034h8.09v8.09a1.517,1.517,0,0,0,3.034,0V993h8.09a1.517,1.517,0,0,0,0-3.034h-8.09v-8.09A1.517,1.517,0,0,0,39.124,980.362Z" transform="translate(722.796 -67.668)" fill="#707070"/>
    </g>
  </g>
</svg>
