<svg xmlns="http://www.w3.org/2000/svg" width="40" height="40" viewBox="0 0 40 40">
  <g id="Group_14574" data-name="Group 14574" transform="translate(6610 -1617)">
    <rect id="Rectangle_2615" data-name="Rectangle 2615" width="40" height="40" transform="translate(-6610 1617)" fill="none"/>
    <g id="invoice" transform="translate(-6669 1617)">
      <g id="Group_14223" data-name="Group 14223" transform="translate(84)">
        <g id="Group_14222" data-name="Group 14222">
          <path id="Path_43542" data-name="Path 43542" d="M320,0V10h10Z" transform="translate(-320)" fill="#00c2cb"/>
        </g>
      </g>
      <g id="Group_14225" data-name="Group 14225" transform="translate(64)">
        <g id="Group_14224" data-name="Group 14224">
          <path id="Path_43543" data-name="Path 43543" d="M84,12.5A2.5,2.5,0,0,1,81.5,10V0h-15A2.5,2.5,0,0,0,64,2.5v35A2.5,2.5,0,0,0,66.5,40h25A2.5,2.5,0,0,0,94,37.5v-25ZM72.75,7.655V6.25a1.25,1.25,0,1,1,2.5,0V7.658a5.138,5.138,0,0,1,2.115,1,1.249,1.249,0,1,1-1.577,1.937A2.837,2.837,0,0,0,74,10c-1.355,0-2.5.857-2.5,1.875S72.645,13.75,74,13.75c2.758,0,5,1.962,5,4.375a4.526,4.526,0,0,1-3.75,4.22V23.75a1.25,1.25,0,1,1-2.5,0V22.343a5.138,5.138,0,0,1-2.115-1,1.25,1.25,0,0,1,1.577-1.94A2.824,2.824,0,0,0,74,20c1.355,0,2.5-.858,2.5-1.875S75.355,16.25,74,16.25c-2.757,0-5-1.963-5-4.375A4.526,4.526,0,0,1,72.75,7.655ZM87.75,35H70.25a1.25,1.25,0,0,1,0-2.5h17.5a1.25,1.25,0,0,1,0,2.5Zm0-5H70.25a1.25,1.25,0,0,1,0-2.5h17.5a1.25,1.25,0,1,1,0,2.5Zm0-5h-5a1.25,1.25,0,0,1,0-2.5h5a1.25,1.25,0,0,1,0,2.5Zm0-5h-5a1.25,1.25,0,0,1,0-2.5h5a1.25,1.25,0,0,1,0,2.5Z" transform="translate(-64)" fill="#00c2cb"/>
        </g>
      </g>
    </g>
  </g>
</svg>
