<svg xmlns="http://www.w3.org/2000/svg" width="40" height="40" viewBox="0 0 40 40">
  <g id="Group_13780" data-name="Group 13780" transform="translate(-1637 -1823)">
    <path id="Path_43325" data-name="Path 43325" d="M28.527,2.7A12.145,12.145,0,0,0,16.385,14.841S15.626,24.02,28.527,36.92c10.8-10.8,12.033-19.007,12.141-21.392,0-.217.036-.47.036-.687A12.175,12.175,0,0,0,28.527,2.7Zm7.119,13.478a.478.478,0,0,1-.47.47h-4.7v4.7a.478.478,0,0,1-.47.47h-3a.478.478,0,0,1-.47-.47v-4.7h-4.7a.478.478,0,0,1-.47-.47v-3a.478.478,0,0,1,.47-.47h4.7v-4.7a.478.478,0,0,1,.47-.47h3a.478.478,0,0,1,.47.47v4.7h4.7a.478.478,0,0,1,.47.47Z" transform="translate(1628.623 1823.3)" fill="#fff"/>
    <rect id="Rectangle_2436" data-name="Rectangle 2436" width="40" height="40" transform="translate(1637 1823)" fill="none"/>
  </g>
</svg>
