<svg xmlns="http://www.w3.org/2000/svg" width="787.52" height="833.354" viewBox="0 0 787.52 833.354">
    <defs>
        <style>
            .cls-2{fill:#e0e0e0}.cls-3{fill:#fafafa}.cls-4{fill:#ebebeb}.cls-6{fill:#fff}.cls-9{fill:#7cd7d2}.cls-10{fill:#263238}.cls-11{opacity:.2}.cls-12{fill:#0cc}.cls-13{fill:#455a64}.cls-14{fill:#b78876}.cls-15{fill:#aa6550}
        </style>
    </defs>
    <g id="Group_13796" transform="translate(-725.964 -244.213)">
        <path id="Path_43068" fill="#f5f5f5" d="M552.958 283.662s-18.781-12.94-42.843 32.108-33.385 71.14-33.385 71.14-6.305 9.42-12.746 3.056-15.048-24.216-26.247-21.276c-11.605 3.075-15.667 15.88-13.83 34.816s4.333 60.715 4.545 64.486-1.934 9.11-7.1 5.493-34-37.156-49.09-22.475-1.3 66.73.116 72.436.232 8.124-2.5 9.478-11.392-10.832-20.019-20.019-20.232-18.356-28.22-9.149-11.238 47.988 24.487 111.758l18.491 28.472 34.061-1.238c72.765-7.06 102.745-31.876 105.743-43.694s-11.141-16.112-23.617-17.949-27.427-1.934-27.872-5.01.87-5.338 6.363-7.447 56.092-20.483 59.535-41.257-40.61-25.391-46.413-27.485-2.708-7.021.464-8.955 38.9-23.752 55.531-33.094 24.836-19.957 20.735-31.257c-3.965-10.87-23.539-7.737-32.437-9.419s-4.758-12.2-4.758-12.2 16.093-22.514 39.342-68.007 1.335-53.616 1.335-53.616" transform="translate(951.499 429.636)"/>
        <path id="Path_43069" d="M342.33 616.876c17.2-33.346 41.353-79.3 68.219-129.785s51.1-96.343 68.471-129.592l20.541-39.4 5.59-10.716 1.47-2.785c.348-.619.542-.929.542-.929s-.135.348-.445.987-.793 1.605-1.373 2.824c-1.257 2.514-3.095 6.132-5.416 10.793-4.72 9.381-11.605 22.9-20.251 39.555-17.2 33.346-41.353 79.206-68.2 129.766s-51.121 96.382-68.49 129.592" class="cls-2" transform="translate(975.669 449.937)"/>
        <path id="Path_43070" d="M384.88 340a11.156 11.156 0 0 1 .812 2.321c.464 1.509 1.064 3.714 1.8 6.441 1.431 5.455 3.211 13.037 5.029 21.45S395.886 386 397.1 391.74c.561 2.592 1.044 4.758 1.431 6.518a11.264 11.264 0 0 1 .425 2.418 10.392 10.392 0 0 1-.832-2.321c-.464-1.509-1.064-3.714-1.76-6.441-1.373-5.474-3.056-13.075-4.874-21.489s-3.481-15.764-4.739-21.489c-.58-2.592-1.064-4.758-1.451-6.518a9.906 9.906 0 0 1-.42-2.418z" class="cls-2" transform="translate(1015.42 483.877)"/>
        <path id="Path_43071" d="M393.76 380.589c0-.271 15.474-4.642 34.564-9.671s34.816-9.033 34.816-8.762-15.474 4.661-34.564 9.768-34.739 8.955-34.816 8.665z" class="cls-2" transform="translate(1023.715 504.563)"/>
        <path id="Path_43072" d="M370.64 411.464a10.459 10.459 0 0 1 2.5 0l6.828.155c5.8.116 13.675.251 22.456 0s16.692-.561 22.437-.909l6.789-.406a11.454 11.454 0 0 1 2.515 0 10.847 10.847 0 0 1-2.476.445c-1.586.193-3.868.464-6.77.735-5.8.522-13.694 1.064-22.475 1.219s-16.77-.1-22.514-.406c-2.882-.174-5.2-.329-6.808-.483a10.952 10.952 0 0 1-2.476-.348z" class="cls-2" transform="translate(1002.117 549.49)"/>
        <path id="Path_43073" d="M356.29 384a9.5 9.5 0 0 1 1.3 1.934l3.172 5.435c2.65 4.623 6.248 11.025 10.155 18.143s7.389 13.539 9.864 18.278c1.141 2.205 2.108 4.062 2.882 5.59a8.958 8.958 0 0 1 .928 2.128 10.836 10.836 0 0 1-1.277-1.934l-3.191-5.435c-2.63-4.6-6.228-11.025-10.135-18.123s-7.389-13.539-9.884-18.278c-1.122-2.205-2.089-4.081-2.882-5.609a10.839 10.839 0 0 1-.932-2.129z" class="cls-2" transform="translate(988.711 524.982)"/>
        <path id="Path_43074" d="M331.48 416a16.489 16.489 0 0 1 1.625 2.476c1.064 1.818 2.456 4.139 4.1 6.944 3.424 5.9 8.085 14.081 13.191 23.21s9.671 17.311 12.9 23.211c1.547 2.863 2.824 5.261 3.868 7.1a15.97 15.97 0 0 1 1.277 2.689 16.476 16.476 0 0 1-1.625-2.476l-4.159-7.06c-3.423-5.8-8.085-14.062-13.191-23.21s-9.671-17.292-12.9-23.21c-1.547-2.863-2.824-5.261-3.868-7.118A15.478 15.478 0 0 1 331.48 416z" class="cls-2" transform="translate(965.533 554.876)"/>
        <path id="Path_43075" d="M350.33 450.78a16.588 16.588 0 0 1 3.172-.155l8.646-.116c7.292-.116 17.408-.29 28.491-.812s21.18-1.218 28.452-1.779l8.607-.677a16.388 16.388 0 0 1 3.172-.116 20.217 20.217 0 0 1-3.114.522c-2.031.271-4.971.638-8.607 1.006-7.253.754-17.408 1.605-28.472 2.089s-21.276.6-28.529.5c-3.656 0-6.6-.116-8.646-.213a18.492 18.492 0 0 1-3.172-.251z" class="cls-2" transform="translate(983.143 583.925)"/>
        <rect id="Rectangle_2359" width="175.529" height="241.137" class="cls-2" rx="2.41" transform="rotate(-25.7 1153.789 -1645.938)"/>
        <path id="Rectangle_2360" d="M0 0H155.936V224.445H0z" class="cls-3" transform="rotate(-25.7 1160.191 -1670.002)"/>
        <path id="Path_43076" d="M174.117 74.47a19.071 19.071 0 0 0-19.98-2.089l-4.255-8.549a13.114 13.114 0 0 0-17.524-6.132 13.133 13.133 0 0 0-6.131 17.5l4.313 8.975-3 1.509A19.091 19.091 0 0 0 117 102.516v4.449l61.179-29.439zm-32.649 1.393a7.06 7.06 0 1 1 3.614-4.033 7.079 7.079 0 0 1-3.614 4.032z" class="cls-4" transform="translate(765.165 218.932)"/>
        <path id="Path_43077" d="M147.163 90.606c.116.251-8.3 4.565-18.82 9.671S109.195 109.251 109 109s8.3-4.565 18.82-9.671 19.227-8.975 19.343-8.723z" class="cls-2" transform="translate(757.69 250.88)"/>
        <path id="Path_43078" d="M129 98.83a52.361 52.361 0 0 1-8.975 4.874 51.627 51.627 0 0 1-9.4 3.965 53.981 53.981 0 0 1 8.975-4.869 51.624 51.624 0 0 1 9.4-3.97z" class="cls-2" transform="translate(759.214 258.574)"/>
        <path id="Path_43079" d="M222.073 85.812c.116.251-23.52 11.9-52.8 25.976s-53.113 25.319-53.229 25.145 23.52-11.876 52.8-25.976 53.113-25.396 53.229-25.145z" class="cls-2" transform="translate(764.268 246.409)"/>
        <path id="Path_43080" d="M224.583 91c.135.251-23.52 11.876-52.785 25.976s-53.112 25.324-53.248 25.146 23.52-11.876 52.8-25.976S224.467 90.827 224.583 91z" class="cls-2" transform="translate(766.613 251.259)"/>
        <path id="Path_43081" d="M227.1 96.272c.116.251-23.52 11.876-52.8 25.976s-53.113 25.319-53.229 25.145 23.52-11.876 52.8-25.976 53.116-25.396 53.229-25.145z" class="cls-2" transform="translate(768.967 256.181)"/>
        <path id="Path_43082" d="M229.623 101.5c.116.251-23.52 11.876-52.8 25.957s-53.117 25.321-53.233 25.143 23.5-11.876 52.8-25.976 53.098-25.373 53.233-25.124z" class="cls-2" transform="translate(771.321 261.067)"/>
        <path id="Path_43083" d="M232.133 106.722c.135.251-23.52 11.9-52.784 25.976s-53.113 25.319-53.249 25.145 23.52-11.876 52.8-25.976 53.117-25.396 53.233-25.145z" class="cls-2" transform="translate(773.666 265.943)"/>
        <path id="Path_43084" d="M234.653 112c.116.251-23.52 11.876-52.8 25.976s-53.117 25.324-53.233 25.149 23.52-11.876 52.8-25.976 53.117-25.493 53.233-25.149z" class="cls-2" transform="translate(776.02 270.874)"/>
        <path id="Path_43085" d="M183.935 129.86a10.582 10.582 0 0 1-1.935 1.18l-5.686 2.96c-4.758 2.379-11.354 5.629-18.665 9.149s-13.984 6.654-18.82 8.9l-5.8 2.592a11.217 11.217 0 0 1-2.166.812 9.789 9.789 0 0 1 1.934-1.18l5.609-2.882c4.758-2.379 11.373-5.629 18.684-9.149s13.965-6.654 18.8-8.9l5.8-2.573a9.826 9.826 0 0 1 2.245-.909z" class="cls-2" transform="translate(778.113 287.563)"/>
        <path id="Path_43086" d="M175.249 71.62a44.644 44.644 0 0 1-8.375 4.6 45.545 45.545 0 0 1-8.7 3.636 44.644 44.644 0 0 1 8.278-4.545 44.08 44.08 0 0 1 8.797-3.691z" class="cls-2" transform="translate(803.626 233.155)"/>
        <path id="Path_43087" d="M164.623 147.25a115.567 115.567 0 0 1-13.539 7.079 116.335 116.335 0 0 1-14 6.17 116.905 116.905 0 0 1 13.539-7.079 116.9 116.9 0 0 1 14-6.17z" class="cls-2" transform="translate(783.924 303.809)"/>
        <path id="Path_43088" d="M167.6 151.76a119.645 119.645 0 0 1-13.772 7.2 118.841 118.841 0 0 1-14.216 6.286 119.235 119.235 0 0 1 13.771-7.2 126.911 126.911 0 0 1 14.217-6.286z" class="cls-2" transform="translate(786.287 308.022)"/>
        <path id="Path_43089" d="M198.7 126.66a27.372 27.372 0 0 1-6.441 3.656 27.893 27.893 0 0 1-6.866 2.747 54.563 54.563 0 0 1 13.307-6.4z" class="cls-2" transform="translate(829.055 284.573)"/>
        <path id="Path_43090" d="M201.007 130.82a28.185 28.185 0 0 1-6.441 3.656 27.563 27.563 0 0 1-6.886 2.747 27.371 27.371 0 0 1 6.441-3.656 26.692 26.692 0 0 1 6.886-2.747z" class="cls-2" transform="translate(831.195 288.46)"/>
        <path id="Path_43091" d="M156.052 160a25.915 25.915 0 0 1-6.209 3.54 27.333 27.333 0 0 1-6.654 2.65 25.589 25.589 0 0 1 6.209-3.559 25.343 25.343 0 0 1 6.654-2.631z" class="cls-2" transform="translate(789.632 315.72)"/>
        <path id="Path_43092" d="M201.871 135.69a28.685 28.685 0 0 1-9.671 4.623 28.685 28.685 0 0 1 9.671-4.623z" class="cls-2" transform="translate(835.417 293.009)"/>
        <path id="Path_43093" d="M148.17 184.214a5.99 5.99 0 0 1 .542-.406l1.625-1.083 6.248-4.023 22.455-14.082.445-.29.193.483a12.747 12.747 0 0 1 .232 8.53 10.387 10.387 0 0 1-15.744 5.629 8.994 8.994 0 0 1-3.191-9.42 7.911 7.911 0 0 1 1.934-3.52 5.026 5.026 0 0 1 .735-.7 3.87 3.87 0 0 1 .87-.6 1.412 1.412 0 0 1 1.354 0 2.109 2.109 0 0 1 .754.89 16.614 16.614 0 0 1 1.934 7.157 16.981 16.981 0 0 1-1.1 7.06 10.793 10.793 0 0 1-4.159 5.513 6.17 6.17 0 0 1-6.538-.135 9.3 9.3 0 0 1-3.868-4.855 22.61 22.61 0 0 1 0-10.928l.116-.735.5.561a15.164 15.164 0 0 1 3.675 8.336 16.113 16.113 0 0 1-.638 6.866 14.565 14.565 0 0 1-1.934 3.868 9.071 9.071 0 0 1-.716.87c-.174.193-.251.29-.271.271a17.72 17.72 0 0 0 2.553-5.145 15.86 15.86 0 0 0 .464-6.673 14.7 14.7 0 0 0-3.636-7.93l.6-.193a22.089 22.089 0 0 0 0 10.541 8.452 8.452 0 0 0 3.54 4.352 5.222 5.222 0 0 0 5.59.116 9.961 9.961 0 0 0 3.752-5.068 16.461 16.461 0 0 0-.851-13.385 1.569 1.569 0 0 0-.387-.464.426.426 0 0 0-.426 0 4.759 4.759 0 0 0-1.257 1.044 7.059 7.059 0 0 0-1.625 3.075 8.046 8.046 0 0 0 2.8 8.375 9.439 9.439 0 0 0 14.294-5.106 11.9 11.9 0 0 0-.174-7.911l.638.213-22.65 13.849-6.383 3.868-1.7.986a2.319 2.319 0 0 1-.595.199z" class="cls-2" transform="translate(794.284 319.765)"/>
        <path id="Path_43094" d="M211.531 154.211a6.616 6.616 0 0 1-.31 1.818 7.735 7.735 0 0 1-.89 2.05 4.294 4.294 0 0 1-2.418 1.838 2.9 2.9 0 0 1-1.934 0 3.868 3.868 0 0 1-1.605-1.257 36.765 36.765 0 0 1-2.166-3.675c-1.451-2.669-3.075-5.609-4.8-8.781l.87-.193c-.155 4.429-.329 9.265-.5 14.332 0 1.219-.1 2.4-.135 3.578v1.934l-.87-1.8c-2.65-5.435-5.106-10.522-7.273-14.951h.812a50.833 50.833 0 0 0-1.837 13.539c0 3.307.213 5.184 0 5.2a6.134 6.134 0 0 1-.271-1.354 38.262 38.262 0 0 1-.329-3.868 47.178 47.178 0 0 1 1.509-13.714l.29-1.122.5 1.045c2.2 4.41 4.7 9.458 7.389 14.874l-.948.193c0-1.18.1-2.36.135-3.578.213-5.068.406-9.9.58-14.332v-1.737l.812 1.528c1.7 3.191 3.269 6.17 4.681 8.839a38.86 38.86 0 0 0 1.934 3.656 2.611 2.611 0 0 0 2.8 1.18 4.971 4.971 0 0 0 3.172-3.443 14.582 14.582 0 0 1 .793-1.8z" class="cls-2" transform="translate(831.347 301.006)"/>
        <path id="Path_43095" d="M217.489 145.653c.174.232-7.737 5.938-17.814 12.746s-18.24 12.127-18.394 11.9 7.737-5.938 17.814-12.727 18.205-12.132 18.394-11.919z" class="cls-2" transform="translate(825.214 302.311)"/>
        <path id="Path_43096" d="M218.008 146.53a160.223 160.223 0 0 1-13.075 11.9 157.333 157.333 0 0 1-13.733 11.136 156.379 156.379 0 0 1 13.075-11.9 150.88 150.88 0 0 1 13.733-11.141z" class="cls-2" transform="translate(834.483 303.136)"/>
        <g id="Group_13795" transform="translate(1386.078 510.426)">
            <path id="Path_43097" fill="#37df17" d="M404.67 205.685c-7.95 19.922-20.7 52.224-26.537 66.923a8.472 8.472 0 0 0 4.758 11.025l54.429 21.682a8.51 8.51 0 0 0 11.064-4.758l26.4-66.3a18.917 18.917 0 0 0-10.561-24.545l3.868-9.671-35.628-14.2-3.675 9.226h-.135a18.917 18.917 0 0 0-23.984 10.619z" transform="translate(-377.527 -170.566)"/>
            <rect id="Rectangle_2361" width="54.97" height="36.363" class="cls-4" rx="1.48" transform="rotate(21.72 -110.363 110.98)"/>
            <path id="Path_43108" d="M434.75 252.106a5.378 5.378 0 0 1 .194-.58l.58-1.586c.561-1.451 1.315-3.462 2.263-5.957l8.278-21.276.232.5-44.8-17.717.638-.29v.135l-.1.232-.193.484-.387.986-.774 1.934-1.528 3.868c-1.006 2.534-1.934 5.029-2.979 7.485l-5.687 14.12-.251-.6 32.03 13.017 9.226 3.868 2.456 1.044.87.406a5.364 5.364 0 0 1-.813-.252l-2.418-.909-9.207-3.54-32.48-12.683-.425-.174.174-.426c1.78-4.507 3.656-9.226 5.59-14.139.986-2.456 1.934-4.952 2.979-7.485.5-1.277 1.006-2.553 1.528-3.868l.774-1.934.387-.967.194-.484.1-.251v-.116l.658-.29 44.738 17.756.368.155-.135.367c-3.656 8.9-6.634 16.209-8.762 21.412-1.025 2.437-1.837 4.391-2.418 5.8-.271.6-.483 1.083-.638 1.489s-.243.485-.262.466z" class="cls-2" transform="translate(-366.37 -152.984)"/>
            <path id="Path_43109" d="M428.122 223.358a129.258 129.258 0 0 1-15.474-5.59 135.626 135.626 0 0 1-15.029-6.518 134.983 134.983 0 0 1 15.474 5.59 137.637 137.637 0 0 1 15.029 6.518z" class="cls-2" transform="translate(-358.756 -146.828)"/>
            <path id="Path_43110" d="M427.043 226.048a136.524 136.524 0 0 1-15.474-5.59 128.048 128.048 0 0 1-15.009-6.538 136.524 136.524 0 0 1 15.474 5.59 128.048 128.048 0 0 1 15.01 6.538z" class="cls-2" transform="translate(-359.747 -144.334)"/>
            <path id="Path_43111" d="M426.032 228.6a132.463 132.463 0 0 1-15.474-5.571 135.359 135.359 0 0 1-15.029-6.538A133.472 133.472 0 0 1 411 222.08a135.608 135.608 0 0 1 15.029 6.518z" class="cls-2" transform="translate(-360.709 -141.933)"/>
            <path id="Path_43113" d="M380.15 263.884a19.352 19.352 0 0 1 1.064-3.211c.832-2.186 1.934-5.087 3.288-8.607 2.8-7.234 6.77-17.234 11.18-28.239 2.224-5.493 4.352-10.715 6.286-15.474a33.54 33.54 0 0 1 7.06-11.76 14.835 14.835 0 0 1 8.22-4.2 10.813 10.813 0 0 1 2.534 0 4 4 0 0 1 .87.193 22.478 22.478 0 0 0-3.346.193 15.125 15.125 0 0 0-7.737 4.313 34.121 34.121 0 0 0-6.712 11.605l-6.19 15.474c-4.429 11.025-8.491 20.967-11.47 28.143-1.451 3.462-2.669 6.325-3.578 8.491a24.834 24.834 0 0 1-1.47 3.075z" class="cls-6" transform="translate(-375.077 -164.511)"/>
            <path id="Path_43114" d="M442.365 259.726a15.486 15.486 0 0 1-2.147-1.741c-.658-.58-1.47-1.3-2.456-2.07s-2.07-1.721-3.366-2.631a96.248 96.248 0 0 0-9.207-6.093 100.46 100.46 0 0 0-12.166-5.919 104.458 104.458 0 0 0-12.921-4.081 93.289 93.289 0 0 0-10.89-1.934c-1.567-.232-3-.29-4.236-.387s-2.321-.174-3.211-.193a16.769 16.769 0 0 1-2.747-.213 12.843 12.843 0 0 1 2.747-.174 30.387 30.387 0 0 1 3.23 0 26.434 26.434 0 0 1 4.294.251 81.232 81.232 0 0 1 11.025 1.7 95.775 95.775 0 0 1 13.075 4.023 94.072 94.072 0 0 1 12.263 6.054 86.52 86.52 0 0 1 9.187 6.344c1.277.967 2.321 1.934 3.288 2.766s1.741 1.567 2.36 2.205a14.266 14.266 0 0 1 1.876 2.089z" class="cls-6" transform="translate(-376.133 -125.343)"/>
            <path id="Path_43098" d="M406.52 186.44l-1.76 4.449 35.14 15.454 2.263-5.706z" class="cls-2" transform="translate(-352.086 -170.006)"/>
            <path id="Path_43099" fill="#008e8e" d="M5.783 0h35.744a5.8 5.8 0 0 1 5.8 5.8v9.48a3.733 3.733 0 0 1-3.727 3.733H3.733A3.733 3.733 0 0 1 0 15.28V5.8A5.8 5.8 0 0 1 5.8 0z" transform="rotate(21.72 28.13 146.589)"/>
            <path id="Path_43100" d="M405.87 196.781a43.729 43.729 0 0 1 3.037-8.994 45.713 45.713 0 0 1 3.965-8.627 43.742 43.742 0 0 1-3.037 8.994 45.718 45.718 0 0 1-3.965 8.627z" class="cls-2" transform="translate(-351.049 -176.807)"/>
            <path id="Path_43101" d="M408.29 197.751a44.489 44.489 0 0 1 3.056-8.994 45.725 45.725 0 0 1 3.965-8.627 46.062 46.062 0 0 1-3.037 8.994 44.5 44.5 0 0 1-3.984 8.627z" class="cls-2" transform="translate(-348.789 -175.9)"/>
            <path id="Path_43102" d="M410.72 198.7a46.075 46.075 0 0 1 3.037-8.994 45.879 45.879 0 0 1 3.984-8.607 46.078 46.078 0 0 1-3.037 8.994 43.165 43.165 0 0 1-3.984 8.607z" class="cls-2" transform="translate(-346.518 -174.994)"/>
            <path id="Path_43103" d="M413.15 199.681a45.627 45.627 0 0 1 3.037-8.994 44.485 44.485 0 0 1 3.984-8.627 45.186 45.186 0 0 1-3.037 8.994 46.421 46.421 0 0 1-3.984 8.626z" class="cls-2" transform="translate(-344.248 -174.097)"/>
            <path id="Path_43104" d="M415.58 200.651a45.187 45.187 0 0 1 3.037-8.994 43.7 43.7 0 0 1 3.984-8.627 45.431 45.431 0 0 1-3.056 8.994 46.421 46.421 0 0 1-3.965 8.627z" class="cls-2" transform="translate(-341.978 -173.191)"/>
            <path id="Path_43105" d="M418 201.6a44.476 44.476 0 0 1 3.037-8.994A45.164 45.164 0 0 1 425 184a44.492 44.492 0 0 1-3.037 8.994A45.157 45.157 0 0 1 418 201.6z" class="cls-2" transform="translate(-339.717 -172.285)"/>
            <path id="Path_43106" d="M420.44 202.581a44.489 44.489 0 0 1 3.037-8.994 46.43 46.43 0 0 1 3.965-8.627 43.748 43.748 0 0 1-3.037 8.994 45.731 45.731 0 0 1-3.965 8.627z" class="cls-2" transform="translate(-337.438 -171.388)"/>
            <path id="Path_43107" d="M422.86 203.511a44.485 44.485 0 0 1 3.056-8.994 45.734 45.734 0 0 1 3.965-8.627 45.178 45.178 0 0 1-3.037 8.994 43.69 43.69 0 0 1-3.984 8.627z" class="cls-2" transform="translate(-335.177 -170.519)"/>
            <path id="Path_43112" d="M437.4 203.981a151.644 151.644 0 0 1-16.789-6.132 163.341 163.341 0 0 1-16.421-7.079 156.531 156.531 0 0 1 16.789 6.131 163.285 163.285 0 0 1 16.421 7.079z" class="cls-2" transform="translate(-352.619 -165.96)"/>
        </g>
        <path id="Path_43115" fill="#f4f4f4" d="M173.527 600.072c43.578-22.089 59.864-72.243 64.835-118.7.832-7.737 2.824-15.764.116-23.056s-10.619-13.133-17.988-10.851c-6.112 1.934-9.555 8.2-13.539 13.249a45.57 45.57 0 0 1-20.541 14.719c-5.28 1.934-11.605 2.553-16.054-.812-6.131-4.6-5.609-13.907-4.487-21.586l6.344-42.8c1.141-7.737 2.282-15.474.909-23.114s-5.667-15.145-12.669-18.22-16.634-.155-19.245 7.157c-1.083 3.037-.909 6.364-1.567 9.516s-2.65 6.479-5.8 6.924-5.957-2.147-7.93-4.7c-6.828-8.878-10.793-19.632-14.41-30.27s-7.06-21.489-13.037-30.947-14.994-17.665-25.941-19.851-23.578 2.94-27.872 13.346.426 22.3 6.054 32.031a173 173 0 0 0 30.947 39.051c2.166 2.05 4.526 4.294 5.048 7.253.948 5.358-4.623 9.671-9.922 10.716-5.977 1.1-12.108-.367-18.182-.522s-12.94 1.586-16.015 6.924c-4.255 7.389 1.141 16.557 6.828 22.843a148.625 148.625 0 0 0 39.845 31.238c5.358 2.863 11.044 5.513 15.029 10.116s5.8 11.915 2.263 16.924-10.832 5.8-16.6 3.868-10.6-5.8-15.918-8.82c-10-5.474-23.713-6.673-31.76 1.489-5.3 5.358-6.866 13.655-5.629 21.1s4.913 14.274 8.955 20.619c14.081 22.243 33.462 41.257 56.73 53.21s45.609 17.408 71.2 12.011" transform="translate(689.721 452.331)"/>
        <path id="Path_43116" d="M159.728 621.569c.928-18.549-.619-30.232-4.159-54.525a698.252 698.252 0 0 0-16.808-77.929q-2.785-10.213-5.454-20.193c-1.818-6.615-3.6-13.191-5.8-19.5a352.77 352.77 0 0 0-14.429-35.609c-5.145-11.1-10.425-21.431-15.474-31.083s-9.9-18.51-14.661-26.421a276.277 276.277 0 0 0-25.28-35.628c-3.288-3.965-5.957-6.944-7.737-8.936l-2.089-2.263a5.566 5.566 0 0 0-.754-.735 5.5 5.5 0 0 0 .638.832l1.934 2.36c1.76 2.05 4.352 5.106 7.582 9.11a291.219 291.219 0 0 1 24.833 35.785c4.7 7.93 9.5 16.828 14.468 26.46s10.193 20 15.28 31.1a344.836 344.836 0 0 1 14.41 35.493c2.128 6.286 3.868 12.8 5.8 19.342s3.6 13.385 5.435 20.193a707.7 707.7 0 0 1 16.9 77.736c3.6 24.2 5.242 35.783 4.449 54.274" class="cls-2" transform="translate(699.845 454.683)"/>
        <path id="Path_43117" d="M88.48 421.451a15.745 15.745 0 0 0 1.218-3.172c.7-2.07 1.625-5.087 2.708-8.839 2.166-7.485 4.8-17.93 7.737-29.439s5.648-21.914 7.93-29.342c1.122-3.733 2.07-6.731 2.747-8.8a14.76 14.76 0 0 0 .909-3.269 14.911 14.911 0 0 0-1.431 3.075c-.832 1.934-1.934 4.99-3.172 8.685-2.534 7.369-5.493 17.756-8.356 29.284l-7.35 29.555c-.89 3.54-1.644 6.538-2.263 8.936a15.474 15.474 0 0 0-.677 3.326z" class="cls-2" transform="translate(738.521 482.559)"/>
        <path id="Path_43118" d="M38.81 364.67a24.113 24.113 0 0 0 3.868 1.025c2.514.58 6.131 1.412 10.58 2.572 8.9 2.244 21.083 5.8 34.351 10.309s25.145 9.129 33.558 12.708c4.255 1.76 7.737 3.269 10 4.313a22.373 22.373 0 0 0 3.714 1.489 21.928 21.928 0 0 0-3.482-1.934c-2.282-1.18-5.629-2.843-9.826-4.739-8.394-3.868-20.212-8.588-33.52-13.133a342.818 342.818 0 0 0-34.564-10.039c-4.487-1.044-8.162-1.721-10.7-2.147a22.081 22.081 0 0 0-3.979-.424z" class="cls-2" transform="translate(692.119 506.924)"/>
        <path id="Path_43119" d="M102.67 498.742a12.639 12.639 0 0 0 .851-1.122l2.2-3.327c1.934-2.9 4.507-7.176 7.737-12.476 6.364-10.638 14.7-25.59 23.655-42.224s17.156-31.663 23.21-42.417l7.292-12.708 1.934-3.462a5.807 5.807 0 0 0 .6-1.257 10.307 10.307 0 0 0-.851 1.1l-2.166 3.249c-1.934 2.9-4.526 7.176-7.737 12.5-6.364 10.619-14.7 25.59-23.655 42.224s-17.137 31.644-23.21 42.4c-3.017 5.222-5.474 9.516-7.311 12.708-.774 1.393-1.431 2.534-1.934 3.462a5.322 5.322 0 0 0-.615 1.35z" class="cls-2" transform="translate(751.778 521.011)"/>
        <path id="Path_43120" d="M38 409.81a4.526 4.526 0 0 0 1.238.735l3.617 1.818 13.4 6.538c11.315 5.512 26.847 13.327 44 21.973s32.881 16.344 44.216 21.624c5.8 2.65 10.348 4.739 13.539 6.132l3.772 1.509a5.549 5.549 0 0 0 1.335.464 5.3 5.3 0 0 0-1.219-.735l-3.636-1.8-13.385-6.557c-11.315-5.512-26.847-13.327-44-21.972s-32.823-16.267-44.255-21.624c-5.8-2.65-10.348-4.739-13.539-6.132l-3.733-1.567a5.521 5.521 0 0 0-1.35-.406z" class="cls-2" transform="translate(691.363 549.093)"/>
        <path id="Path_43122" d="M221.7 353.323s-55.009 37.369-58.026 124.6c-1.005 29.266 13.366 122.437 13.366 122.437l321.716 1.3-60.173-249.729-101.217-23.211z" class="cls-9" transform="translate(808.721 473.339)"/>
        <path id="Path_43123" d="M278.359 374.92L234.53 557.76l109.553.735z" class="cls-6" transform="translate(874.962 516.499)"/>
        <path id="Path_43124" d="M256.426 354.45a39.267 39.267 0 0 1 .58 5.977c.252 4.023.561 8.975.909 14.468s.542 10.773.619 14.468a34.361 34.361 0 0 1-.135 6.015 39.277 39.277 0 0 1-.58-5.977c-.252-4-.561-8.975-.909-14.449s-.542-10.774-.6-14.487a33.453 33.453 0 0 1 .116-6.015z" class="cls-10" transform="translate(895.231 497.376)"/>
        <path id="Path_43125" d="M270.056 365.028c0 .1-.716.251-1.934.929a9.323 9.323 0 0 0-3.656 4.062 7.872 7.872 0 0 0 .387 7.737 8.2 8.2 0 0 0 15.126-2.418 7.834 7.834 0 0 0-1.934-7.427 9.283 9.283 0 0 0-4.739-2.727c-1.277-.29-1.934-.213-2.05-.31s.194 0 .542-.116a5.612 5.612 0 0 1 1.586 0 9.109 9.109 0 0 1 5.164 2.611 9.267 9.267 0 0 1 2.2 3.443 8.434 8.434 0 0 1 .213 4.72 9.11 9.11 0 0 1-16.828 2.669 8.435 8.435 0 0 1-1.257-4.545 9.287 9.287 0 0 1 1.025-3.868 9.148 9.148 0 0 1 4.1-4.1 5.512 5.512 0 0 1 1.489-.522c.373-.157.547-.177.566-.138z" class="cls-10" transform="translate(901.446 506.952)"/>
        <path id="Path_43126" d="M288.168 416.634a17.97 17.97 0 0 0-1.934.929 9.3 9.3 0 0 0-3.636 4.062 7.872 7.872 0 0 0 .387 7.737 8.2 8.2 0 0 0 15.125-2.418 7.853 7.853 0 0 0-1.934-7.427 9.246 9.246 0 0 0-4.719-2.727c-1.3-.29-2.05-.213-2.05-.31a1.355 1.355 0 0 1 .542-.116 6.311 6.311 0 0 1 1.567 0 9.147 9.147 0 0 1 5.184 2.631 8.991 8.991 0 0 1 2.186 3.423 8.1 8.1 0 0 1 .213 4.72 9.071 9.071 0 0 1-16.808 2.669 8.105 8.105 0 0 1-1.257-4.545 9.011 9.011 0 0 1 1.025-3.868 9.149 9.149 0 0 1 4.1-4.1 5.994 5.994 0 0 1 1.489-.522 1.934 1.934 0 0 1 .52-.138z" class="cls-10" transform="translate(918.401 555.17)"/>
        <path id="Path_43127" d="M270.173 379a5.243 5.243 0 0 1-.7.851c-.464.542-1.161 1.335-2.108 2.321a87.024 87.024 0 0 1-8.665 7.737 89.381 89.381 0 0 1-34.426 16.191 68.392 68.392 0 0 1-20.986 1.7 31.78 31.78 0 0 1-16.131-5.8 23.734 23.734 0 0 1-7.408-8.917 20.138 20.138 0 0 1-1.049-2.983 3.866 3.866 0 0 1-.174-1.083 41.087 41.087 0 0 0 1.586 3.868 23.985 23.985 0 0 0 7.466 8.491 31.761 31.761 0 0 0 15.783 5.513 69.907 69.907 0 0 0 20.7-1.779 91.724 91.724 0 0 0 34.216-15.783 102.706 102.706 0 0 0 8.8-7.408l2.263-2.186a4.474 4.474 0 0 1 .833-.733z" class="cls-10" transform="translate(822.647 520.31)"/>
        <path id="Path_43128" d="M270.173 388.36a5.246 5.246 0 0 1-.7.851c-.464.541-1.161 1.354-2.108 2.34a87.039 87.039 0 0 1-43.094 23.888 68.426 68.426 0 0 1-20.986 1.721 31.953 31.953 0 0 1-16.131-5.8 23.56 23.56 0 0 1-7.408-8.9 19.481 19.481 0 0 1-1.045-3 3.733 3.733 0 0 1-.174-1.083 41.055 41.055 0 0 0 1.586 3.868 24.024 24.024 0 0 0 7.466 8.51 31.761 31.761 0 0 0 15.783 5.493 69.262 69.262 0 0 0 20.7-1.78 92.028 92.028 0 0 0 34.216-15.764 102.269 102.269 0 0 0 8.8-7.427l2.263-2.186a4.738 4.738 0 0 1 .832-.731z" class="cls-10" transform="translate(822.647 529.055)"/>
        <path id="Path_43129" d="M279.472 385.53a4.154 4.154 0 0 1 .135.774c0 .561.135 1.335.251 2.3.232 2.089.561 5.068.967 8.878.812 7.737 2.36 18.82 3.056 32.688a153.862 153.862 0 0 1-.484 22.688 97.714 97.714 0 0 1-5.8 25.4 65.568 65.568 0 0 1-15.648 24.081 57.74 57.74 0 0 1-12.3 9.091 49.568 49.568 0 0 1-14.855 5.242 45.318 45.318 0 0 1-30.077-5.571 58.453 58.453 0 0 1-20.754-19.884 78.471 78.471 0 0 1-9.671-24.158 112.183 112.183 0 0 1-2.669-22.591 220.492 220.492 0 0 1 2.321-32.746c.561-3.868.986-6.77 1.277-8.839.155-.967.29-1.721.368-2.3a4.63 4.63 0 0 1 .174-.774 4.077 4.077 0 0 1 0 .793c0 .58-.155 1.335-.271 2.3-.252 2.089-.619 5.068-1.1 8.859a231.981 231.981 0 0 0-1.934 32.688 112.381 112.381 0 0 0 2.747 22.379 78.2 78.2 0 0 0 9.671 23.829 57.408 57.408 0 0 0 20.367 19.574 44.3 44.3 0 0 0 29.419 5.435 47.722 47.722 0 0 0 14.545-5.126 56.767 56.767 0 0 0 12.108-8.917 64.717 64.717 0 0 0 15.474-23.694 97.328 97.328 0 0 0 5.8-25.145 153.132 153.132 0 0 0 .6-22.572c-.6-13.83-1.934-24.971-2.727-32.688-.387-3.868-.638-6.867-.793-8.9 0-.967-.116-1.741-.155-2.321s-.042-.773-.042-.773z" class="cls-10" transform="translate(816.19 526.411)"/>
        <g id="Group_13491" class="cls-11" transform="translate(994.948 1007.742)">
            <path id="Path_43130" d="M175.368 435.06c3.482 11.8 4.971 14.855 11.489 24.274a48.683 48.683 0 0 0 25.048 18.994 45.357 45.357 0 0 0 43.481-7.737c11.818-9.884 16-25.145 18.046-35.493-5.145 6.924-10.619 16.769-17.1 22.475s-15.048 10.7-23.6 12.185c-11.605 1.934-25.435-1.547-35.357-7.853s-15.918-17.6-22.069-26.827" class="cls-9" transform="translate(-175.31 -435.06)"/>
        </g>
        <g id="Group_13492" class="cls-11" transform="translate(1003.285 932.715)">
            <path id="Path_43131" d="M179.62 396.27a33.229 33.229 0 0 0 24.352 19.09c10.464 1.934 24.023-1.373 30.56-11.2-23.017 8.085-45.9 8.278-54.912-7.892" class="cls-9" transform="translate(-179.62 -396.27)"/>
        </g>
        <path id="Path_43132" d="M291.208 391.955a4.387 4.387 0 0 1-1.489 0 24.956 24.956 0 0 1-3.868-.851 36.963 36.963 0 0 1-20.793-15.783 28.248 28.248 0 0 1-1.934-3.559c-.368-.89-.542-1.373-.464-1.412s1.044 1.818 2.94 4.584a42.693 42.693 0 0 0 8.975 9.381 42.063 42.063 0 0 0 11.451 6.112c3.151.987 5.201 1.354 5.182 1.528z" class="cls-10" transform="translate(901.223 512.229)"/>
        <g id="Group_13493" class="cls-11" transform="translate(1165.661 883.837)">
            <path id="Path_43133" d="M263.57 371c2.379 8.085 11.354 15.628 19.342 18.278a11.778 11.778 0 0 0 4.894.716 5.687 5.687 0 0 0 4.217-2.34c1.683-2.572.232-6.228-2.244-8.046a22.475 22.475 0 0 0-8.626-3.075c-6.17-1.431-11.741 1.683-16.847-3.5" class="cls-9" transform="translate(-263.57 -371)"/>
        </g>
        <g id="Group_13494" class="cls-11" transform="translate(994.6 849.853)">
            <path id="Path_43134" d="M175.13 372.443c14.429 12.611 34.816 13.153 53.171 7.737s34.351-15.609 49.941-26.75c-17 3.385-31.508 11.141-48.665 13.675-16.383 2.418-33.423 2.669-49.535-2.8" class="cls-9" transform="translate(-175.13 -353.43)"/>
        </g>
        <path id="Path_43135" d="M359.809 523.994a1.121 1.121 0 0 1-.367.213 9.925 9.925 0 0 1-1.141.522 17.123 17.123 0 0 1-4.7 1.16 25.879 25.879 0 0 1-16.886-4.526c-6.422-4.081-12.263-10.947-18.51-18.568a200.714 200.714 0 0 1-18.005-26.576 224.718 224.718 0 0 1-21.837-53.964c-1.934-7.234-3.056-13.153-3.772-17.273-.309-1.934-.561-3.578-.754-4.739a14.926 14.926 0 0 1-.193-1.663 8.81 8.81 0 0 1 .406 1.625l.928 4.7c.832 4.081 2.128 9.981 4.062 17.157a234.628 234.628 0 0 0 22.031 53.655 207.144 207.144 0 0 0 17.872 26.5c6.17 7.621 11.934 14.487 18.162 18.549a25.918 25.918 0 0 0 16.537 4.739 23.415 23.415 0 0 0 6.17-1.509z" class="cls-10" transform="translate(911.499 538.602)"/>
        <g id="Group_13495" class="cls-11" transform="translate(1201.754 991.224)">
            <path id="Path_43136" d="M282.23 426.52s28.549 35.9 49.38 44.7c7.06 3 14.835 5.435 19.652 11.393a12.514 12.514 0 0 1 3 10.1 5.572 5.572 0 0 1-.387 1.238c-3 7.64-17.408 6.576-24 1.741-2.882-2.108-1.18-.754-3.5-2.5-6.675-5.029-42.404-46.402-44.145-66.672z" class="cls-9" transform="translate(-282.23 -426.52)"/>
        </g>
        <path id="Path_43137" d="M231.961 177.767l18.22-3.617 90.115 1.064 45.783 10.058 17.466 255.663-202.415 9.458z" class="cls-6" transform="translate(843.76 328.939)"/>
        <path id="Path_43138" d="M286.223 427.288L290.536 311l-7.176-134.83c28.471 7.331 67.407 15.474 88.973 40.057 13.984 15.957 27.7 36.363 32.882 69.225 5.957 38.684 13.81 112.667 18.723 154.059" class="cls-9" transform="translate(920.579 330.826)"/>
        <path id="Path_43139" d="M440.784 409.422l-139.94 22.727-4.952-86.42-7.736-170.849c-40.618 1.663-86.846 35.222-100.714 61.372-9.671 18.143-17.775 39.226-20.309 59.632-4.855 38.684-13.075 104.969-17.988 146.381a85.318 85.318 0 0 0 23.481 69.4c20.309 20.947 52.107 28.2 80.695 22.282l213.072-59.96z" class="cls-9" transform="translate(794.644 329.621)"/>
        <path id="Path_43140" d="M292.159 404.689a1.934 1.934 0 0 1 .1-.484q.174-.522.406-1.393c.406-1.3.948-3.095 1.663-5.4 1.509-4.758 3.656-11.605 6.325-20.077l21.947-68.544.29.6-22.688-9.381-.89-.368.793-.522 5.242-3.443 17.118-11.18-.193.542c-8.7-30.212-16.363-56.866-21.876-76.034-2.689-9.516-4.855-17.176-6.383-22.514-.7-2.611-1.257-4.642-1.663-6.093q-.251-.948-.406-1.567a2.052 2.052 0 0 1-.116-.542 1.24 1.24 0 0 0 .193.5l.5 1.567c.445 1.431 1.064 3.443 1.838 6.035l6.673 22.417 22.185 75.956.1.348-.309.213-17.1 11.2-5.242 3.424v-.89l22.669 9.42.426.174-.135.426c-8.936 27.446-16.731 51.334-22.3 68.451-2.8 8.472-5.029 15.261-6.6 19.98-.774 2.282-1.393 4.081-1.818 5.358-.193.561-.367 1.006-.484 1.373a2.255 2.255 0 0 1-.265.448z" class="cls-10" transform="translate(928.492 332.806)"/>
        <g id="Group_13496" class="cls-11" transform="translate(1219.123 618)">
            <path id="Path_43141" d="M323.685 233.56a20.117 20.117 0 0 1-7.041 10.58c-2.669 1.528-1.141 3.559 1.064 5.687 2.65 2.553 6.905 3.249 8.859 6.344s.851 6.634-.155 9.884a717.614 717.614 0 0 1-35.2 90.211l32.475-98.973-22.65-9.342z" class="cls-9" transform="translate(-291.21 -233.56)"/>
        </g>
        <path id="Path_43142" d="M240.515 408.3a1.7 1.7 0 0 1-.232-.406c-.135-.309-.329-.7-.542-1.2l-2.089-4.719c-1.818-4.178-4.41-10.193-7.737-17.7l-26.092-61.16-.155-.348.329-.232 17.891-12.8v.735l-11.857-9.4-5.261-4.139-2.611-1.931-.638-.522a2.226 2.226 0 0 1-.368-.329 1.565 1.565 0 0 1-.271-.542 7.273 7.273 0 0 1-.213-1.76 99.864 99.864 0 0 1 1.2-12.92c1.18-8.375 2.573-16.421 3.868-24.081 2.747-15.3 5.474-29.013 7.737-40.618s4.294-20.831 5.667-27.253c.7-3.172 1.257-5.648 1.644-7.408l.445-1.934a2.319 2.319 0 0 1 .193-.638 3.576 3.576 0 0 1-.1.677 16.864 16.864 0 0 1-.348 1.934q-.522 2.65-1.451 7.427c-1.277 6.5-3.095 15.822-5.338 27.311s-4.874 25.28-7.582 40.618c-1.335 7.64-2.708 15.686-3.868 24.042a99.73 99.73 0 0 0-1.18 12.766 5.8 5.8 0 0 0 .174 1.47c0 .232.561.58.967.928l2.592 2.05 5.242 4.159 11.837 9.381.522.426-.542.387-17.911 12.766.155-.6 25.938 61.237c3.153 7.563 5.667 13.539 7.408 17.814.832 2.031 1.489 3.617 1.934 4.777l.464 1.238a3.152 3.152 0 0 1 .174.5z" class="cls-10" transform="translate(843.33 331.592)"/>
        <rect id="Rectangle_2362" width="151.99" height="208.778" class="cls-12" rx="2.41" transform="rotate(8.77 -3577.036 7537.697)"/>
        <g id="Group_13497" class="cls-11" transform="translate(1075.607 633.513)">
            <rect id="Rectangle_2363" width="151.99" height="208.778" class="cls-9" rx="2.41" transform="rotate(8.77 15.916 207.557)"/>
        </g>
        <path id="Rectangle_2364" d="M0 0H135.027V194.349H0z" class="cls-4" transform="rotate(8.77 -3610.212 7590.783)"/>
        <path id="Path_43143" d="M313.139 269.271a16.576 16.576 0 0 0-13.249-11.276l1.122-8.22a11.373 11.373 0 0 0-9.5-12.959 11.373 11.373 0 0 0-12.979 9.5l-1.315 8.511-2.863-.387a16.5 16.5 0 0 0-15.764 6.847l-2.224 3.095 58.026 8.975zm-23.984-15.009a6.112 6.112 0 1 1 6.963-5.106 6.112 6.112 0 0 1-6.963 5.106z" class="cls-10" transform="translate(895.365 387.355)"/>
        <path id="Path_43144" d="M278.309 265.241a164.265 164.265 0 0 1-18.181-2.282 170.4 170.4 0 0 1-18.007-3.288 164.233 164.233 0 0 1 18.162 2.282 170.208 170.208 0 0 1 18.026 3.288z" class="cls-10" transform="translate(882.053 408.832)"/>
        <path id="Path_43145" d="M259.077 265.51a37.477 37.477 0 0 1-8.8-.851 39.13 39.13 0 0 1-8.646-1.837 40.124 40.124 0 0 1 8.8.851 39.128 39.128 0 0 1 8.646 1.838z" class="cls-10" transform="translate(881.595 411.773)"/>
        <path id="Path_43146" d="M341.884 287.309c0 .271-22.63-3-50.425-7.273s-50.289-8.008-50.289-8.278 22.611 2.979 50.425 7.273 50.328 7.987 50.289 8.278z" class="cls-10" transform="translate(881.165 420.109)"/>
        <path id="Path_43147" d="M341.114 292.259c0 .271-22.611-2.979-50.425-7.273S240.4 277 240.4 276.728s22.611 2.979 50.425 7.273 50.328 7.987 50.289 8.258z" class="cls-10" transform="translate(880.446 424.753)"/>
        <path id="Path_43148" d="M340.354 297.239c0 .271-22.63-3-50.425-7.273s-50.289-8.008-50.289-8.278 22.63 2.979 50.444 7.273 50.309 7.987 50.27 8.278z" class="cls-10" transform="translate(879.736 429.386)"/>
        <path id="Path_43149" d="M339.584 302.2c0 .271-22.611-2.979-50.425-7.273s-50.289-7.988-50.289-8.278 22.611 3 50.425 7.292 50.405 7.988 50.289 8.259z" class="cls-10" transform="translate(879.016 434.019)"/>
        <path id="Path_43150" d="M338.814 307.149c0 .29-22.611-2.979-50.425-7.273s-50.289-7.988-50.289-8.259 22.611 2.979 50.425 7.273 50.347 7.989 50.289 8.259z" class="cls-10" transform="translate(878.297 438.663)"/>
        <path id="Path_43151" d="M338.054 312.13c0 .271-22.63-2.979-50.425-7.273s-50.289-7.988-50.289-8.278 22.611 2.979 50.425 7.273 50.328 8.007 50.289 8.278z" class="cls-10" transform="translate(877.587 443.296)"/>
        <path id="Path_43152" d="M286.97 308.834a8.765 8.765 0 0 1-1.934-.116c-1.3-.135-3.133-.367-5.416-.677-4.584-.619-10.889-1.528-17.833-2.592s-13.23-2.108-17.775-2.9c-2.282-.387-4.1-.735-5.377-.986a7.355 7.355 0 0 1-1.934-.5 7.556 7.556 0 0 1 1.934.116c1.3.135 3.133.367 5.416.677 4.584.6 10.89 1.528 17.833 2.592s13.23 2.108 17.775 2.9c2.282.387 4.1.735 5.377.986a7.351 7.351 0 0 1 1.934.5z" class="cls-10" transform="translate(876.989 447.481)"/>
        <path id="Path_43153" d="M305.2 268.945a33.409 33.409 0 0 1-8.143-.754 33.033 33.033 0 0 1-7.988-1.741 66.967 66.967 0 0 1 16.131 2.495z" class="cls-10" transform="translate(925.913 415.166)"/>
        <path id="Path_43154" d="M261.811 316.013a87.726 87.726 0 0 1-13.153-1.528 86.6 86.6 0 0 1-13-2.514 87.437 87.437 0 0 1 13.153 1.528 88.174 88.174 0 0 1 13 2.514z" class="cls-10" transform="translate(876.018 457.691)"/>
        <path id="Path_43155" d="M261.785 320.63a91.051 91.051 0 0 1-13.385-1.567 86.283 86.283 0 0 1-13.211-2.553 90.639 90.639 0 0 1 13.365 1.567 86.238 86.238 0 0 1 13.231 2.553z" class="cls-10" transform="translate(875.578 461.932)"/>
        <path id="Path_43156" d="M294.6 320.406a41.275 41.275 0 0 1-12.63-1.934 21.279 21.279 0 0 1 6.4.464 19.8 19.8 0 0 1 6.228 1.47z" class="cls-10" transform="translate(919.281 463.703)"/>
        <path id="Path_43157" d="M294.2 324.464a41.278 41.278 0 0 1-12.63-1.934 41.275 41.275 0 0 1 12.63 1.934z" class="cls-10" transform="translate(918.907 467.556)"/>
        <path id="Path_43158" d="M247.795 323.352a20.209 20.209 0 0 1-6.19-.445 19.167 19.167 0 0 1-6.015-1.451 19.342 19.342 0 0 1 6.17.445 18.954 18.954 0 0 1 6.035 1.451z" class="cls-10" transform="translate(875.952 466.482)"/>
        <path id="Path_43159" d="M292.028 329.063a11.316 11.316 0 0 1-4.661-.213 11.179 11.179 0 0 1-4.507-1.2 10.756 10.756 0 0 1 4.661.193 11.006 11.006 0 0 1 4.507 1.218z" class="cls-10" transform="translate(920.112 472.183)"/>
        <path id="Path_43160" d="M233.52 336.235a12.925 12.925 0 0 1 2.282 0l6.422.194 22.94.909h.522l-.116.5a10.986 10.986 0 0 1-4.023 6.247 9.11 9.11 0 0 1-7.737 1.76 9.013 9.013 0 0 1-6.364-5.512 7.737 7.737 0 0 1 2.36-8.356 7.1 7.1 0 0 1 3.056-1.625 4.534 4.534 0 0 1 .87-.135 3.874 3.874 0 0 1 .948 0 1.335 1.335 0 0 1 .986.735 2.07 2.07 0 0 1 .116 1.044 15.144 15.144 0 0 1-2.108 6.112 15.475 15.475 0 0 1-4.275 4.526 9.671 9.671 0 0 1-5.8 1.934 5.435 5.435 0 0 1-4.642-3.346 8.143 8.143 0 0 1-.387-5.4 19.535 19.535 0 0 1 5.416-7.737l.522-.522v.735a13.193 13.193 0 0 1-1.47 7.737 13.946 13.946 0 0 1-3.868 4.584 12.111 12.111 0 0 1-3.307 1.818 4.68 4.68 0 0 1-1.277.309 15.587 15.587 0 0 0 4.352-2.437 14.081 14.081 0 0 0 3.578-4.526 12.65 12.65 0 0 0 1.257-7.427l.619.194a19.089 19.089 0 0 0-5.126 7.5 7.292 7.292 0 0 0 .387 4.816 4.526 4.526 0 0 0 3.868 2.785 8.548 8.548 0 0 0 5.106-1.76 14.139 14.139 0 0 0 5.938-9.942 1.062 1.062 0 0 0 0-.522c0-.1 0-.136-.271-.174a4.585 4.585 0 0 0-1.393.135 6.307 6.307 0 0 0-2.631 1.393 6.828 6.828 0 0 0-2.07 7.273 8.085 8.085 0 0 0 12.592 3.327 10 10 0 0 0 3.733-5.686l.406.522-22.746-1.335-6.422-.425a18.083 18.083 0 0 1-2.243-.222z" class="cls-10" transform="translate(874.018 472.265)"/>
        <path id="Path_43161" d="M294.076 346.946a5.436 5.436 0 0 1-1.1 1.16 6.9 6.9 0 0 1-1.644 1.045 3.714 3.714 0 0 1-2.65.135 2.572 2.572 0 0 1-1.354-.987 3.462 3.462 0 0 1-.542-1.7 30.8 30.8 0 0 1 .271-3.694c.251-2.63.542-5.512.851-8.626l.832.329-7.389 10-1.837 2.476-1.2 1.625.29-1.934c.793-5.164 1.509-9.981 2.147-14.216l.716.387a45.331 45.331 0 0 0-7.95 8.7c-1.625 2.34-2.4 3.868-2.5 3.752a4.158 4.158 0 0 1 .445-1.1 32 32 0 0 1 1.644-2.921 41.078 41.078 0 0 1 7.737-9.091l.87-.754-.174 1.161c-.58 4.217-1.277 9.052-1.934 14.236l-.909-.387 1.934-2.476c2.63-3.52 5.126-6.886 7.447-9.961l1.025-1.393-.194 1.721c-.367 3.114-.7 6-1.006 8.607a33.131 33.131 0 0 0-.348 3.578 2.185 2.185 0 0 0 1.393 2.186 4.216 4.216 0 0 0 3.868-.89 9.684 9.684 0 0 1 1.261-.968z" class="cls-10" transform="translate(909.051 475.964)"/>
        <path id="Path_43162" d="M303.02 337.111a179.97 179.97 0 0 1-18.974.406 180.158 180.158 0 0 1-18.955-.58 176.348 176.348 0 0 1 18.955-.426 177 177 0 0 1 18.974.6z" class="cls-10" transform="translate(903.511 480.537)"/>
        <path id="Path_43163" d="M302.585 339.89a118.663 118.663 0 0 1-15.164 2.147 119.687 119.687 0 0 1-15.261 1.163 111.407 111.407 0 0 1 15.164-2.166 113.242 113.242 0 0 1 15.261-1.144z" class="cls-10" transform="translate(910.116 483.774)"/>
        <g id="Group_13498" class="cls-11" transform="translate(1041.184 624.518)">
            <path id="Path_43164" d="M202.533 236.93c-.232 5.8 1.335 11.721 6.17 14.99-6.054 2.94-9.284 9.98-9.478 16.711s2.147 13.269 4.681 19.516c7.834 19.207 24.545 46.247 37.291 62.61 0 0-6.46-17.408-8.317-21.489-8.394-18.356-15.8-36.75-24.216-55.164-.928-1.934-2.592-7.582-2.592-7.582a10.736 10.736 0 0 0 2.515-1.721c4.719-3.868 14.951-10.657 14.951-10.657s-21.005-16.634-21.005-17.214" class="cls-9" transform="translate(-199.214 -236.93)"/>
        </g>
        <path id="Path_43165" d="M202.359 257.33c.271 0-.213 22.34-1.1 49.864s-1.818 49.844-2.089 49.825.193-22.321 1.083-49.864 1.816-49.844 2.106-49.825z" class="cls-10" transform="translate(841.854 406.646)"/>
        <path id="Path_43166" d="M218.934 284.136H217c0-.735 2.8-73.906 4.99-103.035a15.029 15.029 0 0 1 5.087-10.754c6.035-5.164 15.068-4.487 15.474-4.468l-.155 1.934c-.1 0-8.627-.619-14.042 4a13.269 13.269 0 0 0-4.429 9.439c-2.125 28.92-4.894 102.072-4.991 102.884z" class="cls-10" transform="translate(858.585 321.175)"/>
        <path id="Path_43167" d="M229.024 318.474H225.6v-3.868h3.424a13.539 13.539 0 0 0 13.539-13.539V260.1h3.868v40.967a17.408 17.408 0 0 1-17.407 17.407z" class="cls-13" transform="translate(866.62 409.234)"/>
        <path id="Path_43168" d="M232.1 291.725a4.159 4.159 0 1 1-3.733-4.545 4.158 4.158 0 0 1 3.733 4.545z" class="cls-10" transform="translate(864.938 434.513)"/>
        <path id="Path_43169" d="M220.131 318.424h-3.424a17.408 17.408 0 0 1-17.407-17.408l.155-40.966h3.868l-.155 40.966a13.539 13.539 0 0 0 13.539 13.539h3.424z" class="cls-13" transform="translate(842.05 409.187)"/>
        <path id="Path_43170" d="M207.6 291.655a4.139 4.139 0 1 0 .926-3.039 4.139 4.139 0 0 0-.926 3.039z" class="cls-10" transform="translate(849.785 434.467)"/>
        <path id="Path_43171" d="M199.026 296.393l-.483-29.206c-.368-22.263 15.9-40.618 36.266-40.986a35.357 35.357 0 0 1 26.4 11.489 42.166 42.166 0 0 1 11.2 28.259l.484 29.226-5.8.1-.483-29.226a36.305 36.305 0 0 0-9.671-24.39 29.4 29.4 0 0 0-22.069-9.671c-17.176.29-30.947 16.015-30.56 35.086l.484 29.206z" class="cls-10" transform="translate(841.337 377.564)"/>
        <path id="Path_43172" d="M295.066 287.938c0-.774-8.878-76.807-11.431-101.178l-.174-1.779c-.793-8.278-1.721-17.64-10.87-20.116l.5-1.934c10.445 2.824 11.47 13.346 12.3 21.8l.174 1.76c2.534 24.371 11.334 100.4 11.412 101.178z" class="cls-10" transform="translate(910.518 318.457)"/>
        <circle id="Ellipse_523" cx="20.754" cy="20.754" r="20.754" class="cls-10" transform="rotate(-45 1304.858 -1124.337)"/>
        <path id="Path_43173" d="M299.587 225.669a10.019 10.019 0 1 1-2.928-7.1 10.038 10.038 0 0 1 2.928 7.1z" class="cls-13" transform="translate(916.983 367.689)"/>
        <path id="Path_43174" d="M233.854 296.58L207.8 360.66l207.83 57.62a66.652 66.652 0 0 0 56.208-9.671c21.74-15.338 27.079-42.166 24.429-68.722l-3.752-28.239z" class="cls-9" transform="translate(849.991 443.313)"/>
        <path id="Path_43175" d="M357.952 360.473c-.213 0-.658-4.371-2.8-11.122a56.115 56.115 0 0 0-1.934-5.435c-.735-1.934-1.76-3.868-2.785-6.035a80.354 80.354 0 0 0-8.375-12.669A81.375 81.375 0 0 0 331.3 314.5c-1.934-1.412-3.6-2.824-5.358-3.868a56.1 56.1 0 0 0-4.932-3.037c-6.19-3.423-10.426-4.739-10.348-4.952a16.112 16.112 0 0 1 2.959.909 29.386 29.386 0 0 1 3.379 1.332c1.3.6 2.8 1.2 4.352 2.089a51.4 51.4 0 0 1 5.048 2.959c1.8 1.083 3.578 2.5 5.474 3.868a78.66 78.66 0 0 1 10.967 10.793 77.237 77.237 0 0 1 8.394 12.882c1.025 2.147 2.031 4.159 2.747 6.151a50.891 50.891 0 0 1 1.934 5.532 40.44 40.44 0 0 1 1.18 4.681 23.923 23.923 0 0 1 .638 3.656 16.4 16.4 0 0 1 .218 2.978z" class="cls-10" transform="translate(946.082 448.975)"/>
        <g id="Group_13499" class="cls-11" transform="translate(982.865 713.974)">
            <path id="Path_43176" d="M239.347 336.371c-15.861 1.315-28.1 2.766-44.487 4.777-10.232 1.257-20.851.542-24.2-9.187s-1.219-20.87 4.275-29.593 14.12-29.013 60.309-13.539z" transform="translate(-169.063 -283.18)"/>
        </g>
        <path id="Path_43177" d="M216.46 321.225l.116-.426.445-1.277 1.741-4.874 6.673-18.007.1-.252h.251l70.7 6.4 68.394 6.5 20.715 2.07 5.629.619 1.451.194a1.587 1.587 0 0 1 .5.1H391.2l-5.648-.426-20.754-1.779-68.413-6.19-70.657-6.712.348-.232-6.963 17.911-1.934 4.8-.522 1.238c-.1.227-.178.363-.197.343z" class="cls-10" transform="translate(858.081 443.136)"/>
        <g id="Group_13500" class="cls-11" transform="translate(1160.052 797.668)">
            <path id="Path_43178" d="M260.67 359.235c29.516 7.911 47.465 3.327 74.273-11.334a144.236 144.236 0 0 0 15.783-10.715 57.038 57.038 0 0 0 10.116-10.735c-34.526 13.211-63.21 23.211-98.8 33.152" transform="translate(-260.67 -326.45)"/>
        </g>
        <path id="Path_43179" d="M257.541 339.054l6.75-18.859L248.6 295.67a18.51 18.51 0 0 0-12.147-8.22l-57.717-10.89a9.3 9.3 0 0 0 4.874 11.354c7.563 4.313 41.585 12.224 41.585 12.224l-52.4-.89s-1.625 7.563 4.313 10.271 43.268 4.081 43.268 4.081l-47.794 6.731s-.271 7.582 10.657 7.737a316.173 316.173 0 0 0 32.2-2.031 1.721 1.721 0 0 1 1.934 1.412 1.722 1.722 0 0 1-1.3 1.934l-31.779 7.5a4.255 4.255 0 0 0-.309 8.22 5.2 5.2 0 0 0 1.76.116c5.416-.542 37.756-4.642 37.756-4.642l1.683 3.772 32.34-5.261" class="cls-14" transform="translate(817.097 424.611)"/>
        <path id="Path_43180" d="M214.423 308.942a10.792 10.792 0 0 0-1.78-2.863 7.872 7.872 0 0 0-3.056-1.934 11.892 11.892 0 0 0-4.41-.484c-3.211.232-6.112 1.161-8.278 1.431a7.548 7.548 0 0 1-3.559 0 29.772 29.772 0 0 1 3.424-.754 52.05 52.05 0 0 1 8.356-1.741 11.8 11.8 0 0 1 4.8.619 8.258 8.258 0 0 1 3.249 2.282 4.081 4.081 0 0 1 1.257 3.443z" class="cls-15" transform="translate(836.482 448.901)"/>
        <path id="Path_43181" d="M223.989 301.432c-.1 0-.155-.522-.58-1.354a6.652 6.652 0 0 0-2.746-2.708c-2.921-1.7-7.853-1.141-13.037-.793s-9.942 1.122-13.365 1.567a32.234 32.234 0 0 1-5.571.561 28.188 28.188 0 0 1 5.454-1.257 134.246 134.246 0 0 1 13.385-1.934 72.156 72.156 0 0 1 7.466-.29 11.875 11.875 0 0 1 6.015 1.47 6.422 6.422 0 0 1 2.746 3.172 2.553 2.553 0 0 1 .232 1.567z" class="cls-15" transform="translate(832.138 442.04)"/>
        <path id="Path_43182" d="M221.789 299.346a9.438 9.438 0 0 0-1.219-4.371 9.922 9.922 0 0 0-3.482-3.385 15.471 15.471 0 0 0-5.8-1.7c-4.333-.406-8.394 0-11.354-.232a10.135 10.135 0 0 1-4.623-1.122c0-.155 1.779.367 4.661.425s6.886-.483 11.431 0a14.546 14.546 0 0 1 6.132 1.934 9.981 9.981 0 0 1 3.636 3.868 6.944 6.944 0 0 1 .87 3.443 3.142 3.142 0 0 1-.252 1.14z" class="cls-15" transform="translate(838.322 435.77)"/>
        <path id="Path_43183" d="M305.87 332.037a17.832 17.832 0 0 1 .29-3.133c.251-1.934.735-4.913 1.412-8.472 1.335-7.118 3.694-16.847 6.19-27.582a248.393 248.393 0 0 0 5.048-27.736c.232-1.8.329-3.424.464-4.855s.213-2.65.251-3.675a16.547 16.547 0 0 1 .271-3.133 19.225 19.225 0 0 1 .116 3.153v3.696a42.3 42.3 0 0 1-.329 4.874 204.845 204.845 0 0 1-4.758 27.91c-2.514 10.754-4.971 20.425-6.48 27.5-.754 3.52-1.354 6.4-1.722 8.375a19.471 19.471 0 0 1-.754 3.076z" class="cls-10" transform="translate(941.608 403.021)"/>
        <path id="Path_43184" d="M368.78 374.328a3.866 3.866 0 0 1-1.141-.193l-3.211-.716-11.76-2.9c-9.923-2.5-23.6-6.112-38.684-10.29s-28.607-8.182-38.375-11.18L264 345.451l-3.133-1.044A4.4 4.4 0 0 1 260 344a4.191 4.191 0 0 1 1.122.232l3.191.851 11.605 3.308 38.452 10.889 38.471 10.561 11.605 3.191 3.172.909a5.8 5.8 0 0 1 1.162.387z" class="cls-10" transform="translate(898.756 487.613)"/>
        <path id="Path_43185" d="M213.3 96.976c4.255-13.133 26.054-24.99 38.007-31.876 17.891-10.271 34.468-8.22 44.68.928 18.452-15.474 42.765-30.367 66.072-24.274s42.241 29.961 37.988 53.694c-2.5 13.984-12.186 26.518-11.605 40.618.387 9.671 5.512 18.414 9.671 27.195s7.215 18.994 3.578 27.969c-3.385 8.336-11.837 13.539-16.383 21.276-3.714 6.344-4.565 13.888-6.944 20.831-8.781 25.725-39.148 40.154-65.956 35.628s-49.148-24.7-61.894-48.761-16.847-51.682-18.317-78.819" class="cls-10" transform="translate(855.129 203.949)"/>
        <path id="Path_43186" d="M223.51 92.488l5.358 214.5c1.934 24.584 24.584 42.553 50.889 40.27 26.557-2.282 46.846-24.274 45.318-49.148-1.605-26.092-2.8-53.616-2.8-53.616s33.249-7.737 37.388-52.069c2.108-22.708-1.567-59.96-5.416-89.476A43.984 43.984 0 0 0 303.18 65.2" class="cls-14" transform="translate(864.667 226.562)"/>
        <path id="Path_43187" d="M291.407 103.1a5.609 5.609 0 0 1-5.048 6.015 5.377 5.377 0 0 1-6.131-4.681 5.648 5.648 0 0 1 5.048-6.035 5.4 5.4 0 0 1 6.131 4.7z" class="cls-10" transform="translate(917.638 258.118)"/>
        <path id="Path_43188" d="M299.641 100.378c-.658.774-5.126-2.108-11.18-1.7s-10.29 3.714-10.986 3.017c-.348-.309.271-1.663 2.108-3.211a15.473 15.473 0 0 1 8.762-3.327 14.932 14.932 0 0 1 8.936 2.263c1.953 1.333 2.669 2.59 2.36 2.958z" class="cls-10" transform="translate(914.995 255.112)"/>
        <path id="Path_43189" d="M261.407 106.237a5.609 5.609 0 0 1-5.048 6.035 5.4 5.4 0 0 1-6.131-4.7 5.648 5.648 0 0 1 5.048-6.035 5.4 5.4 0 0 1 6.131 4.7z" class="cls-10" transform="translate(889.612 261.051)"/>
        <path id="Path_43190" d="M268.911 102.948c-.658.774-5.126-2.108-11.18-1.7s-10.29 3.714-10.986 3.017c-.348-.309.271-1.663 2.128-3.211a15.474 15.474 0 0 1 8.743-3.327 14.933 14.933 0 0 1 8.936 2.263c2.048 1.31 2.668 2.59 2.359 2.958z" class="cls-10" transform="translate(886.286 257.512)"/>
        <path id="Path_43191" d="M273.959 147.153c0-.329 3.656-1.219 9.671-2.4 1.528-.251 2.979-.658 3.172-1.741a7.834 7.834 0 0 0-1.335-4.507c-1.683-3.656-3.462-7.466-5.319-11.47-7.427-16.363-12.92-29.845-12.263-30.135s7.215 12.727 14.661 29.013c1.779 4.023 3.5 7.872 5.126 11.605a8.838 8.838 0 0 1 1.2 6.015 3.868 3.868 0 0 1-2.4 2.418 9.672 9.672 0 0 1-2.592.522c-6.052.757-9.921 1.027-9.921.68z" class="cls-10" transform="translate(906.073 256.769)"/>
        <path id="Path_43192" d="M303.447 163.286a111.835 111.835 0 0 1-59.767-11.876s16.615 29.535 60.25 22.59z" class="cls-15" transform="translate(883.51 307.695)"/>
        <path id="Path_43193" d="M271.447 89.95c-.5 1.683-6.6 1.3-13.636 2.611s-12.669 3.617-13.714 2.205c-.464-.677.445-2.3 2.65-4.042a23.21 23.21 0 0 1 9.98-4.236 23.443 23.443 0 0 1 10.851.561c2.67.889 4.062 2.108 3.869 2.901z" class="cls-10" transform="translate(883.789 246.681)"/>
        <path id="Path_43194" d="M297.146 91.564c-.967 1.451-5.242.29-10.251.542s-9.207 1.528-10.271.155c-.484-.677 0-2.089 1.934-3.52A14.855 14.855 0 0 1 295.1 88.2c1.756 1.294 2.472 2.667 2.046 3.364z" class="cls-10" transform="translate(914.124 246.537)"/>
        <path id="Path_43195" d="M268.684 128.789c4.739 0 7.1 1.393 11.122 3.868a6.944 6.944 0 0 1 2.863 2.824 6 6 0 0 1-.6 5.261 10.58 10.58 0 0 1-10.039 5.358 9.671 9.671 0 0 1-8.414-7.447 9.071 9.071 0 0 1 5.068-9.9" class="cls-15" transform="translate(901.986 286.526)"/>
        <path id="Path_43196" d="M285.588 139.972c0 .464-1.509 1.161-4.159 1.006a22.533 22.533 0 0 1-9.478-3.095 26.363 26.363 0 0 1-7.6-6.363c-1.567-1.934-2.05-3.636-1.644-3.868.793-.522 4.778 3.656 11.044 7.1a47.932 47.932 0 0 0 8.143 3.733c2.166.733 3.636.985 3.694 1.487z" class="cls-10" transform="translate(901.156 285.458)"/>
        <circle id="Ellipse_524" cx="1.605" cy="1.605" r="1.605" class="cls-15" transform="translate(1155.255 384.464)"/>
        <path id="Path_43197" d="M284.9 110.355a1.605 1.605 0 1 1-1.605-1.605 1.605 1.605 0 0 1 1.605 1.605z" class="cls-15" transform="translate(919.019 267.842)"/>
        <path id="Path_43198" d="M289.5 112.439a1.625 1.625 0 1 1-1.615-1.448 1.625 1.625 0 0 1 1.615 1.448z" class="cls-15" transform="translate(923.293 269.936)"/>
        <path id="Path_43199" d="M290.881 109.045a1.605 1.605 0 1 1-1.605-1.605 1.605 1.605 0 0 1 1.605 1.605z" class="cls-15" transform="translate(924.606 266.618)"/>
        <path id="Path_43200" d="M257.619 118.1a1.625 1.625 0 1 1-1.625-1.605 1.625 1.625 0 0 1 1.625 1.605z" class="cls-15" transform="translate(893.497 275.073)"/>
        <path id="Path_43201" d="M254.481 114.775a1.605 1.605 0 1 1-1.605-1.605 1.605 1.605 0 0 1 1.605 1.605z" class="cls-15" transform="translate(890.6 271.971)"/>
        <path id="Path_43202" d="M293.752 117.608a44.364 44.364 0 0 0-1.064-6.77 27.794 27.794 0 0 0-10.174-15.145 27.213 27.213 0 0 0-11.605-5.106 27.621 27.621 0 0 0-14.429 1.219 25.707 25.707 0 0 0-6.924 3.752 26.307 26.307 0 0 0-5.8 5.8 27.388 27.388 0 0 0 0 32.437 27.3 27.3 0 0 0 27.156 10.89 27.214 27.214 0 0 0 11.605-5.106 27.833 27.833 0 0 0 10.174-15.125 45.112 45.112 0 0 0 1.064-6.77 1.161 1.161 0 0 1 0 .445v1.335a13.79 13.79 0 0 1-.174 2.166 18.926 18.926 0 0 1-.522 2.9 26.365 26.365 0 0 1-3.017 7.543 28.143 28.143 0 0 1-33.887 12.263 27.08 27.08 0 0 1-7.2-3.868 26.5 26.5 0 0 1-6.015-6.015 28.2 28.2 0 0 1 0-33.6 26.5 26.5 0 0 1 6.015-6.015 27.078 27.078 0 0 1 7.2-3.868 28.206 28.206 0 0 1 33.887 12.263 26.577 26.577 0 0 1 3.017 7.543 18.75 18.75 0 0 1 .522 2.921 13.4 13.4 0 0 1 .174 2.147v1.335a1.236 1.236 0 0 1-.003.429z" class="cls-6" transform="translate(877.635 249.68)"/>
        <path id="Path_43203" d="M279.05 100.461a21.994 21.994 0 0 0-6.615-.774 23.016 23.016 0 0 0-6.325 2.128 4.9 4.9 0 0 1 1.489-1.47 10.774 10.774 0 0 1 4.719-1.663 10.426 10.426 0 0 1 4.99.658c1.2.483 1.8 1.005 1.742 1.121z" class="cls-6" transform="translate(904.464 258.374)"/>
        <path id="Path_43204" d="M321.923 67.75c-3.868 34.951-29.864 66.421-63.4 77.02 10.812 15.59 4 45.26 4.275 70.018.271 23.017.252 29.593-14.661 41.334-12.321 2.959-19.342-30.792-28.588-40.232s-17.93-21.063-17.253-34.177c.329-6.151 2.727-12.031 3.056-18.162.387-6.808-1.8-13.539-3-20.174-5.338-29.69 9.981-61.624 35.918-77.155s60.386-14.487 86.053 1.393" class="cls-10" transform="translate(843.912 217.741)"/>
        <path id="Path_43205" d="M268.091 161.226a84.718 84.718 0 0 0-16.228-30.831l.561 1.2a37.968 37.968 0 1 0-58.471 44.912c-4.352-.967-8.762 2.785-9.671 7.137a16.538 16.538 0 0 0 3.269 12.611c9.071 13.269 29.632 16.77 42.552 7.253 10.251 6.944 25.4 2.9 33-6.866s8.489-23.542 4.988-35.416z" class="cls-10" transform="translate(823.722 267.957)"/>
        <path id="Path_43206" d="M205.662 155.61a9.464 9.464 0 0 1-1.1-1.238 12.921 12.921 0 0 1-1.934-4.275c-1.18-4-.619-10.329 2.553-17.021a33.6 33.6 0 0 1 7-9.806 65.626 65.626 0 0 1 10.522-8.955 55.184 55.184 0 0 1 13.675-6.847c5.01-1.721 10.329-3.056 15.744-4.41s10.715-2.689 15.667-4.429a96.354 96.354 0 0 0 13.868-6.035 102.879 102.879 0 0 0 20.87-14.7 105.552 105.552 0 0 0 11.76-12.669c1.277-1.605 2.205-2.9 2.843-3.868a8.867 8.867 0 0 1 1.025-1.277 11.775 11.775 0 0 1-.851 1.393c-.6.909-1.47 2.244-2.708 3.868A96.1 96.1 0 0 1 302.991 78.3a101.952 101.952 0 0 1-20.967 15.01 97.109 97.109 0 0 1-13.984 6.131c-5.01 1.76-10.329 3.114-15.744 4.487s-10.715 2.669-15.686 4.352a55.357 55.357 0 0 0-13.539 6.673 67.868 67.868 0 0 0-10.445 8.781 33.268 33.268 0 0 0-6.808 9.69c-3.191 6.518-3.868 12.688-2.8 16.615a15.184 15.184 0 0 0 2.644 5.571z" class="cls-13" transform="translate(844.624 222.374)"/>
        <path id="Path_43207" d="M319.224 60.13a10.409 10.409 0 0 1-.909 1.1c-.619.716-1.567 1.721-2.785 3.017A122.844 122.844 0 0 1 304.369 74.4a78.084 78.084 0 0 1-19.187 11.61 73.9 73.9 0 0 1-12.8 3.462c-4.507.909-9.207 1.605-14 2.34A155.724 155.724 0 0 0 231.7 97.4a58.626 58.626 0 0 0-19.342 10.7 38.161 38.161 0 0 0-9.323 11.605 37.29 37.29 0 0 0-1.605 3.752 6.346 6.346 0 0 1-.561 1.315 10.142 10.142 0 0 1 .367-1.373 27.558 27.558 0 0 1 1.451-3.868 36.9 36.9 0 0 1 9.207-11.953 58.026 58.026 0 0 1 19.477-11.025 153.187 153.187 0 0 1 26.808-5.8c4.816-.716 9.5-1.431 13.965-2.3a74.41 74.41 0 0 0 12.669-3.366A79.3 79.3 0 0 0 303.886 73.8a140.6 140.6 0 0 0 11.354-9.84l2.92-2.86a7.134 7.134 0 0 1 1.064-.967z" class="cls-13" transform="translate(843.517 222.421)"/>
        <path id="Path_43208" d="M311.431 40.388c0 .213-3.772.348-9.671 1.934a45.283 45.283 0 0 0-4.72 1.509c-1.683.561-3.385 1.393-5.222 2.2a58.566 58.566 0 0 0-20.154 16.015c-1.2 1.605-2.4 3.075-3.327 4.6a42.847 42.847 0 0 0-2.534 4.236c-2.843 5.338-3.868 9.013-4.023 8.936a12.49 12.49 0 0 1 .658-2.553 22.044 22.044 0 0 1 1.044-2.94 35.718 35.718 0 0 1 1.7-3.868 38 38 0 0 1 2.456-4.371c.909-1.547 2.089-3.075 3.288-4.719a63.229 63.229 0 0 1 9.3-9.342 61.9 61.9 0 0 1 11.2-6.924 50.459 50.459 0 0 1 5.338-2.147 48.915 48.915 0 0 1 8.859-2.2 21.276 21.276 0 0 1 3.095-.368 11.605 11.605 0 0 1 2.713.002z" class="cls-13" transform="translate(900.419 203.904)"/>
        <path id="Path_43209" d="M340.545 189.7s0-.135.29-.387l.909-1.064c.812-.948 2.031-2.321 3.4-4.236a23.769 23.769 0 0 0 3.868-7.524 13.538 13.538 0 0 0 .406-5.2 14.876 14.876 0 0 0-1.934-5.513c-2.089-3.617-5.513-6.77-8.646-10.677a62.455 62.455 0 0 1-13.095-30.56 126.834 126.834 0 0 1-.464-18.859 65.609 65.609 0 0 0-1.721-18.549 38.162 38.162 0 0 0-20.967-24.1 35.145 35.145 0 0 0-13.23-3.056 38.684 38.684 0 0 0-23.829 7.021l-1.161.812c-.251.174-.387.271-.406.251a27.618 27.618 0 0 1 6.015-4.217 38.684 38.684 0 0 1 19.342-4.584 36.092 36.092 0 0 1 13.539 3 38.838 38.838 0 0 1 21.586 24.622 66.517 66.517 0 0 1 1.76 18.82 127.3 127.3 0 0 0 .445 18.723 61.663 61.663 0 0 0 12.8 30.154c3.056 3.868 6.5 7.079 8.627 10.851a15.224 15.224 0 0 1 1.934 5.8 13.906 13.906 0 0 1-.5 5.435 23.443 23.443 0 0 1-4.12 7.6 47.813 47.813 0 0 1-3.559 4.139l-1.006 1.006a1.686 1.686 0 0 1-.29.29z" class="cls-13" transform="translate(902.465 221.592)"/>
        <path id="Path_43210" d="M328.463 114.093a44.75 44.75 0 0 0-1.064-6.77 27.5 27.5 0 0 0-48.935-9.342 27.35 27.35 0 0 0 0 32.417 25.589 25.589 0 0 0 5.8 5.8 26.169 26.169 0 0 0 6.924 3.733 27.659 27.659 0 0 0 36.212-19.01 44.746 44.746 0 0 0 1.064-6.77 1.248 1.248 0 0 1 0 .464v1.315a13.544 13.544 0 0 1-.175 2.169 19.554 19.554 0 0 1-.522 2.918 26.574 26.574 0 0 1-3.017 7.543 28.154 28.154 0 0 1-33.888 12.24 26.383 26.383 0 0 1-7.2-3.868 27.08 27.08 0 0 1-6.015-6.035 28.162 28.162 0 0 1 0-33.578 26.5 26.5 0 0 1 6.015-6.015 27.08 27.08 0 0 1 7.2-3.868A28.051 28.051 0 0 1 324.749 99.8a26.268 26.268 0 0 1 3.017 7.524 19.553 19.553 0 0 1 .522 2.921 13.537 13.537 0 0 1 .174 2.166v1.335a1.17 1.17 0 0 1 .001.347z" class="cls-6" transform="translate(910.06 246.367)"/>
        <path id="Path_43211" d="M245.5 206.6a4.313 4.313 0 0 1-.948-.638c-.6-.445-1.451-1.122-2.573-1.934a80.365 80.365 0 0 1-8.781-8.182 31.76 31.76 0 0 1-8.278-15.706 75.01 75.01 0 0 1-.464-10.522 18.2 18.2 0 0 0-3.017-10.367 63.677 63.677 0 0 0-7.563-8.2 30.792 30.792 0 0 1-6.228-8.569 37.967 37.967 0 0 1-3.017-9.091 36.309 36.309 0 0 1-.793-8.3 51.277 51.277 0 0 1 .832-6.789 23.019 23.019 0 0 0 .116-5.087c-.329-2.785-.87-4.275-.774-4.313a5.574 5.574 0 0 1 .426 1.064 22.351 22.351 0 0 1 .735 3.191 21.778 21.778 0 0 1 0 5.2c-.174 1.934-.638 4.255-.7 6.75a40 40 0 0 0 3.868 16.963 29.979 29.979 0 0 0 6.093 8.278 62.519 62.519 0 0 1 7.737 8.317 16.83 16.83 0 0 1 2.456 5.319 25.591 25.591 0 0 1 .716 5.59 78.282 78.282 0 0 0 .406 10.406 31.489 31.489 0 0 0 7.872 15.474 90.022 90.022 0 0 0 8.53 8.336l2.63 2.012a5.474 5.474 0 0 1 .716.793z" class="cls-13" transform="translate(846.279 267.982)"/>
        <path id="Path_43212" d="M241.4 136.12a3.116 3.116 0 0 1 0 .793 13.66 13.66 0 0 1-.155 2.263 36.117 36.117 0 0 1-1.934 8.143 39.748 39.748 0 0 1-43.829 26.247 36.514 36.514 0 0 1-8.066-2.186c-.928-.348-1.605-.735-2.07-.948s-.7-.367-.677-.406a57.2 57.2 0 0 0 10.909 2.843 41.858 41.858 0 0 0 12.166-.213 38.568 38.568 0 0 0 24.99-14.951 41.782 41.782 0 0 0 5.919-10.619 59.513 59.513 0 0 0 2.747-10.966z" class="cls-13" transform="translate(828.382 293.411)"/>
        <path id="Path_43213" d="M235.747 131.42a11.358 11.358 0 0 1-.561 2.65 38.3 38.3 0 0 1-2.727 6.866A44.6 44.6 0 0 1 215.98 158.6a48.065 48.065 0 0 1-23.21 6.808 44.48 44.48 0 0 1-7.369-.387 12.167 12.167 0 0 1-2.65-.542 99.068 99.068 0 0 0 10 .213 49.573 49.573 0 0 0 22.727-6.963 45.879 45.879 0 0 0 16.363-17.137 75.971 75.971 0 0 0 3.907-9.168z" class="cls-13" transform="translate(826.589 289.02)"/>
        <path id="Path_43214" d="M180.9 123.75a7.294 7.294 0 0 1 1.741-1.006 16.535 16.535 0 0 1 2.147-.967 27.277 27.277 0 0 1 2.959-1.044 40.62 40.62 0 0 1 7.988-1.547 46.884 46.884 0 0 1 9.961.193 47.658 47.658 0 0 1 9.671 2.418 40.294 40.294 0 0 1 7.273 3.675 25.567 25.567 0 0 1 2.534 1.818 14.334 14.334 0 0 1 1.8 1.528 8.319 8.319 0 0 1 1.373 1.47c-.135.155-2.166-1.934-6.093-4.217a43.639 43.639 0 0 0-7.215-3.4 52.316 52.316 0 0 0-9.478-2.282 51.006 51.006 0 0 0-9.671-.29 44.233 44.233 0 0 0-7.872 1.335c-4.487 1.156-6.925 2.491-7.118 2.316z" class="cls-13" transform="translate(824.861 277.425)"/>
        <path id="Path_43215" d="M229.92 142.359c-.174.213-12.379-10.155-27.234-23.21s-26.769-23.675-26.6-23.887 12.379 10.174 27.253 23.21 26.736 23.694 26.581 23.887z" class="cls-12" transform="translate(820.366 255.238)"/>
        <path id="Path_43216" d="M232.73 112.229a11.915 11.915 0 0 1 3.984-4.487 11.8 11.8 0 0 1 5.261-2.9 35.418 35.418 0 0 1-4.642 3.675 38.3 38.3 0 0 1-4.6 3.714z" class="cls-6" transform="translate(873.28 264.189)"/>
        <path id="Path_43217" d="M205.891 164.709a2.381 2.381 0 0 1-.251-.387c-.174-.329-.387-.716-.658-1.18a17.176 17.176 0 0 1-1.509-4.952 24.758 24.758 0 0 1 5.106-17.988 28.491 28.491 0 0 1 4.313-4.661 34.466 34.466 0 0 1 5.687-3.868 50.153 50.153 0 0 1 14.274-4.913c10.464-2.186 22.243-1.663 34.235-3.443a52.708 52.708 0 0 0 16.847-5.2 50.289 50.289 0 0 0 12.921-10.058 79.553 79.553 0 0 0 14.971-23.443c3.172-7.331 5.164-13.539 6.615-17.717L320.086 62l.445-1.257a2.6 2.6 0 0 1 .174-.426v.445l-.348 1.3-1.605 5.029a178.954 178.954 0 0 1-6.325 17.872 79.032 79.032 0 0 1-14.951 23.81 50.714 50.714 0 0 1-13.191 10.213 53.036 53.036 0 0 1-17.1 5.338c-12.147 1.818-23.868 1.238-34.216 3.366s-19.226 6.441-23.887 12.94a24.6 24.6 0 0 0-5.261 17.408 22.225 22.225 0 0 0 2.07 6.673z" class="cls-3" transform="translate(845.807 222.598)"/>
        <path id="Path_43218" d="M245.943 192.117a28.684 28.684 0 0 1-2.321 7.737 36.055 36.055 0 0 1-5.048 8.22 33.926 33.926 0 0 1-9.787 8.24 32.03 32.03 0 0 1-14.971 3.868 29.206 29.206 0 0 1-16.982-4.971 28.433 28.433 0 0 1-11.257-15.919 24.7 24.7 0 0 1-.58-10.464 25.376 25.376 0 0 1 4.042-10.019 24.216 24.216 0 0 1 14.371-10.174v.967a38.82 38.82 0 0 1-16.6-6.75 31.9 31.9 0 0 1-10.561-12.669 29.825 29.825 0 0 1-2.572-14.565 24.7 24.7 0 0 1 4.2-12.05 25.144 25.144 0 0 1 7.737-7.157 23.809 23.809 0 0 1 7.331-2.824 20.365 20.365 0 0 1 4.913-.368l1.257.135a1.433 1.433 0 0 1 .426 0 25.589 25.589 0 0 0-6.538.5 23.481 23.481 0 0 0-7.118 2.921 24.661 24.661 0 0 0-7.389 7.079 24.042 24.042 0 0 0-3.965 11.741 29.3 29.3 0 0 0 2.592 14.139A31.16 31.16 0 0 0 187.433 162a38.491 38.491 0 0 0 16.209 6.557l2.5.387-2.456.58a23.21 23.21 0 0 0-13.772 9.787 24.371 24.371 0 0 0-3.868 9.671 24.1 24.1 0 0 0 .542 10.058 27.524 27.524 0 0 0 10.851 15.474 28.452 28.452 0 0 0 16.441 4.894 31.315 31.315 0 0 0 14.642-3.694 33.442 33.442 0 0 0 9.671-7.95 37.117 37.117 0 0 0 5.145-8.027 43.606 43.606 0 0 0 2.147-5.648c.174-.619.309-1.122.406-1.528z" class="cls-10" transform="translate(818.037 271.998)"/>
        <path id="Path_43219" d="M215.468 161.085a1.78 1.78 0 0 1-.464-.213l-1.354-.716a35.815 35.815 0 0 1-4.816-3.307 40.067 40.067 0 0 1 1.122-63.132 56.615 56.615 0 0 1 18.162-8.9 101.647 101.647 0 0 1 20.019-3.54c6.5-.619 12.766-.909 18.723-1.315a164.194 164.194 0 0 0 16.828-1.934 76.556 76.556 0 0 0 14.178-3.868A50.831 50.831 0 0 0 315.7 62.924a43.567 43.567 0 0 0 3.733-4.429l.89-1.219a2.052 2.052 0 0 1 .329-.406 29.726 29.726 0 0 1-4.681 6.325A49.5 49.5 0 0 1 298.058 74.8a76.109 76.109 0 0 1-14.294 4 160.938 160.938 0 0 1-16.905 1.934c-11.9.948-25.145 1.045-38.394 4.971a56.42 56.42 0 0 0-17.853 8.7 39.651 39.651 0 0 0-13.539 44.719 40.889 40.889 0 0 0 11.992 17.253 39.586 39.586 0 0 0 4.681 3.443l1.277.793a2.379 2.379 0 0 1 .445.472z" class="cls-10" transform="translate(837.12 219.375)"/>
        <path id="Path_43220" d="M336.159 140.973a2.5 2.5 0 0 1-1.8.89 5.01 5.01 0 0 1-4.719-3.075 4.564 4.564 0 0 1 .271-4.217 7.852 7.852 0 0 1 3.868-3.269 12.282 12.282 0 0 1 11.818 1.934 12.688 12.688 0 0 1 4.391 5.667 13.406 13.406 0 0 1 .542 7.737 12.766 12.766 0 0 1-4.294 7.137 15.358 15.358 0 0 1-8.143 3.443 21.392 21.392 0 0 1-17.214-6.77 24.2 24.2 0 0 1-5.513-8.375 19.089 19.089 0 0 1-.966-10.275 45.2 45.2 0 0 1 3.133-9.787c1.3-3.095 2.5-6.151 3.5-9.207a77.544 77.544 0 0 0 3.867-18.138 54.8 54.8 0 0 0-1-16.673 43.226 43.226 0 0 0-5.512-13.539 38.045 38.045 0 0 0-15.474-14.12 35.14 35.14 0 0 0-5.4-1.934l-1.47-.367a1.74 1.74 0 0 1-.483-.174h.5l1.489.271a30.059 30.059 0 0 1 5.532 1.837 37.8 37.8 0 0 1 15.841 14.12 43.442 43.442 0 0 1 5.8 13.539 55.224 55.224 0 0 1 1.122 16.944 77.969 77.969 0 0 1-3.868 18.375c-1.006 3.095-2.224 6.189-3.52 9.265a46.022 46.022 0 0 0-3.056 9.671 18.1 18.1 0 0 0 .929 9.671 22.839 22.839 0 0 0 5.28 8.046 20.483 20.483 0 0 0 16.39 6.556 14.564 14.564 0 0 0 7.737-3.211 11.915 11.915 0 0 0 4.062-6.634 12.8 12.8 0 0 0-.449-7.311 12.282 12.282 0 0 0-4.1-5.4 11.605 11.605 0 0 0-11.18-1.934 7.272 7.272 0 0 0-3.656 2.979 4.158 4.158 0 0 0-.348 3.868 4.816 4.816 0 0 0 4.352 3.017 3.482 3.482 0 0 0 1.741-.557z" class="cls-10" transform="translate(931.977 210.958)"/>
        <g id="Group_13501" class="cls-11" transform="translate(1251.243 726.402)">
            <path id="Path_43221" d="M312.369 352.883c9.4-2.65 19.149 5.8 28.684 3.617 5.8-1.354 10.174-6.538 12.8-11.973s4.043-11.431 6.828-16.808 7.427-10.309 13.423-11.141c5.493-.735 12.011 1.838 16.093-1.934 3.153-2.9 2.727-8.278.213-11.741s-6.5-5.493-10.348-7.389a58.88 58.88 0 0 0-13.365-5.3 19.73 19.73 0 0 0-13.984 1.625c-8.046 4.681-9.671 15.3-12.011 24.313a48.7 48.7 0 0 1-7.891 17.62 26.17 26.17 0 0 1-15.938 10.29 17.216 17.216 0 0 0-7.1 1.818c-2.031 1.393-2.824 4.874-.716 6.17" transform="translate(-307.816 -289.605)"/>
        </g>
        <path id="Path_43222" d="M284.84 343.8l35.241-12.282 31.586-49.38a21.024 21.024 0 0 1 13.772-9.323l56.653-10.7a9.3 9.3 0 0 1-4.855 11.354c-7.563 4.313-41.585 12.243-41.585 12.243l52.4-.89s1.605 7.563-4.333 10.271-43.268 4.062-43.268 4.062l47.833 6.808s.271 7.6-10.657 7.737a317.084 317.084 0 0 1-32.2-1.934 1.7 1.7 0 0 0-1.934 1.412 1.7 1.7 0 0 0 1.3 1.934l31.779 7.5a4.255 4.255 0 0 1 .329 8.22 4.894 4.894 0 0 1-1.78.116c-5.4-.542-37.756-4.642-37.756-4.642s-11.412 40-18.8 43.23-22.881 4.12-22.881 4.12l-32.882 13.017z" class="cls-14" transform="translate(921.962 411.121)"/>
        <path id="Path_43223" d="M388.936 273.825a12.607 12.607 0 0 1-2.747.271l-7.5.368c-6.325.271-15.087.58-24.738.832l-13.636.348a29.865 29.865 0 0 0-10.815 1.546 11.606 11.606 0 0 0-5.551 4.584 19.852 19.852 0 0 0-1.1 2.476 2.218 2.218 0 0 1 0-.716 8.043 8.043 0 0 1 .7-1.934 11.606 11.606 0 0 1 5.629-5.048 29.343 29.343 0 0 1 11.064-1.818l13.539-.425c9.671-.252 18.433-.445 24.758-.542h7.5a17.39 17.39 0 0 1 2.897.058z" class="cls-15" transform="translate(957.438 421.969)"/>
        <path id="Path_43224" d="M386.576 288.252a11.816 11.816 0 0 1-2.534-.174l-6.847-.87c-5.8-.754-13.772-1.934-22.572-3.211-4.391-.619-8.588-1.412-12.379-1.741a16.731 16.731 0 0 0-9.671 1.744 15.184 15.184 0 0 0-5.01 4.487c-.928 1.315-1.3 2.147-1.373 2.108a2.126 2.126 0 0 1 .193-.638 11.377 11.377 0 0 1 .851-1.7 14.584 14.584 0 0 1 4.99-4.874 16.965 16.965 0 0 1 10.1-2.05c3.868.29 8.066 1.064 12.476 1.663 8.8 1.315 16.77 2.573 22.514 3.52l6.808 1.18a12.967 12.967 0 0 1 2.454.556z" class="cls-15" transform="translate(960.591 428.972)"/>
        <path id="Path_43225" d="M359.039 293.99a38.83 38.83 0 0 1-5.532-1.2c-3.4-.832-8.085-2.07-13.269-3.133a23.208 23.208 0 0 0-3.752-.561 6.828 6.828 0 0 0-3.211.948 11.606 11.606 0 0 0-4.236 4.023 15.765 15.765 0 0 0-1.683 5.261 3.288 3.288 0 0 1-.116-1.547 10.27 10.27 0 0 1 1.161-4.062 11.855 11.855 0 0 1 4.41-4.487 8.044 8.044 0 0 1 3.656-1.122 24.463 24.463 0 0 1 3.965.542c5.261 1.1 9.9 2.437 13.249 3.443a28.6 28.6 0 0 1 5.358 1.895z" class="cls-15" transform="translate(961.532 435.401)"/>
        <path id="Path_43226" d="M149.59 338.913l105.7-13 185.398-30.133 23.926 60.134c-69.631 24.139-141.081 45.918-211.176 65.067a77.7 77.7 0 0 1-17.408 1.47c-23.404.097-81.121-9.303-86.44-83.538z" class="cls-9" transform="translate(795.611 442.566)"/>
        <path id="Path_43227" d="M434.533 356.111a10.689 10.689 0 0 1-.484-1.064c-.329-.754-.754-1.8-1.335-3.153-1.141-2.824-2.8-6.886-4.913-12.069l-17.581-43.713.445.251-90.076 15.048c-21.276 3.656-41.682 6.035-60.173 8.491-9.265 1.219-18.046 2.437-26.228 3.868q-6.151.986-11.837 1.934a97.393 97.393 0 0 0-10.773 2.36 44 44 0 0 0-25.145 20.425 45.817 45.817 0 0 0-3.694 8.259c-.329.987-.542 1.76-.677 2.263a4.536 4.536 0 0 1-.271.774 23.213 23.213 0 0 1 .754-3.095 43.25 43.25 0 0 1 3.54-8.395 45.107 45.107 0 0 1 8.859-11.354 44.6 44.6 0 0 1 16.479-9.555 101.616 101.616 0 0 1 10.851-2.456c3.868-.7 7.737-1.412 11.837-2.089 8.2-1.354 16.982-2.63 26.228-3.868 18.51-2.5 38.9-4.893 60.135-8.569l90.115-14.835h.329l.116.309c7.2 18.259 13.114 33.307 17.253 43.829L433 351.855c.522 1.373.909 2.437 1.218 3.191a3.334 3.334 0 0 1 .315 1.065z" class="cls-10" transform="translate(825.692 442.37)"/>
        <path id="Path_43228" d="M179 419.222a4.492 4.492 0 0 1 .851.174l2.456.6c2.166.464 5.358 1.2 9.536 1.7A104.254 104.254 0 0 0 227.22 420c3.675-.774 7.466-1.818 11.431-2.94l12.34-3.481 27.079-7.737c19.129-5.57 40.116-11.818 62.069-18.646 36.75-11.412 70.521-22.591 96.71-31.624l-.232.522c-7.234-18.375-13.172-33.4-17.292-43.906-2.031-5.2-3.6-9.284-4.7-12.108-.522-1.354-.909-2.4-1.2-3.172s-.367-1.083-.367-1.083.174.348.483 1.044.735 1.8 1.3 3.133l4.894 12.011 17.621 43.79.155.387-.387.135c-26.228 9.168-59.96 20.406-96.71 31.837-21.953 6.828-42.959 13.056-62.107 18.588l-27.234 7.737-12.36 3.4c-3.868 1.1-7.737 2.147-11.47 2.9a103.1 103.1 0 0 1-35.593 1.413 67.443 67.443 0 0 1-12.65-2.978z" class="cls-10" transform="translate(823.085 442.603)"/>
        <path id="Path_43229" d="M232.849 311.387a12.654 12.654 0 0 1-2.65.406l-7.253.716-23.907 2.34-23.907 2.551-7.253.754a12.055 12.055 0 0 1-2.669.155 16.032 16.032 0 0 1 2.631-.542c1.7-.271 4.159-.638 7.215-1.064 6.093-.851 14.526-1.934 23.868-2.843s17.833-1.644 23.965-2.05c3.075-.213 5.571-.348 7.292-.426a15.7 15.7 0 0 1 2.669 0z" class="cls-10" transform="translate(810.203 457.093)"/>
        <path id="Path_43230" d="M121.939 449.875c-5.338 7.64-15.744 5.106-20.561.445s-6.847-11.412-8.7-17.853c-4.236-14.719-8.51-30.154-5.358-45.144a25.145 25.145 0 0 1 5.8-12.282 13.075 13.075 0 0 1 12.418-4.12c5.242 1.373 8.491 6.5 10.851 11.393a107.58 107.58 0 0 1 10.637 46.186c0 7.427-.851 15.241-5.048 21.373" class="cls-12" transform="translate(736.416 512.51)"/>
        <g id="Group_13502" class="cls-11" transform="translate(822.643 883.16)">
            <path id="Path_43231" d="M121.939 449.875c-5.338 7.64-15.744 5.106-20.561.445s-6.847-11.412-8.7-17.853c-4.236-14.719-8.51-30.154-5.358-45.144a25.145 25.145 0 0 1 5.8-12.282 13.075 13.075 0 0 1 12.418-4.12c5.242 1.373 8.491 6.5 10.851 11.393a107.58 107.58 0 0 1 10.637 46.186c0 7.427-.851 15.241-5.048 21.373" transform="translate(-86.227 -370.65)"/>
        </g>
        <path id="Path_43232" d="M116.488 433.674c-8.743-4.507-19.033-5.087-28.742-3.482-5.2.851-10.657 2.418-14.2 6.344s-4.217 10.812-.155 14.178a13.7 13.7 0 0 0 8.955 2.263c7.6-.1 16.035-1.431 22.108 3.153 3.462 2.592 5.8 6.944 9.9 8.22a9.787 9.787 0 0 0 10.773-4.758 16.692 16.692 0 0 0 1.219-12.34 18.84 18.84 0 0 0-9.858-13.578z" class="cls-12" transform="translate(721.829 567.375)"/>
        <path id="Path_43233" d="M115 448.986c-5.8-6.905-6.905-16.944-4.313-25.57s8.414-15.977 15.125-21.973a81.562 81.562 0 0 1 27.079-16 28.433 28.433 0 0 1 12.185-2.07 12.747 12.747 0 0 1 10.232 6.19c2.863 5.435.116 12.05-2.843 17.408a204.719 204.719 0 0 1-17.814 27.079c-5.338 6.886-11.451 13.675-19.574 16.789s-16.6 2.747-20.909-2.9" class="cls-12" transform="translate(758.033 524.366)"/>
        <path id="Path_43234" d="M124.181 505.07a15.8 15.8 0 0 1-.484-3.462c-.251-2.515-.561-5.687-.928-9.458a139.257 139.257 0 0 0-2.128-13.907 106.709 106.709 0 0 0-5.048-16.383 60.559 60.559 0 0 0-8.375-14.835 31.373 31.373 0 0 0-10.58-8.8 29.535 29.535 0 0 0-8.975-2.766 16.985 16.985 0 0 1-3.443-.5 16.355 16.355 0 0 1 3.5 0 27.081 27.081 0 0 1 9.3 2.418 31.255 31.255 0 0 1 11.16 8.878 58.991 58.991 0 0 1 8.685 15.125 102.515 102.515 0 0 1 5.01 16.673 116.953 116.953 0 0 1 1.934 14.062c.309 4.023.426 7.273.464 9.516a16.35 16.35 0 0 1-.092 3.439z" class="cls-10" transform="translate(734.542 572.497)"/>
        <path id="Path_43235" d="M113.041 543.005a6.538 6.538 0 0 1-.1-1.605v-4.623c0-3.985 0-9.768-.213-16.9-.348-14.274-1.586-34-3.868-55.666s-5.629-41.16-8.472-55.144c-.7-3.52-1.373-6.673-1.934-9.439s-1.141-5.145-1.644-7.079-.793-3.307-1.083-4.487a7.739 7.739 0 0 1-.29-1.586 6.247 6.247 0 0 1 .563 1.503c.368 1.161.793 2.63 1.354 4.41s1.2 4.294 1.934 7.06 1.489 5.9 2.244 9.4a522.235 522.235 0 0 1 8.878 55.2c2.379 21.721 3.462 41.489 3.559 55.8 0 7.157 0 12.959-.251 16.944-.116 1.934-.213 3.4-.29 4.6a6.362 6.362 0 0 1-.387 1.605z" class="cls-10" transform="translate(745.024 527.289)"/>
        <path id="Path_43236" d="M104.534 499.2a31.332 31.332 0 0 1 0-4.8c.174-3.095.6-7.563 1.47-13.037a171.8 171.8 0 0 1 4.236-18.975 169.324 169.324 0 0 1 7.93-22.475 119.92 119.92 0 0 1 23.33-36.3 57.731 57.731 0 0 1 5.474-5.087 30.008 30.008 0 0 1 2.34-1.934l2.128-1.47a33.014 33.014 0 0 1 4.062-2.592c.232.329-5.8 3.868-13.269 11.857a126.013 126.013 0 0 0-22.746 36.17 177.833 177.833 0 0 0-7.969 22.243 192.646 192.646 0 0 0-4.526 18.8c-.986 5.416-1.567 9.845-1.934 12.9a29.129 29.129 0 0 1-.522 4.7z" class="cls-10" transform="translate(753.434 532.95)"/>
        <path id="Path_43237" fill="#fcac17" d="M455.457 147.837c-1.934-15.338-14.874-29.632-30.328-29.632-9.11 0-17.795 4.758-24.023 11.431a60.807 60.807 0 0 0-6.093 7.215 62.224 62.224 0 0 0-4.565-8.278c-4.8-7.737-12.36-14.139-21.276-15.938-15.164-3.017-30.677 8.433-35.57 23.094s-.812 31.1 7.215 44.293 21.856 30.464 47.33 39.013c17.543-2.244 41.063-17.814 51.527-29.187s17.679-26.673 15.783-42.011z" transform="translate(965.538 271.017)"/>
        <path id="Path_43238" d="M448.855 159.189h-.5l-1.489-.1-5.8-.484-21.005-1.934.368-.232-8.743 22.824-.542 1.373-.348-1.431c-2.65-11.083-5.648-23.481-8.8-36.556l-2.844-11.9.89.193L384 153l-.155.193h-.174l-36.924-3.868-10.445-1.16-2.766-.348-.948-.174a5.221 5.221 0 0 1 .967 0l2.766.213 10.483.909 36.943 3.482-.406.193 15.959-22.11.638-.87.251 1.044c.928 3.868 1.934 7.872 2.863 11.934 3.114 13.075 6.073 25.493 8.723 36.576h-.89l8.936-22.766.1-.251h.271l20.986 2.244 5.706.677 1.47.193z" class="cls-3" transform="translate(966.57 287.189)"/>
        <path id="Path_43239" d="M.058 0h32.63v18.762a8.607 8.607 0 0 1-8.607 8.607H8.607A8.607 8.607 0 0 1 0 18.762V0z" class="cls-12" transform="rotate(16.5 -2063.585 3251.634)"/>
        <path id="Path_43240" d="M0 0h32.63v18.781a8.568 8.568 0 0 1-8.569 8.568H8.588a8.569 8.569 0 0 1-8.569-8.568V0z" opacity="0.3" transform="rotate(16.5 -2063.616 3251.836)"/>
        <path id="Path_43241" d="M123.254 304.884a130.055 130.055 0 0 1-15.86-4.159 133.481 133.481 0 0 1-15.474-5.145 133.554 133.554 0 0 1 15.86 4.178 135.865 135.865 0 0 1 15.474 5.126z" class="cls-10" transform="translate(741.735 442.379)"/>
        <path id="Path_43242" d="M97 298.386a3.869 3.869 0 0 1 4.777-2.727l6.267 1.934a3.868 3.868 0 0 1 2.514 4.874z" class="cls-10" transform="translate(746.481 442.32)"/>
        <path id="Path_43243" fill="#ffa81c" d="M126.94 207.73L92.125 351.654a12.243 12.243 0 0 0 8.143 14.777l22.8 6.77a12.224 12.224 0 0 0 14.7-7.5l54.68-138.586z" transform="translate(741.55 360.31)"/>
        <path id="Path_43244" d="M172.3 232.793c0 .271-14.429-3.752-32.05-8.975s-31.856-9.671-31.779-9.942 14.429 3.752 32.069 8.975 31.836 9.671 31.76 9.942z" class="cls-10" transform="translate(757.196 366.039)"/>
        <path id="Path_43245" d="M111.07 220.447a19.342 19.342 0 0 1 1.277-6.054 20.116 20.116 0 0 1 2.224-5.8 18.974 18.974 0 0 1-1.257 6.054 19.206 19.206 0 0 1-2.244 5.8z" class="cls-10" transform="translate(759.625 361.113)"/>
        <path id="Path_43246" d="M113.76 221.218a37.193 37.193 0 0 1 3.5-11.818 19.342 19.342 0 0 1-1.277 6.054 19.845 19.845 0 0 1-2.224 5.764z" class="cls-10" transform="translate(762.138 361.87)"/>
        <path id="Path_43247" d="M116.44 222.037a19.342 19.342 0 0 1 1.277-6.054 19.5 19.5 0 0 1 2.224-5.8 18.974 18.974 0 0 1-1.257 6.054 19.208 19.208 0 0 1-2.244 5.8z" class="cls-10" transform="translate(764.642 362.599)"/>
        <path id="Path_43248" d="M119.13 222.808a37.2 37.2 0 0 1 3.5-11.818 38.568 38.568 0 0 1-3.5 11.818z" class="cls-10" transform="translate(767.155 363.355)"/>
        <path id="Path_43249" d="M121.81 223.627a19.341 19.341 0 0 1 1.277-6.054 19.5 19.5 0 0 1 2.224-5.8 18.974 18.974 0 0 1-1.257 6.054 19.207 19.207 0 0 1-2.244 5.8z" class="cls-10" transform="translate(769.659 364.084)"/>
        <path id="Path_43250" d="M124.5 224.4a37.2 37.2 0 0 1 3.5-11.82 38.567 38.567 0 0 1-3.5 11.818z" class="cls-10" transform="translate(772.172 364.84)"/>
        <path id="Path_43251" d="M127.18 225.217a19.343 19.343 0 0 1 1.277-6.054 19.5 19.5 0 0 1 2.224-5.8 18.975 18.975 0 0 1-1.257 6.054 19.211 19.211 0 0 1-2.244 5.8z" class="cls-10" transform="translate(774.675 365.569)"/>
        <path id="Path_43252" d="M129.86 226.007a20.039 20.039 0 0 1 1.277-6.054 18.956 18.956 0 0 1 2.244-5.8 20.037 20.037 0 0 1-1.281 6.047 18.957 18.957 0 0 1-2.24 5.807z" class="cls-10" transform="translate(777.179 366.307)"/>
        <path id="Path_43253" d="M132.55 226.807a18.894 18.894 0 0 1 1.257-6.054 19.826 19.826 0 0 1 2.244-5.8 19.341 19.341 0 0 1-1.277 6.047 19.5 19.5 0 0 1-2.224 5.8z" class="cls-10" transform="translate(779.692 367.055)"/>
        <path id="Path_43254" d="M135.23 227.578a38.567 38.567 0 0 1 3.5-11.818 37.2 37.2 0 0 1-3.5 11.818z" class="cls-10" transform="translate(782.196 367.811)"/>
        <path id="Path_43255" d="M137.92 228.4a18.9 18.9 0 0 1 1.257-6.054 19.2 19.2 0 0 1 2.244-5.8 19.342 19.342 0 0 1-1.277 6.054 19.5 19.5 0 0 1-2.224 5.8z" class="cls-10" transform="translate(784.708 368.54)"/>
        <path id="Path_43256" d="M140.6 229.168a38.569 38.569 0 0 1 3.5-11.818 37.2 37.2 0 0 1-3.5 11.818z" class="cls-10" transform="translate(787.212 369.297)"/>
        <path id="Path_43257" d="M118.858 250.61l2.456-8.24 8.143 2.418-2.282 7.718 6.654 1.953-2.4 8.1-7.369-2.166-2.089 7.06-6.808-2.031 2.244-7.582-8.027-2.379 2.128-7.176z" class="cls-6" transform="translate(758.046 392.67)"/>
        <path id="Path_43258" d="M141.428 262.94c-.116 0 .426-1.547.561-4.391a18.394 18.394 0 0 0-3.288-11.257 17.04 17.04 0 0 0-6.073-5.377 16.827 16.827 0 0 0-9.071-1.8 17.408 17.408 0 0 0-9.439 3.868 18.51 18.51 0 0 0-5.938 20.038 17.272 17.272 0 0 0 5.8 8.356 16.943 16.943 0 0 0 8.588 3.423 17.156 17.156 0 0 0 8.027-1.18 18.3 18.3 0 0 0 8.878-7.737c1.451-2.456 1.818-4.023 1.934-3.984a4.257 4.257 0 0 1-.271 1.122 15.705 15.705 0 0 1-1.315 3.056 18.433 18.433 0 0 1-8.955 8.143 17.408 17.408 0 0 1-17.408-2.166 18.123 18.123 0 0 1-6.189-8.781 19.342 19.342 0 0 1 6.189-21.083 18.027 18.027 0 0 1 9.98-4 17.524 17.524 0 0 1 9.536 1.934 17.891 17.891 0 0 1 6.286 5.706 18.375 18.375 0 0 1 3.075 11.605 16.829 16.829 0 0 1-.561 3.288 4.043 4.043 0 0 1-.346 1.217z" class="cls-6" transform="translate(755.166 389.644)"/>
    </g>
</svg>
