<svg xmlns="http://www.w3.org/2000/svg" width="30" height="30" viewBox="0 0 30 30">
  <g id="Group_14557" data-name="Group 14557" transform="translate(3898 -1515)">
    <rect id="Rectangle_2613" data-name="Rectangle 2613" width="30" height="30" transform="translate(-3898 1515)" fill="none"/>
    <g id="noun_Mobile_1923217" transform="translate(-4125.882 1474.1)">
      <g id="Group_14321" data-name="Group 14321" transform="translate(235.882 43.9)">
        <g id="Group_14320" data-name="Group 14320" transform="translate(0 0)">
          <path id="Path_43567" data-name="Path 43567" d="M249.156,65.677c0,.036,0,.072,0,.108,0,.013,0,.023,0,.036-.005.056-.005.046.005-.031.015.031-.026.133-.033.172s-.038.192-.062.2c.018,0,.051-.1.005-.013-.018.036-.036.072-.054.105-.031.054-.072.1-.1.156s.082-.095.008-.01l-.067.077c-.038.041-.077.079-.12.118-.015.015-.056.062-.077.064.059-.046.067-.051.023-.021-.018.013-.036.026-.056.038a1.663,1.663,0,0,1-.146.085c-.018.01-.072.046-.092.044.02-.008.038-.018.059-.026l-.064.023c-.054.018-.11.033-.167.046-.033.008-.069.013-.1.021-.105.02.115-.01-.021,0-.051,0-.105.005-.156.005h-8.946c-.243,0-.489,0-.733,0h0c-.036,0-.072,0-.108,0s-.11.015-.038,0l.033.005a.657.657,0,0,1-.069-.013c-.033-.008-.069-.013-.1-.023a1.353,1.353,0,0,0-.2-.062c.021.008.038.018.059.026l-.061-.028-.09-.046c-.049-.028-.095-.059-.144-.09-.1-.062.085.074,0,0l-.077-.067a1.863,1.863,0,0,1-.138-.146.181.181,0,0,1-.021-.026l.018.023c-.008,0-.041-.059-.049-.069a1.65,1.65,0,0,1-.092-.161c-.01-.018-.046-.072-.044-.092,0,.033.033.092.013.028s-.049-.154-.067-.231c-.005-.023-.008-.046-.013-.069-.023-.118.005.118,0,0,0-.049-.005-.095-.005-.144v-.008c0-.5,0-1,0-1.5V46.206c0-.051,0-.105,0-.156,0-.031.005-.059.005-.09,0-.077-.026.128,0,.013.013-.069.028-.136.046-.2.008-.023.013-.044.021-.067s.008-.021.01-.033c.02-.051.015-.044-.013.028-.005-.049.077-.154.1-.195.015-.023.028-.049.046-.072s.013-.018.018-.028c.033-.044.026-.036-.021.023.008-.038.082-.1.11-.126a1.864,1.864,0,0,1,.149-.136c.082-.072-.074.041-.01.008.033-.018.067-.046.1-.064a1.717,1.717,0,0,1,.179-.095c.069-.033-.028.005-.028.013,0-.01.087-.031.1-.033a1.633,1.633,0,0,1,.185-.049c.018,0,.069-.023.087-.015-.077.01-.09.013-.031.005l.072-.005c.036,0,.072,0,.11,0h9.73c.031,0,.059.005.09.005.123.005-.115-.026,0,0q.085.015.169.038l.1.031.064.023c-.069-.031-.079-.033-.028-.013s.1.049.151.077l.085.054c.01.005.018.013.028.018.044.033.036.026-.023-.021.038.005.1.085.126.11a1.862,1.862,0,0,1,.136.149c.077.087-.061-.095,0,0,.018.028.038.056.056.085.028.049.056.1.082.149l.015.031c.023.051.018.041-.013-.028.01,0,.031.087.033.1a1.8,1.8,0,0,1,.051.2.15.15,0,0,1,.005.033c.008.056.008.046-.005-.031a.47.47,0,0,1,.008.09c0,.031,0,.059,0,.09V65.354c.005.1.005.213.005.323a.513.513,0,1,0,1.025,0V46.194a2.225,2.225,0,0,0-2.227-2.294h-9.7a2.264,2.264,0,0,0-1.522.6,2.29,2.29,0,0,0-.7,1.714V65.36a4.635,4.635,0,0,0,.01.5A2.262,2.262,0,0,0,237,67.5a2.215,2.215,0,0,0,1.274.395c.889.005,1.781,0,2.673,0h4.523c.833,0,1.668.008,2.5,0a2.246,2.246,0,0,0,2.219-2.217.515.515,0,0,0-1.03,0Z" transform="translate(-236.032 -43.9)" fill="#0cc"/>
          <path id="Path_43568" data-name="Path 43568" d="M249.518,183.483H238c-.528,0-1.058-.013-1.586,0h-.023a.512.512,0,1,0,0,1.024h11.514c.528,0,1.058.013,1.586,0h.023a.512.512,0,1,0,0-1.024Z" transform="translate(-235.882 -179.905)" fill="#0cc"/>
          <path id="Path_43569" data-name="Path 43569" d="M236.5,779.207h11.514c.528,0,1.058.013,1.586,0h.023a.512.512,0,1,0,0-1.024H238.1c-.528,0-1.058-.013-1.586,0H236.5a.512.512,0,1,0,0,1.024Z" transform="translate(-235.98 -759.36)" fill="#0cc"/>
          <path id="Path_43570" data-name="Path 43570" d="M460.535,825.9a1.38,1.38,0,0,0-1.277.911,1.354,1.354,0,0,0,.381,1.454,1.351,1.351,0,1,0,.9-2.365.512.512,0,0,0,0,1.024l.054,0c.054,0-.044-.005-.049-.008a.442.442,0,0,0,.1.023.362.362,0,0,0,.049.015c.064.013-.082-.051-.031-.01a.867.867,0,0,1,.1.059c0,.005-.077-.072-.038-.028a.424.424,0,0,0,.036.033.551.551,0,0,1,.067.072c-.005.008-.054-.09-.031-.036a.222.222,0,0,0,.026.041c.008.013.015.031.023.044.033.041-.02-.082-.01-.031a.974.974,0,0,0,.033.115c.026.09,0-.092,0,0,0,.023-.013.087,0,.1,0,0,.02-.1.008-.051l-.015.067-.015.049c-.013.051-.02.01,0,0s.026-.046,0,0c-.008.013-.018.028-.026.044s-.026.043-.028.041.077-.082.018-.026c-.028.026-.056.054-.082.082s.036-.036.038-.028l-.041.028a.243.243,0,0,0-.044.026c-.046.031,0,.013,0,0s.049-.015,0,0l-.049.015c-.015.005-.033.008-.049.013-.084.02.033-.005.033,0s-.108,0-.123,0c-.054,0,.044.005.049.008a.162.162,0,0,0-.051-.01c-.033-.008-.064-.021-.1-.028-.056-.013.049.013.046.018s-.054-.028-.059-.031a.342.342,0,0,0-.041-.026c-.054-.023.046.026.036.031a.566.566,0,0,1-.072-.067.591.591,0,0,1-.043-.049c.005-.008.054.09.031.036a1.111,1.111,0,0,1-.059-.1c.005,0,.031.1.018.046a.369.369,0,0,0-.015-.049.438.438,0,0,0-.023-.1c0,.005.005.1.008.049,0-.018,0-.036,0-.054s0-.036,0-.054c-.005-.064-.021.095-.005.033.01-.043.026-.087.036-.13s-.013.049-.018.046.028-.054.031-.059a.345.345,0,0,0,.026-.041c.023-.051-.061.061-.02.026s.054-.056.082-.082.026,0,0,0c-.031.023-.033.026-.013.01s.018-.013.028-.018a.235.235,0,0,0,.044-.026c.084-.054-.069.015-.015.005.038-.008.077-.023.115-.033.013,0,.074-.015,0,0s.026,0,.038,0a.517.517,0,0,0,.512-.512A.524.524,0,0,0,460.535,825.9Z" transform="translate(-453.459 -805.853)" fill="#0cc"/>
          <path id="Path_43571" data-name="Path 43571" d="M427.6,111.3h-3.5a.512.512,0,0,0,0,1.024h3.5a.512.512,0,1,0,0-1.024Z" transform="translate(-418.769 -109.575)" fill="#0cc"/>
        </g>
      </g>
    </g>
  </g>
</svg>
