<svg xmlns="http://www.w3.org/2000/svg" width="20.275" height="20.636" viewBox="0 0 20.275 20.636">
    <defs>
        <style>
            .cls-1{fill:#00c2cb}
        </style>
    </defs>
    <g id="noun_profile_2226806" transform="translate(-10.998 -188.974)">
        <g id="Group_13950" transform="translate(10.998 188.974)">
            <path id="Path_43393" d="M22.273 12.317a10.277 10.277 0 0 0-8.232-10.158A10.105 10.105 0 0 0 2.709 8.5 10.424 10.424 0 0 0 6.72 21.025l.2.118a8.553 8.553 0 0 0 .8.442l.29.14.5.177.377.14.413.14c.253.074.507.147.76.2l.275.052c.21 0 .427.074.644.1l.282.037c.3 0 .6.044.905.044a6.153 6.153 0 0 0 .905-.044l.282-.037a3.777 3.777 0 0 0 .644-.1l.275-.052c.253-.052.507-.125.76-.2l.413-.14.377-.14.442-.184.29-.14a8.553 8.553 0 0 0 .8-.442l.2-.118a10.37 10.37 0 0 0 4.706-8.7zM7.937 20.052a4.325 4.325 0 0 1 8.4 0 8.6 8.6 0 0 1-8.4 0zm9.652-.855a5.758 5.758 0 0 0-10.9 0 8.95 8.95 0 0 1-2.746-9.834 8.638 8.638 0 0 1 16.388 0 8.95 8.95 0 0 1-2.742 9.837z" class="cls-1" transform="translate(-1.998 -1.974)"/>
            <path id="Path_43394" d="M14.344 7a4.344 4.344 0 1 0 4.344 4.344A4.344 4.344 0 0 0 14.344 7zm0 7.241a2.9 2.9 0 1 1 2.9-2.9 2.9 2.9 0 0 1-2.9 2.9z" class="cls-1" transform="translate(-4.206 -3.244)"/>
        </g>
    </g>
</svg>
