<svg xmlns="http://www.w3.org/2000/svg" id="Group_14644" width="507.615" height="447.043" viewBox="0 0 507.615 447.043">
    <defs>
        <style>
            .cls-2{fill:#9ed0ce}.cls-3{fill:#00c2cb}.cls-4{fill:#fff}
        </style>
    </defs>
    <path id="Path_43724" fill="#f2f2f2" d="M606.9 242.711H470.12c-6.49.007-11.749 4.752-11.757 10.607v274.27l-1.568.431-33.554 9.271a6.418 6.418 0 0 1-7.83-3.755L315.6 239.394c-1.011-2.988.851-6.15 4.162-7.065l51.707-14.285 149.9-41.4 51.707-14.285a6.875 6.875 0 0 1 4.777.409 5.825 5.825 0 0 1 3.054 3.339l25.516 75.193z" transform="translate(-284.646 -142.174)"/>
    <path id="Path_43725" d="M628.285 233.039l-30.748-90.615c-2.152-6.35-9.6-9.922-16.64-7.977l-72.7 20.076-149.894 41.4-72.7 20.083c-7.032 1.948-10.988 8.665-8.842 15.013l105.097 309.689c1.719 5.052 6.888 8.5 12.745 8.507a14.483 14.483 0 0 0 3.9-.53l49.834-13.761 1.568-.438v-1.478l-1.568.431-50.3 13.9c-6.207 1.707-12.774-1.441-14.681-7.036L278.272 230.606a9.668 9.668 0 0 1 .854-8.082 11.548 11.548 0 0 1 6.945-5.163l72.7-20.083 149.894-41.4 72.7-20.083a13.072 13.072 0 0 1 3.456-.467c5.16.01 9.711 3.052 11.224 7.5l30.607 90.2.486 1.414h1.63z" class="cls-2" transform="translate(-276.183 -133.917)"/>
    <path id="Path_43726" d="M394.131 228.368a7.021 7.021 0 0 1-6.75-4.5l-10.1-29.751c-1.141-3.361.955-6.92 4.68-7.949l137.9-38.09c3.725-1.025 7.667.864 8.81 4.222l10.1 29.752c1.136 3.361-.958 6.916-4.68 7.949l-137.9 38.09a7.74 7.74 0 0 1-2.06.277z" class="cls-3" transform="translate(-297.974 -137.981)"/>
    <ellipse id="Ellipse_587" cx="15.676" cy="14.143" class="cls-3" rx="15.676" ry="14.143" transform="translate(133.366 3.501)"/>
    <ellipse id="Ellipse_588" cx="9.926" cy="8.956" class="cls-4" rx="9.926" ry="8.956" transform="translate(139.115 8.688)"/>
    <path id="Path_43727" fill="#e6e6e6" d="M803.9 592.507H538.98c-3.678 0-6.658-2.693-6.662-6.011V300.1c0-3.318 2.984-6.007 6.662-6.011H803.9c3.678 0 6.658 2.693 6.662 6.011v286.4c0 3.314-2.98 6-6.662 6.007z" opacity="0.528" transform="translate(-331.56 -180.822)"/>
    <path id="Path_43728" d="M674.132 274.087H509.143c-7.355.009-13.314 5.386-13.325 12.022v288.378l1.568-.431V286.109c.008-5.855 5.267-10.6 11.757-10.607h165.475zm143.827 0H509.143c-7.355.009-13.314 5.386-13.325 12.022v323.877c.01 6.635 5.97 12.012 13.325 12.022h308.816c7.355-.009 13.314-5.386 13.325-12.022V286.109c-.011-6.636-5.971-12.009-13.325-12.022zm11.757 335.9c-.008 5.855-5.267 10.6-11.757 10.607H509.143c-6.49-.007-11.749-4.752-11.757-10.607V286.109c.008-5.855 5.267-10.6 11.757-10.607h308.816c6.49.007 11.749 4.752 11.757 10.607z" class="cls-2" transform="translate(-323.668 -174.965)"/>
    <path id="Path_43729" d="M760.091 299.931H615.872c-3.894 0-7.05-2.851-7.054-6.364v-31.116c0-3.513 3.16-6.36 7.054-6.364h144.219c3.894 0 7.05 2.851 7.054 6.364v31.115c-.004 3.514-3.16 6.361-7.054 6.365z" class="cls-3" transform="translate(-348.099 -169.694)"/>
    <ellipse id="Ellipse_589" cx="15.676" cy="14.143" class="cls-3" rx="15.676" ry="14.143" transform="translate(324.206 60.229)"/>
    <ellipse id="Ellipse_590" cx="9.548" cy="8.615" class="cls-4" rx="9.548" ry="8.615" transform="translate(330.334 65.757)"/>
</svg>
