<svg xmlns="http://www.w3.org/2000/svg" width="30" height="30" viewBox="0 0 30 30">
  <g id="Group_14576" data-name="Group 14576" transform="translate(713 -2403)">
    <g id="Group_14575" data-name="Group 14575">
      <g id="Group_14558" data-name="Group 14558" transform="translate(3185 888)">
        <g id="Group_14557" data-name="Group 14557">
          <rect id="Rectangle_2613" data-name="Rectangle 2613" width="30" height="30" transform="translate(-3898 1515)" fill="none"/>
        </g>
        <g id="Icon_feather-eye-off" data-name="Icon feather-eye-off" transform="translate(-3896.5 1516.5)">
          <path id="Path_43732" data-name="Path 43732" d="M19.98,20.588A11.288,11.288,0,0,1,13.5,22.74c-7.636,0-12-8.37-12-8.37A19.543,19.543,0,0,1,7.02,8.152m4.189-1.9A10.355,10.355,0,0,1,13.5,6c7.636,0,12,8.37,12,8.37a19.333,19.333,0,0,1-2.356,3.338m-7.331-1.116a3.368,3.368,0,0,1-3.2.9,3.209,3.209,0,0,1-2.361-2.265,3.057,3.057,0,0,1,.94-3.073" transform="translate(0 -0.87)" fill="none" stroke="#00c2cb" stroke-linecap="round" stroke-linejoin="round" stroke-width="2.5"/>
          <path id="Path_43733" data-name="Path 43733" d="M1.5,1.5l24,24" fill="none" stroke="#00c2cb" stroke-linecap="round" stroke-linejoin="round" stroke-width="2.5"/>
        </g>
      </g>
    </g>
  </g>
</svg>
