<svg xmlns="http://www.w3.org/2000/svg" width="35" height="35" viewBox="0 0 35 35">
  <g id="Group_14557" data-name="Group 14557" transform="translate(3457 -128)">
    <rect id="Rectangle_2613" data-name="Rectangle 2613" width="35" height="35" transform="translate(-3457 128)" fill="none"/>
    <path id="Icon_awesome-bell" data-name="Icon awesome-bell" d="M13.125,30a3.749,3.749,0,0,0,3.748-3.75h-7.5A3.749,3.749,0,0,0,13.125,30Zm12.62-8.772c-1.132-1.216-3.25-3.046-3.25-9.04A9.253,9.253,0,0,0,15,3.1V1.875a1.874,1.874,0,1,0-3.748,0V3.1a9.253,9.253,0,0,0-7.5,9.091c0,5.994-2.118,7.824-3.25,9.04A1.831,1.831,0,0,0,0,22.5a1.877,1.877,0,0,0,1.881,1.875H24.369A1.876,1.876,0,0,0,26.25,22.5a1.83,1.83,0,0,0-.5-1.272Z" transform="translate(-3453 131)" fill="#00c2cb"/>
  </g>
</svg>
