<svg xmlns="http://www.w3.org/2000/svg" width="40" height="40" viewBox="0 0 40 40">
  <g id="Group_13779" data-name="Group 13779" transform="translate(-1557 -1823)">
    <rect id="Rectangle_2436" data-name="Rectangle 2436" width="40" height="40" transform="translate(1557 1823)" fill="none"/>
    <path id="Path_43335" data-name="Path 43335" d="M49.129,25.009A17.077,17.077,0,0,0,19.984,37.077a17.373,17.373,0,0,0,2.448,8.88L19.984,53.3a.748.748,0,0,0,.171.683.7.7,0,0,0,.455.228.342.342,0,0,0,.228-.057l7.343-2.448a17.373,17.373,0,0,0,8.88,2.448A17.066,17.066,0,0,0,49.129,25.009Zm-2.5,16.451a.626.626,0,0,1-.342.569.726.726,0,0,1-.683,0L41.216,39.3v2.562a.658.658,0,0,1-.683.683H28.181a.658.658,0,0,1-.683-.683V32.3a.658.658,0,0,1,.683-.683H40.533a.658.658,0,0,1,.683.683v2.562L45.6,32.125a.726.726,0,0,1,.683,0,.626.626,0,0,1,.342.569V41.46Z" transform="translate(1540.037 1806)" fill="#fff"/>
  </g>
</svg>
