<svg xmlns="http://www.w3.org/2000/svg" width="30" height="30" viewBox="0 0 30 30">
  <g id="Group_14557" data-name="Group 14557" transform="translate(3898 -1515)">
    <rect id="Rectangle_2613" data-name="Rectangle 2613" width="30" height="30" transform="translate(-3898 1515)" fill="none"/>
    <path id="Path_43704" data-name="Path 43704" d="M25.316,31.022a8.77,8.77,0,0,1-3-.6,20.322,20.322,0,0,1-5.107-2.554,28.091,28.091,0,0,1-3.605-3l-.451-.451H13a39.618,39.618,0,0,1-3-3.605,23.672,23.672,0,0,1-2.4-5.257,8.089,8.089,0,0,1-.451-4.356A3.889,3.889,0,0,1,8.192,9.542l1.8-1.8a2.45,2.45,0,0,1,3.605.15l3,3a2.5,2.5,0,0,1,0,3.455l-1.8,1.8a13.538,13.538,0,0,0,.751,1.352,19.62,19.62,0,0,0,1.8,2.253h0l.6.6.3.15a19.62,19.62,0,0,0,2.253,1.8,6.089,6.089,0,0,0,1.352.751l1.8-1.8a2.7,2.7,0,0,1,3.605,0l3,3a2.582,2.582,0,0,1,.15,3.605l-1.8,1.8a3.6,3.6,0,0,1-1.8,1.051A4.444,4.444,0,0,1,25.316,31.022Zm-10.665-7.21s1.8,1.652,3.455,2.854a20.559,20.559,0,0,0,4.807,2.4,5.9,5.9,0,0,0,3.455.3,1.916,1.916,0,0,0,1.051-.751l1.8-1.8a.993.993,0,0,0-.15-1.5l-3-3a1.076,1.076,0,0,0-1.5,0l-1.953,1.953a1.348,1.348,0,0,1-1.352.3,9.875,9.875,0,0,1-1.8-.9c-.6-.451-1.652-1.352-2.4-1.953l-.15-.15-.751-.751A27.425,27.425,0,0,1,14.2,18.4a9.876,9.876,0,0,1-.9-1.8c-.3-.451,0-1.051.15-1.352L15.4,13.3c.6-.751.15-1.2,0-1.352l-3-3a1.165,1.165,0,0,0-1.5-.15l-1.5,1.8a3.157,3.157,0,0,0-.751,1.051,5.885,5.885,0,0,0,.3,3.455,20.559,20.559,0,0,0,2.4,4.807A33.984,33.984,0,0,0,14.2,23.362l.451.451Z" transform="translate(-3902.018 1510.978)" fill="#00c2cb"/>
  </g>
</svg>
