<svg xmlns="http://www.w3.org/2000/svg" width="40" height="40" viewBox="0 0 40 40">
  <g id="Group_14574" data-name="Group 14574" transform="translate(6610 -1617)">
    <rect id="Rectangle_2615" data-name="Rectangle 2615" width="40" height="40" transform="translate(-6610 1617)" fill="none"/>
    <g id="medical-prescription" transform="translate(-6666 1617)">
      <path id="Path_43537" data-name="Path 43537" d="M152.172,307H151v2.344h1.172a1.172,1.172,0,1,0,0-2.344Z" transform="translate(-83.086 -283.016)" fill="#00c2cb"/>
      <path id="Path_43538" data-name="Path 43538" d="M361,8.787v6.345h6.345Z" transform="translate(-277.031 -8.101)" fill="#00c2cb"/>
      <path id="Path_43539" data-name="Path 43539" d="M82.923,9.375A1.163,1.163,0,0,1,81.769,8.2V0H62.154A1.163,1.163,0,0,0,61,1.172V38.828A1.163,1.163,0,0,0,62.154,40H89.846A1.163,1.163,0,0,0,91,38.828V9.375ZM66.769,7.031H78.308a1.172,1.172,0,0,1,0,2.344H66.769a1.172,1.172,0,0,1,0-2.344ZM75.657,33.15a1.185,1.185,0,0,1,0,1.657,1.141,1.141,0,0,1-1.632,0l-1.217-1.236-1.225,1.244a1.141,1.141,0,0,1-1.632,0,1.185,1.185,0,0,1,0-1.657l1.225-1.244-3.192-3.242h-.061V31.64a1.154,1.154,0,1,1-2.308,0V22.812a1.163,1.163,0,0,1,1.154-1.172h2.308a3.525,3.525,0,0,1,1.714,6.568l2.017,2.048,1.223-1.242a1.141,1.141,0,0,1,1.632,0,1.185,1.185,0,0,1,0,1.657l-1.223,1.242Zm9.574-5.025H78.308a1.172,1.172,0,0,1,0-2.344h6.923a1.172,1.172,0,0,1,0,2.344Zm0-4.687H78.308a1.172,1.172,0,0,1,0-2.344h6.923a1.172,1.172,0,0,1,0,2.344Zm0-4.687H66.769a1.172,1.172,0,0,1,0-2.344H85.231a1.172,1.172,0,0,1,0,2.344Zm0-4.687H66.769a1.172,1.172,0,0,1,0-2.344H85.231a1.172,1.172,0,0,1,0,2.344Z" transform="translate(0)" fill="#00c2cb"/>
    </g>
  </g>
</svg>
