<svg xmlns="http://www.w3.org/2000/svg" width="100" height="100" viewBox="0 0 100 100">
  <g id="Group_14566" data-name="Group 14566" transform="translate(3365 -1514)">
    <rect id="Rectangle_2614" data-name="Rectangle 2614" width="100" height="100" transform="translate(-3365 1514)" fill="none"/>
    <g id="Group_14567" data-name="Group 14567" transform="translate(-4086 837)">
      <path id="Path_43475" data-name="Path 43475" d="M15.053,23.588a3.523,3.523,0,0,0,1.174-6.83V11.414L20.338,13V24.157a2.349,2.349,0,0,0,1.174,2.02,14.094,14.094,0,0,0,28.187,0,2.349,2.349,0,0,0,1.174-2.02V13l5.579-2.161c2.408-.928,2.419-2.478,0-3.441L39.829.715A12.1,12.1,0,0,0,35.5,0a12.156,12.156,0,0,0-4.387.734L14.707,7.38c-2.061.834-2.349,2.108-.828,3.036v6.342a3.523,3.523,0,0,0,1.174,6.83ZM35.607,37.681A11.745,11.745,0,0,1,23.891,26.524H47.322A11.745,11.745,0,0,1,35.607,37.652ZM48.526,24.175H22.687V13.91L31.2,17.2a12.684,12.684,0,0,0,4.381.7,12.684,12.684,0,0,0,4.428-.7l8.515-3.294ZM32,2.905a9.854,9.854,0,0,1,3.523-.587,9.8,9.8,0,0,1,3.453.546l15.5,6.213L39.142,15.02a10.394,10.394,0,0,1-3.523.54,10.388,10.388,0,0,1-3.523-.54L16.727,9.095ZM15.053,18.9a1.174,1.174,0,1,1-1.174,1.174A1.174,1.174,0,0,1,15.053,18.9Z" transform="translate(731.406 689.003)" fill="#00cece"/>
      <path id="Path_43476" data-name="Path 43476" d="M62.87,68.455h5.273l1.762-2.2a16.153,16.153,0,0,0-2.243-.159h-.728a16.443,16.443,0,0,1-4.064,2.355Z" transform="translate(710.232 661.718)" fill="#00cece"/>
      <path id="Path_43477" data-name="Path 43477" d="M18.245,100.1V93.058a1.174,1.174,0,0,0-2.349,0V100.1H9.971a1.122,1.122,0,0,1-1.122-1.116V82.177A13.753,13.753,0,0,1,22.6,68.459h4.821a16.442,16.442,0,0,1-4.064-2.349H22.6A16.1,16.1,0,0,0,6.5,82.177V99a3.471,3.471,0,0,0,3.471,3.459H45.058l-3.03-2.349Z" transform="translate(733.5 661.714)" fill="#00cece"/>
      <path id="Path_43478" data-name="Path 43478" d="M91.781,80.736a1.174,1.174,0,0,0-.452-.793L74.945,67.358a1.174,1.174,0,0,0-1.627.188l-2.284,2.807L67.9,67.946a1.174,1.174,0,0,0-1.627.188L49.776,88.37a1.174,1.174,0,0,0,.194,1.668l16.384,12.584a1.174,1.174,0,0,0,1.627-.188l2.284-2.807,3.13,2.408a1.174,1.174,0,0,0,1.627-.188l16.5-20.236A1.174,1.174,0,0,0,91.781,80.736Zm-24.9,19.338L52.354,88.916,67.37,70.5,81.892,81.658Zm7.047-.587-2.179-1.674L84.476,82.2a1.174,1.174,0,0,0-.194-1.668L72.9,71.78l1.527-1.867L88.944,81.07Z" transform="translate(715.745 661.299)" fill="#00cece"/>
      <path id="Path_43479" data-name="Path 43479" d="M79.782,96.7,78.3,95l.587-2.349a1.174,1.174,0,0,0-1.656-1.339l-2.079,1.01-1.879-1.174a1.174,1.174,0,0,0-1.762,1.1l.194,2.349-1.815,1.685a1.174,1.174,0,0,0,.587,2.02l2.167.411.816,2.108a1.174,1.174,0,0,0,.987.746h.088a1.174,1.174,0,0,0,1.022-.587l1.174-2.1,2.278-.258a1.174,1.174,0,0,0,.752-1.938Zm-3.893-.07a1.175,1.175,0,0,0-.893.587l-.264.47-.159-.405a1.174,1.174,0,0,0-.875-.728l-.482-.094.47-.423a1.174,1.174,0,0,0,.388-.969l-.053-.652.452.276a1.174,1.174,0,0,0,1.127.053l.393-.194-.117.482a1.174,1.174,0,0,0,.253,1.051l.411.47Z" transform="translate(707.49 651.445)" fill="#00cece"/>
      <circle id="Ellipse_564" data-name="Ellipse 564" cx="1.174" cy="1.174" r="1.174" transform="translate(765.838 733.685)" fill="#00cece"/>
      <circle id="Ellipse_565" data-name="Ellipse 565" cx="1.174" cy="1.174" r="1.174" transform="translate(765.838 738.376)" fill="#00cece"/>
    </g>
  </g>
</svg>
