<svg xmlns="http://www.w3.org/2000/svg" width="40" height="40" viewBox="0 0 40 40">
  <g id="Group_14578" data-name="Group 14578" transform="translate(6666 -1717)">
    <g id="Group_14574" data-name="Group 14574" transform="translate(-56 100)">
      <rect id="Rectangle_2615" data-name="Rectangle 2615" width="40" height="40" transform="translate(-6610 1617)" fill="none"/>
      <g id="Group_13801" data-name="Group 13801" transform="translate(-6610 1618)">
        <path id="Path_43362" d="M71.226,43.874a6.9,6.9,0,0,0-6.86-6.074H59.558a6.889,6.889,0,0,0-6.816,6.074l-.655,5.6a1.4,1.4,0,0,0,1.094,1.572c.655.131,1.311.263,2.006.35L60.3,47.551a3.509,3.509,0,0,1,5.419,1.66l.83,2.491c1.486-.182,2.927-.35,4.326-.655a1.443,1.443,0,0,0,1.094-1.572Z" transform="translate(-31.975 -24.01)" fill="#00c2cb"/>
        <circle id="Ellipse_526" cx="6.468" cy="6.468" r="6.468" transform="translate(23.563 0)" fill="#00c2cb"/>
        <path id="Path_43363" d="M14.809,62.5H10a6.931,6.931,0,0,0-6.86,6.074l-.651,5.6a1.443,1.443,0,0,0,1.094,1.572,41.11,41.11,0,0,0,8.826.912,41.4,41.4,0,0,0,8.826-.912,1.443,1.443,0,0,0,1.094-1.572l-.657-5.6A6.9,6.9,0,0,0,14.809,62.5Z" transform="translate(-2.477 -38.582)" fill="#00c2cb"/>
        <circle id="Ellipse_527" cx="6.468" cy="6.468" r="6.468" transform="translate(3.462 10.189)" fill="#00c2cb"/>
        <path id="Path_43364" d="M64.293,65.121a.879.879,0,0,0-1.355-.438L57.083,69.1a.9.9,0,0,0,.263,1.572l1.66.523A12.122,12.122,0,0,1,54.2,77.354a.4.4,0,0,0,.131.7,8.572,8.572,0,0,0,9.526-5.419l1.7.523a.872.872,0,0,0,1.094-1.136Z" transform="translate(-32.736 -39.716)" fill="#00c2cb"/>
      </g>
    </g>
  </g>
</svg>
