<svg xmlns="http://www.w3.org/2000/svg" width="20.02" height="20.02" viewBox="0 0 20.02 20.02">
    <g>
        <g>
            <path fill="#00c2cb" d="M19.784 9.34a.6.6 0 0 1-.534-.334.461.461 0 0 1 .133-.6 2.256 2.256 0 0 0 0-3.17l-.6-.6a2.256 2.256 0 0 0-3.17 0 .564.564 0 0 1-.6.133.523.523 0 0 1-.334-.534A2.236 2.236 0 0 0 12.444 2h-.868A2.236 2.236 0 0 0 9.34 4.236a.6.6 0 0 1-.334.534.461.461 0 0 1-.6-.133 2.256 2.256 0 0 0-3.17 0l-.6.6a2.256 2.256 0 0 0 0 3.17.564.564 0 0 1 .133.6.523.523 0 0 1-.534.334A2.236 2.236 0 0 0 2 11.576v.868a2.236 2.236 0 0 0 2.236 2.236.6.6 0 0 1 .534.334.461.461 0 0 1-.133.6 2.256 2.256 0 0 0 0 3.17l.6.6a2.256 2.256 0 0 0 3.17 0 .564.564 0 0 1 .6-.133.523.523 0 0 1 .334.534 2.236 2.236 0 0 0 2.236 2.236h.868a2.236 2.236 0 0 0 2.236-2.236.6.6 0 0 1 .334-.534.505.505 0 0 1 .6.133 2.256 2.256 0 0 0 3.17 0l.6-.6a2.256 2.256 0 0 0 0-3.17.564.564 0 0 1-.133-.6.523.523 0 0 1 .534-.334 2.236 2.236 0 0 0 2.236-2.236v-.868a2.236 2.236 0 0 0-2.238-2.236zm.567 3.1a.585.585 0 0 1-.567.567 2.236 2.236 0 0 0-1.6 3.8.545.545 0 0 1 0 .8l-.6.6a.545.545 0 0 1-.8 0 2.258 2.258 0 0 0-2.436-.5 2.222 2.222 0 0 0-1.368 2.069.585.585 0 0 1-.567.567h-.868a.585.585 0 0 1-.567-.567 2.222 2.222 0 0 0-1.368-2.069 2.009 2.009 0 0 0-.868-.167 2.229 2.229 0 0 0-1.568.667.545.545 0 0 1-.8 0l-.6-.6a.545.545 0 0 1 0-.8 2.258 2.258 0 0 0 .5-2.436 2.222 2.222 0 0 0-2.074-1.36.556.556 0 0 1-.534-.567v-.868a.562.562 0 0 1 .567-.567A2.222 2.222 0 0 0 6.3 9.641a2.165 2.165 0 0 0-.5-2.436.545.545 0 0 1 0-.8l.6-.6a.545.545 0 0 1 .8 0 2.271 2.271 0 0 0 2.436.5 2.222 2.222 0 0 0 1.368-2.069.562.562 0 0 1 .567-.567h.868a.562.562 0 0 1 .567.567 2.236 2.236 0 0 0 3.8 1.6.545.545 0 0 1 .8 0l.6.6a.545.545 0 0 1 0 .8 2.258 2.258 0 0 0-.5 2.436 2.222 2.222 0 0 0 2.069 1.368.585.585 0 0 1 .567.567zm-8.341-4.4a3.971 3.971 0 1 0 3.97 3.97 3.98 3.98 0 0 0-3.97-3.971zm0 6.273a2.3 2.3 0 1 1 2.3-2.3 2.307 2.307 0 0 1-2.3 2.299z" transform="translate(-2 -2) translate(2 2) translate(-2 -2)"/>
        </g>
    </g>
</svg>
