<svg xmlns="http://www.w3.org/2000/svg" width="40" height="40" viewBox="0 0 40 40">
  <g id="Group_14574" data-name="Group 14574" transform="translate(6610 -1617)">
    <rect id="Rectangle_2615" data-name="Rectangle 2615" width="40" height="40" transform="translate(-6610 1617)" fill="none"/>
    <path id="Path_43704" data-name="Path 43704" d="M39.9,6.143V32.286a4.029,4.029,0,0,1-3,3.857v-19a2.834,2.834,0,0,0-.946-2.571L26.341,5.857a4.277,4.277,0,0,0-3.153-1.143H11.364A4.613,4.613,0,0,1,15.621,2H35.328A4.377,4.377,0,0,1,39.9,6.143ZM33.436,16.286a.988.988,0,0,1,.315.857V37.857A4.377,4.377,0,0,1,29.179,42H9.472A4.377,4.377,0,0,1,4.9,37.857V11.571A4.377,4.377,0,0,1,9.472,7.429H23.188a1.5,1.5,0,0,1,1.1.429Zm-22.387-.571a1.508,1.508,0,0,0,1.577,1.429H17.2a1.514,1.514,0,0,0,1.577-1.429A1.424,1.424,0,0,0,17.2,14.286h-4.73a1.582,1.582,0,0,0-1.419,1.429ZM24.134,32a1.508,1.508,0,0,0-1.577-1.429H20.823V29a1.508,1.508,0,0,0-1.577-1.429A1.424,1.424,0,0,0,17.67,29h0v1.571H15.936A1.514,1.514,0,0,0,14.359,32a1.424,1.424,0,0,0,1.577,1.429H17.67v1.429a1.508,1.508,0,0,0,1.577,1.429,1.424,1.424,0,0,0,1.577-1.429h0V33.286h1.734A1.506,1.506,0,0,0,24.134,32Zm3.626-9.286a1.508,1.508,0,0,0-1.577-1.429H12.468a1.436,1.436,0,1,0,0,2.857H26.184a1.508,1.508,0,0,0,1.577-1.429Zm.788-7-3.941-3.571v3.571Z" transform="translate(-6612.4 1615)" fill="#00c2cb"/>
  </g>
</svg>
