<svg xmlns="http://www.w3.org/2000/svg" width="66" height="66" viewBox="0 0 66 66">
  <g id="Group_14575" data-name="Group 14575" transform="translate(-1589 -707)">
    <circle id="Ellipse_569" data-name="Ellipse 569" cx="33" cy="33" r="33" transform="translate(1589 707)" fill="#00c2cb"/>
    <g id="Group_14155" data-name="Group 14155" transform="translate(1601 725)">
      <path id="Path_43499" data-name="Path 43499" d="M28.465,971.361a12.473,12.473,0,0,1,12.4,11.029,9.981,9.981,0,0,1-.92,19.92H15.486a8.486,8.486,0,1,1,0-16.973h.593A12.483,12.483,0,0,1,28.465,971.36Zm0,10.483a.871.871,0,0,0-.671.25L22.3,987.086a1.014,1.014,0,0,0-.078,1.42,1.064,1.064,0,0,0,1.42.062l3.822-3.479v10.733a1,1,0,1,0,2,0V985.089l3.822,3.479a1.044,1.044,0,0,0,1.42-.062,1.026,1.026,0,0,0-.078-1.42l-5.491-4.992A1.083,1.083,0,0,0,28.465,981.844Z" transform="translate(-7 -971.36)" fill="#fff"/>
    </g>
  </g>
</svg>
