<svg xmlns="http://www.w3.org/2000/svg" id="Group_13816" width="273.906" height="289.848" viewBox="0 0 273.906 289.848">
    <defs>
        <style>
            .cls-1{fill:#dcafaf}.cls-2{fill:#e0e0e0}.cls-3{fill:#fafafa}.cls-4{fill:#ebebeb}.cls-5{fill:#37df17}.cls-6{fill:#fff}.cls-8{fill:#8b8f8f}.cls-9{fill:#263238}.cls-10{opacity:.2}.cls-11{fill:#0cc}.cls-12{fill:#455a64}.cls-13{fill:#b78876}.cls-14{fill:#aa6550}
        </style>
    </defs>
    <path id="Path_43068" d="M398.714 282.538s-6.532-4.5-14.9 11.167-11.614 24.744-11.614 24.744-2.193 3.276-4.433 1.063-5.234-8.423-9.129-7.4c-4.036 1.07-5.449 5.523-4.81 12.109s1.507 21.117 1.581 22.429-.673 3.168-2.469 1.911-11.827-12.923-17.074-7.817-.451 23.209.04 25.194.081 2.825-.868 3.3-3.962-3.767-6.963-6.963-7.037-6.384-9.815-3.182-3.909 16.691 8.517 38.871l6.431 9.9 11.847-.431c25.308-2.455 35.736-11.087 36.778-15.2s-3.875-5.6-8.214-6.243-9.539-.673-9.694-1.742.3-1.857 2.213-2.59 19.509-7.124 20.707-14.349-14.127-8.833-16.146-9.56-.942-2.442.161-3.115 13.529-8.261 19.314-11.51 8.638-6.943 7.212-10.871c-1.379-3.781-8.187-2.691-11.282-3.276s-1.655-4.245-1.655-4.245 5.6-7.831 13.683-23.653.464-18.648.464-18.648" class="cls-1" transform="translate(-127.948 -119.387)"/>
    <path id="Path_43069" d="M342.33 412.606c5.981-11.6 14.383-27.582 23.727-45.14s17.774-33.509 23.815-45.073l7.144-13.7 1.944-3.727.511-.969c.121-.215.188-.323.188-.323s-.047.121-.155.343-.276.558-.478.982c-.437.875-1.076 2.133-1.884 3.754-1.642 3.263-4.036 7.965-7.044 13.757-5.981 11.6-14.383 27.548-23.721 45.134s-17.78 33.522-23.822 45.073" class="cls-2" transform="translate(-136.415 -126.498)"/>
    <path id="Path_43070" d="M384.88 340a3.877 3.877 0 0 1 .283.807c.162.525.37 1.292.626 2.24.5 1.9 1.117 4.534 1.749 7.461s1.171 5.49 1.594 7.488c.2.9.363 1.655.5 2.267a3.928 3.928 0 0 1 .148.841 3.613 3.613 0 0 1-.289-.807c-.161-.525-.37-1.292-.612-2.24-.478-1.9-1.063-4.548-1.7-7.474s-1.211-5.483-1.648-7.474c-.2-.9-.37-1.655-.5-2.267a3.45 3.45 0 0 1-.151-.842z" class="cls-2" transform="translate(-150.34 -138.388)"/>
    <path id="Path_43071" d="M393.76 368.559c0-.094 5.382-1.615 12.022-3.364s12.109-3.142 12.109-3.048-5.382 1.621-12.022 3.4-12.082 3.113-12.109 3.012z" class="cls-2" transform="translate(-153.247 -145.635)"/>
    <path id="Path_43072" d="M370.64 410.662a3.633 3.633 0 0 1 .868 0l2.375.054c2.018.04 4.756.087 7.81 0s5.806-.2 7.8-.316l2.361-.141a3.991 3.991 0 0 1 .875 0 3.772 3.772 0 0 1-.861.155c-.552.067-1.345.161-2.354.256-2.018.182-4.763.37-7.817.424s-5.833-.034-7.831-.141c-1-.061-1.81-.114-2.368-.168a3.812 3.812 0 0 1-.861-.121z" class="cls-2" transform="translate(-145.68 -161.373)"/>
    <path id="Path_43073" d="M356.29 384a3.3 3.3 0 0 1 .451.673l1.1 1.89c.922 1.608 2.173 3.835 3.532 6.31s2.57 4.709 3.431 6.357c.4.767.733 1.413 1 1.944a3.122 3.122 0 0 1 .323.74 3.781 3.781 0 0 1-.444-.673l-1.11-1.89c-.915-1.6-2.166-3.835-3.525-6.3s-2.57-4.709-3.437-6.357c-.39-.767-.727-1.419-1-1.951a3.772 3.772 0 0 1-.321-.743z" class="cls-2" transform="translate(-140.984 -152.788)"/>
    <path id="Path_43074" d="M331.48 416a5.725 5.725 0 0 1 .565.861c.37.632.854 1.44 1.426 2.415 1.191 2.052 2.812 4.9 4.588 8.073s3.364 6.021 4.487 8.073c.538 1 .982 1.83 1.345 2.469a5.552 5.552 0 0 1 .444.935 5.726 5.726 0 0 1-.565-.861l-1.446-2.455c-1.191-2.018-2.812-4.891-4.588-8.073s-3.364-6.014-4.487-8.073c-.538-1-.982-1.83-1.345-2.476a5.382 5.382 0 0 1-.424-.888z" class="cls-2" transform="translate(-132.864 -163.26)"/>
    <path id="Path_43075" d="M350.33 448.376a5.781 5.781 0 0 1 1.1-.054l3.007-.04c2.536-.04 6.055-.1 9.909-.282s7.366-.424 9.9-.619l2.994-.235a5.7 5.7 0 0 1 1.1-.04 7.042 7.042 0 0 1-1.083.182c-.706.094-1.729.222-2.994.35-2.523.263-6.055.558-9.9.727s-7.4.208-9.923.175c-1.271 0-2.294-.04-3.007-.074a6.443 6.443 0 0 1-1.103-.09z" class="cls-2" transform="translate(-139.033 -173.436)"/>
    <rect id="Rectangle_2359" width="61.051" height="83.87" class="cls-2" rx="2.41" transform="rotate(-25.7 88.87 -61.492)"/>
    <path id="Rectangle_2360" d="M0 0H54.236V78.064H0z" class="cls-3" transform="rotate(-25.7 91.097 -69.862)"/>
    <path id="Path_43076" d="M136.866 62.682a6.633 6.633 0 0 0-6.949-.727l-1.48-2.973a4.561 4.561 0 0 0-6.1-2.133 4.568 4.568 0 0 0-2.133 6.088l1.5 3.121-1.043.525A6.64 6.64 0 0 0 117 72.436v1.547l21.279-10.239zm-11.356.484a2.455 2.455 0 1 1 1.257-1.4 2.462 2.462 0 0 1-1.257 1.4z" class="cls-4" transform="translate(-62.672 -45.574)"/>
    <path id="Path_43077" d="M122.273 90.6c.04.087-2.886 1.588-6.546 3.364A68.107 68.107 0 0 1 109 97c-.067-.087 2.886-1.588 6.546-3.364a71.5 71.5 0 0 1 6.727-3.036z" class="cls-2" transform="translate(-60.053 -56.766)"/>
    <path id="Path_43078" d="M117.021 98.83a18.208 18.208 0 0 1-3.121 1.7 17.954 17.954 0 0 1-3.269 1.379 18.777 18.777 0 0 1 3.121-1.7 17.953 17.953 0 0 1 3.269-1.379z" class="cls-2" transform="translate(-60.587 -59.461)"/>
    <path id="Path_43079" d="M152.919 85.809c.04.087-8.18 4.137-18.366 9.035s-18.473 8.806-18.514 8.746 8.18-4.131 18.366-9.035 18.474-8.833 18.514-8.746z" class="cls-2" transform="translate(-62.358 -55.199)"/>
    <path id="Path_43080" d="M155.429 91c.047.087-8.18 4.131-18.359 9.035s-18.473 8.806-18.52 8.746 8.18-4.131 18.366-9.035 18.473-8.807 18.513-8.746z" class="cls-2" transform="translate(-63.179 -56.898)"/>
    <path id="Path_43081" d="M157.949 96.269c.04.087-8.18 4.131-18.366 9.035s-18.473 8.806-18.514 8.746 8.18-4.131 18.366-9.035 18.474-8.833 18.514-8.746z" class="cls-2" transform="translate(-64.004 -58.623)"/>
    <path id="Path_43082" d="M160.469 101.5c.04.087-8.18 4.131-18.366 9.028s-18.473 8.806-18.514 8.746 8.174-4.131 18.366-9.035 18.467-8.827 18.514-8.739z" class="cls-2" transform="translate(-64.829 -60.334)"/>
    <path id="Path_43083" d="M162.979 106.719c.047.087-8.18 4.137-18.359 9.035s-18.473 8.806-18.52 8.746 8.18-4.131 18.366-9.035 18.473-8.833 18.513-8.746z" class="cls-2" transform="translate(-65.65 -62.042)"/>
    <path id="Path_43084" d="M165.5 112c.04.087-8.181 4.131-18.366 9.035s-18.473 8.806-18.514 8.745 8.18-4.131 18.366-9.035 18.473-8.867 18.514-8.745z" class="cls-2" transform="translate(-66.475 -63.77)"/>
    <path id="Path_43085" d="M149.32 129.86a3.684 3.684 0 0 1-.673.41l-1.978 1.029c-1.655.827-3.949 1.958-6.492 3.182s-4.864 2.314-6.546 3.095l-2.018.9a3.9 3.9 0 0 1-.753.283 3.408 3.408 0 0 1 .673-.41l1.951-1c1.655-.827 3.956-1.958 6.5-3.182s4.857-2.314 6.539-3.095l2.018-.895a3.418 3.418 0 0 1 .779-.317z" class="cls-2" transform="translate(-67.208 -69.616)"/>
    <path id="Path_43086" d="M164.11 71.62a15.525 15.525 0 0 1-2.913 1.6 15.841 15.841 0 0 1-3.027 1.265 15.524 15.524 0 0 1 2.879-1.581 15.33 15.33 0 0 1 3.061-1.284z" class="cls-2" transform="translate(-76.146 -50.556)"/>
    <path id="Path_43087" d="M146.66 147.25a40.19 40.19 0 0 1-4.709 2.462 40.459 40.459 0 0 1-4.871 2.146 40.662 40.662 0 0 1 4.709-2.462 40.66 40.66 0 0 1 4.871-2.146z" class="cls-2" transform="translate(-69.244 -75.307)"/>
    <path id="Path_43088" d="M149.344 151.76a41.623 41.623 0 0 1-4.79 2.5 41.332 41.332 0 0 1-4.945 2.186 41.469 41.469 0 0 1 4.79-2.5 44.154 44.154 0 0 1 4.945-2.186z" class="cls-2" transform="translate(-70.072 -76.783)"/>
    <path id="Path_43089" d="M190.018 126.66a9.521 9.521 0 0 1-2.24 1.271 9.7 9.7 0 0 1-2.388.955 18.976 18.976 0 0 1 4.628-2.227z" class="cls-2" transform="translate(-85.054 -68.569)"/>
    <path id="Path_43090" d="M192.315 130.82a9.8 9.8 0 0 1-2.24 1.271 9.585 9.585 0 0 1-2.395.955 9.522 9.522 0 0 1 2.24-1.271 9.282 9.282 0 0 1 2.395-.955z" class="cls-2" transform="translate(-85.803 -69.93)"/>
    <path id="Path_43091" d="M147.664 160a9.014 9.014 0 0 1-2.159 1.231 9.506 9.506 0 0 1-2.314.922 17.294 17.294 0 0 1 4.473-2.153z" class="cls-2" transform="translate(-71.243 -79.48)"/>
    <path id="Path_43092" d="M195.564 135.69a9.977 9.977 0 0 1-3.364 1.61 9.977 9.977 0 0 1 3.364-1.608z" class="cls-2" transform="translate(-87.283 -71.524)"/>
    <path id="Path_43093" d="M148.17 171.246a2.063 2.063 0 0 1 .188-.141l.565-.377 2.173-1.4 7.81-4.9.155-.1.067.168a4.433 4.433 0 0 1 .081 2.967 3.613 3.613 0 0 1-5.476 1.958 3.128 3.128 0 0 1-1.11-3.276 2.752 2.752 0 0 1 .673-1.224 1.748 1.748 0 0 1 .256-.242 1.344 1.344 0 0 1 .3-.209.491.491 0 0 1 .471 0 .734.734 0 0 1 .262.309 5.78 5.78 0 0 1 .673 2.489 5.907 5.907 0 0 1-.383 2.455 3.754 3.754 0 0 1-1.446 1.917 2.146 2.146 0 0 1-2.274-.047 3.236 3.236 0 0 1-1.345-1.689 7.863 7.863 0 0 1 0-3.8l.04-.256.175.2a5.274 5.274 0 0 1 1.278 2.9 5.6 5.6 0 0 1-.222 2.388 5.064 5.064 0 0 1-.673 1.345 3.155 3.155 0 0 1-.249.3c-.061.067-.087.1-.094.094a6.161 6.161 0 0 0 .888-1.789 5.516 5.516 0 0 0 .161-2.321 5.113 5.113 0 0 0-1.265-2.758l.209-.067a7.682 7.682 0 0 0 0 3.666 2.94 2.94 0 0 0 1.231 1.514 1.817 1.817 0 0 0 1.944.04 3.465 3.465 0 0 0 1.305-1.763 5.725 5.725 0 0 0-.3-4.655.545.545 0 0 0-.135-.161.148.148 0 0 0-.148 0 1.656 1.656 0 0 0-.437.363 2.455 2.455 0 0 0-.565 1.07 2.8 2.8 0 0 0 .975 2.913 3.283 3.283 0 0 0 4.971-1.776 4.137 4.137 0 0 0-.061-2.751l.222.074-7.878 4.817-2.22 1.345-.592.343a.809.809 0 0 1-.2.067z" class="cls-2" transform="translate(-72.873 -80.897)"/>
    <path id="Path_43094" d="M196.082 147.715a2.3 2.3 0 0 1-.108.632 2.689 2.689 0 0 1-.309.713 1.494 1.494 0 0 1-.841.639 1.009 1.009 0 0 1-.673 0 1.346 1.346 0 0 1-.558-.437 12.789 12.789 0 0 1-.754-1.278c-.5-.928-1.07-1.951-1.668-3.054l.3-.067-.175 4.985c0 .424-.034.834-.047 1.245v.673l-.3-.626c-.922-1.89-1.776-3.66-2.53-5.2h.283a17.677 17.677 0 0 0-.639 4.709 11.464 11.464 0 0 1 0 1.81 2.13 2.13 0 0 1-.094-.471 13.3 13.3 0 0 1-.114-1.346 16.41 16.41 0 0 1 .525-4.77l.1-.39.175.363c.767 1.534 1.635 3.29 2.57 5.173l-.33.067c0-.41.034-.821.047-1.245.074-1.763.141-3.444.2-4.985v-.605l.283.531c.592 1.11 1.137 2.146 1.628 3.074a13.508 13.508 0 0 0 .673 1.271.908.908 0 0 0 .975.41 1.729 1.729 0 0 0 1.1-1.2 5.06 5.06 0 0 1 .276-.626z" class="cls-2" transform="translate(-85.857 -74.325)"/>
    <path id="Path_43095" d="M193.873 145.649a74.557 74.557 0 0 1-6.2 4.433c-3.5 2.368-6.344 4.218-6.4 4.137a75.052 75.052 0 0 1 6.2-4.427c3.508-2.36 6.333-4.217 6.4-4.143z" class="cls-2" transform="translate(-83.709 -74.783)"/>
    <path id="Path_43096" d="M200.524 146.53a55.714 55.714 0 0 1-4.548 4.137 54.7 54.7 0 0 1-4.776 3.875 54.4 54.4 0 0 1 4.548-4.137 52.484 52.484 0 0 1 4.776-3.875z" class="cls-2" transform="translate(-86.955 -75.072)"/>
    <g id="Group_13795" transform="translate(229.593 92.591)">
        <path id="Path_43097" d="M386.968 192.742c-2.765 6.929-7.2 18.164-9.23 23.277a2.947 2.947 0 0 0 1.655 3.835l18.931 7.541a2.96 2.96 0 0 0 3.848-1.655l9.183-23.061a6.579 6.579 0 0 0-3.673-8.537l1.345-3.364-12.392-4.938-1.278 3.209h-.047a6.579 6.579 0 0 0-8.342 3.693z" class="cls-5" transform="translate(-377.527 -180.528)"/>
        <rect id="Rectangle_2361" width="19.119" height="12.647" class="cls-4" rx="1.48" transform="rotate(21.72 -38.385 38.6)"/>
        <path id="Path_43108" d="M405.219 221.162a1.855 1.855 0 0 1 .067-.2l.2-.552c.2-.5.457-1.2.787-2.072l2.879-7.4.081.175-15.58-6.162.222-.1v.047l-.034.081-.067.168-.135.343-.269.673-.531 1.346c-.35.881-.673 1.749-1.036 2.6l-1.978 4.911-.087-.209 11.14 4.528 3.209 1.345.854.363.3.141a1.874 1.874 0 0 1-.283-.087l-.841-.316-3.2-1.231-11.3-4.413-.148-.061.061-.148c.619-1.567 1.271-3.209 1.944-4.918.343-.854.673-1.722 1.036-2.6l.531-1.345.269-.673.135-.336.067-.168.034-.087v-.04l.229-.1 15.56 6.176.128.054-.047.128c-1.271 3.095-2.307 5.637-3.048 7.447-.357.848-.639 1.527-.841 2.018-.094.208-.168.377-.222.518s-.08.163-.086.156z" class="cls-2" transform="translate(-381.436 -186.687)"/>
        <path id="Path_43109" d="M408.229 215.461a44.957 44.957 0 0 1-5.382-1.944 47.17 47.17 0 0 1-5.227-2.267 46.943 46.943 0 0 1 5.38 1.944 47.876 47.876 0 0 1 5.227 2.267z" class="cls-2" transform="translate(-384.103 -188.843)"/>
        <path id="Path_43110" d="M407.162 218.138a47.484 47.484 0 0 1-5.382-1.944 44.534 44.534 0 0 1-5.22-2.274 47.5 47.5 0 0 1 5.382 1.944 44.547 44.547 0 0 1 5.221 2.274z" class="cls-2" transform="translate(-383.756 -189.717)"/>
        <path id="Path_43111" d="M406.139 220.7a46.085 46.085 0 0 1-5.382-1.937 47.085 47.085 0 0 1-5.227-2.274 46.418 46.418 0 0 1 5.382 1.944 47.162 47.162 0 0 1 5.227 2.267z" class="cls-2" transform="translate(-383.419 -190.558)"/>
        <path id="Path_43113" d="M380.15 217.212a6.739 6.739 0 0 1 .37-1.117c.289-.76.673-1.769 1.144-2.994.975-2.516 2.355-5.994 3.888-9.822.774-1.911 1.514-3.727 2.187-5.382a11.663 11.663 0 0 1 2.455-4.09 5.16 5.16 0 0 1 2.859-1.46 3.767 3.767 0 0 1 .881 0 1.394 1.394 0 0 1 .3.067 7.823 7.823 0 0 0-1.164.067 5.26 5.26 0 0 0-2.691 1.5 11.865 11.865 0 0 0-2.334 4.036L385.9 203.4c-1.541 3.835-2.953 7.292-3.989 9.788-.5 1.2-.928 2.2-1.245 2.953a8.632 8.632 0 0 1-.511 1.07z" class="cls-6" transform="translate(-378.385 -182.649)"/>
        <path id="Path_43114" d="M401.052 243.109a5.392 5.392 0 0 1-.747-.605c-.229-.2-.511-.451-.854-.72s-.72-.6-1.171-.915a33.469 33.469 0 0 0-3.2-2.119 34.918 34.918 0 0 0-4.232-2.058 36.323 36.323 0 0 0-4.494-1.42 32.441 32.441 0 0 0-3.788-.673c-.545-.081-1.043-.1-1.473-.135s-.807-.061-1.117-.067a5.84 5.84 0 0 1-.955-.074 4.469 4.469 0 0 1 .955-.061 10.588 10.588 0 0 1 1.123 0 9.19 9.19 0 0 1 1.493.087 28.24 28.24 0 0 1 3.835.592 33.3 33.3 0 0 1 4.548 1.4 32.724 32.724 0 0 1 4.265 2.106 30.089 30.089 0 0 1 3.2 2.206c.444.336.807.673 1.144.962s.606.545.821.767a4.964 4.964 0 0 1 .647.727z" class="cls-6" transform="translate(-378.016 -196.37)"/>
        <path id="Path_43098" d="M405.372 186.44l-.612 1.547 12.224 5.375.787-1.985z" class="cls-2" transform="translate(-386.44 -180.724)"/>
        <path id="Path_43099" fill="#008e8e" d="M2.011 0h12.433a2.018 2.018 0 0 1 2.018 2.018v3.3a1.3 1.3 0 0 1-1.3 1.3H1.3A1.3 1.3 0 0 1 0 5.315v-3.3A2.018 2.018 0 0 1 2.018 0z" transform="rotate(21.72 9.784 50.985)"/>
        <path id="Path_43100" d="M405.87 185.289a15.211 15.211 0 0 1 1.056-3.128 15.9 15.9 0 0 1 1.379-3 15.218 15.218 0 0 1-1.056 3.128 15.9 15.9 0 0 1-1.379 3z" class="cls-2" transform="translate(-386.803 -178.341)"/>
        <path id="Path_43101" d="M408.29 186.259a15.464 15.464 0 0 1 1.063-3.128 15.9 15.9 0 0 1 1.379-3 16.023 16.023 0 0 1-1.056 3.128 15.48 15.48 0 0 1-1.386 3z" class="cls-2" transform="translate(-387.595 -178.659)"/>
        <path id="Path_43102" d="M410.72 187.222a30.6 30.6 0 0 1 2.442-6.122 16.026 16.026 0 0 1-1.056 3.128 15.012 15.012 0 0 1-1.386 2.994z" class="cls-2" transform="translate(-388.39 -178.976)"/>
        <path id="Path_43103" d="M413.15 188.189a15.875 15.875 0 0 1 1.056-3.128 15.477 15.477 0 0 1 1.386-3 15.708 15.708 0 0 1-1.056 3.128 16.146 16.146 0 0 1-1.386 3z" class="cls-2" transform="translate(-389.185 -179.291)"/>
        <path id="Path_43104" d="M415.58 189.159a15.723 15.723 0 0 1 1.056-3.128 15.207 15.207 0 0 1 1.386-3 15.8 15.8 0 0 1-1.063 3.128 16.149 16.149 0 0 1-1.379 3z" class="cls-2" transform="translate(-389.981 -179.608)"/>
        <path id="Path_43105" d="M418 190.122a15.458 15.458 0 0 1 1.056-3.128 15.71 15.71 0 0 1 1.379-2.994 15.471 15.471 0 0 1-1.056 3.128 15.706 15.706 0 0 1-1.379 2.994z" class="cls-2" transform="translate(-390.773 -179.925)"/>
        <path id="Path_43106" d="M420.44 191.089a15.477 15.477 0 0 1 1.056-3.128 16.149 16.149 0 0 1 1.379-3 15.217 15.217 0 0 1-1.056 3.128 15.9 15.9 0 0 1-1.379 3z" class="cls-2" transform="translate(-391.571 -180.24)"/>
        <path id="Path_43107" d="M422.86 192.019a15.486 15.486 0 0 1 1.063-3.128 15.92 15.92 0 0 1 1.379-3 15.7 15.7 0 0 1-1.056 3.128 15.2 15.2 0 0 1-1.386 3z" class="cls-2" transform="translate(-392.363 -180.544)"/>
        <path id="Path_43112" d="M415.741 195.365a52.759 52.759 0 0 1-5.839-2.133 56.809 56.809 0 0 1-5.711-2.462 54.449 54.449 0 0 1 5.839 2.133 56.786 56.786 0 0 1 5.711 2.462z" class="cls-2" transform="translate(-386.253 -182.141)"/>
    </g>
    <path id="Path_43115" d="M83.992 408.433c15.157-7.683 20.821-25.127 22.55-41.286.289-2.691.982-5.483.04-8.019s-3.693-4.568-6.256-3.774c-2.126.673-3.323 2.852-4.709 4.608a15.85 15.85 0 0 1-7.144 5.119c-1.837.673-4.036.888-5.584-.282-2.133-1.6-1.951-4.837-1.561-7.508l2.207-14.888a24.889 24.889 0 0 0 .316-8.039c-.478-2.657-1.971-5.267-4.406-6.337s-5.786-.054-6.694 2.489a24.609 24.609 0 0 0-.545 3.31 2.826 2.826 0 0 1-2.018 2.408c-1.1.155-2.072-.747-2.758-1.635-2.375-3.088-3.754-6.828-5.012-10.528s-2.455-7.474-4.534-10.764-5.214-6.142-9.021-6.9-8.2 1.023-9.694 4.642.148 7.757 2.106 11.14a60.168 60.168 0 0 0 10.764 13.582 4.966 4.966 0 0 1 1.756 2.523c.33 1.863-1.608 3.364-3.451 3.727-2.079.383-4.211-.128-6.324-.182s-4.5.552-5.57 2.408c-1.48 2.57.4 5.759 2.375 7.945a51.692 51.692 0 0 0 13.858 10.865c1.863 1 3.841 1.917 5.227 3.518s2.018 4.144.787 5.886-3.767 2.018-5.772 1.346-3.687-2.018-5.537-3.068c-3.478-1.9-8.248-2.321-11.046.518a8.513 8.513 0 0 0-1.958 7.339 19.648 19.648 0 0 0 3.115 7.171 51.758 51.758 0 0 0 19.731 18.507c8.093 4.158 15.863 6.055 24.763 4.178" class="cls-1" transform="translate(-36.243 -127.337)"/>
    <path id="Path_43116" d="M86.26 417.551c.323-6.452-.215-10.515-1.446-18.964a242.854 242.854 0 0 0-5.846-27.1q-.969-3.552-1.9-7.023c-.632-2.3-1.251-4.588-2.018-6.781a122.7 122.7 0 0 0-5.019-12.385c-1.789-3.861-3.626-7.454-5.382-10.811s-3.444-6.438-5.1-9.19A96.088 96.088 0 0 0 50.76 312.9c-1.144-1.379-2.072-2.415-2.691-3.108l-.727-.787a1.938 1.938 0 0 0-.262-.256 1.917 1.917 0 0 0 .222.289l.673.821c.612.713 1.514 1.776 2.637 3.169a101.3 101.3 0 0 1 8.638 12.446c1.635 2.758 3.3 5.853 5.032 9.2s3.545 6.956 5.315 10.817a119.941 119.941 0 0 1 5.012 12.345c.74 2.186 1.345 4.453 2.018 6.727s1.251 4.655 1.89 7.023a246.15 246.15 0 0 1 5.88 27.037c1.251 8.416 1.823 12.446 1.547 18.877" class="cls-2" transform="translate(-39.79 -128.161)"/>
    <path id="Path_43117" d="M88.48 367.41a5.475 5.475 0 0 0 .424-1.1c.242-.72.565-1.769.942-3.074.753-2.6 1.668-6.236 2.691-10.239s1.964-7.622 2.758-10.206c.39-1.3.72-2.341.955-3.061a5.135 5.135 0 0 0 .316-1.137 5.185 5.185 0 0 0-.5 1.07c-.289.673-.673 1.736-1.1 3.021-.881 2.563-1.911 6.176-2.906 10.185l-2.56 10.276c-.309 1.231-.572 2.274-.787 3.108a5.38 5.38 0 0 0-.233 1.157z" class="cls-2" transform="translate(-53.338 -137.927)"/>
    <path id="Path_43118" d="M38.81 364.67a8.382 8.382 0 0 0 1.345.357c.875.2 2.133.491 3.68.895 3.095.78 7.333 2.018 11.948 3.586s8.746 3.175 11.672 4.42c1.48.612 2.691 1.137 3.478 1.5a7.781 7.781 0 0 0 1.292.518 7.623 7.623 0 0 0-1.211-.673c-.794-.41-1.958-.989-3.418-1.648-2.92-1.346-7.03-2.987-11.658-4.568a119.2 119.2 0 0 0-12.022-3.492c-1.561-.363-2.839-.6-3.72-.747a7.685 7.685 0 0 0-1.386-.148z" class="cls-2" transform="translate(-37.083 -146.462)"/>
    <path id="Path_43119" d="M102.67 421.137a4.391 4.391 0 0 0 .3-.39l.767-1.157c.673-1.009 1.567-2.5 2.691-4.339 2.213-3.7 5.113-8.9 8.228-14.686s5.967-11.013 8.073-14.753l2.536-4.42.673-1.2a2.02 2.02 0 0 0 .209-.437 3.582 3.582 0 0 0-.3.383l-.753 1.13c-.673 1.009-1.574 2.5-2.691 4.346-2.213 3.693-5.113 8.9-8.228 14.686s-5.96 11.006-8.073 14.746c-1.049 1.816-1.9 3.31-2.543 4.42-.269.484-.5.881-.673 1.2a1.851 1.851 0 0 0-.216.471z" class="cls-2" transform="translate(-57.982 -151.397)"/>
    <path id="Path_43120" d="M38 409.81a1.575 1.575 0 0 0 .431.256l1.258.632 4.662 2.274c3.935 1.917 9.338 4.635 15.3 7.642s11.436 5.685 15.379 7.521c2.018.922 3.6 1.648 4.709 2.133l1.312.525a1.932 1.932 0 0 0 .464.161 1.842 1.842 0 0 0-.424-.256l-1.265-.626-4.655-2.281c-3.936-1.917-9.338-4.635-15.3-7.642s-11.416-5.658-15.392-7.521c-2.018-.922-3.6-1.648-4.709-2.133l-1.3-.545a1.917 1.917 0 0 0-.47-.14z" class="cls-2" transform="translate(-36.818 -161.235)"/>
    <path id="Path_43122" d="M183.823 337.277s-19.133 13-20.182 43.338c-.35 10.178 4.649 42.584 4.649 42.584l111.9.451-20.929-86.857-35.2-8.073z" class="cls-8" transform="translate(-77.931 -134.696)"/>
    <path id="Path_43123" d="M249.774 374.92l-15.244 63.593 38.1.256z" class="cls-6" transform="translate(-101.136 -149.816)"/>
    <path id="Path_43124" d="M256.3 354.45a13.661 13.661 0 0 1 .2 2.079c.087 1.4.2 3.122.316 5.032s.188 3.747.215 5.032a11.958 11.958 0 0 1-.047 2.092 13.662 13.662 0 0 1-.2-2.079c-.087-1.393-.2-3.121-.316-5.025s-.188-3.747-.209-5.039a11.636 11.636 0 0 1 .041-2.092z" class="cls-9" transform="translate(-108.236 -143.117)"/>
    <path id="Path_43125" d="M265.376 364.815c0 .034-.249.088-.673.323a3.243 3.243 0 0 0-1.272 1.413 2.738 2.738 0 0 0 .135 2.691 2.852 2.852 0 0 0 5.261-.841 2.725 2.725 0 0 0-.673-2.583 3.227 3.227 0 0 0-1.648-.949c-.444-.1-.673-.074-.713-.108s.067 0 .188-.04a1.949 1.949 0 0 1 .552 0 3.168 3.168 0 0 1 1.8.908 3.224 3.224 0 0 1 .767 1.2 2.934 2.934 0 0 1 .074 1.642 3.169 3.169 0 0 1-5.853.928 2.934 2.934 0 0 1-.437-1.581 3.23 3.23 0 0 1 .356-1.346 3.182 3.182 0 0 1 1.426-1.426 1.92 1.92 0 0 1 .518-.182c.124-.056.185-.064.192-.049z" class="cls-9" transform="translate(-110.414 -146.472)"/>
    <path id="Path_43126" d="M283.512 416.426a6.25 6.25 0 0 0-.673.323 3.234 3.234 0 0 0-1.265 1.413 2.737 2.737 0 0 0 .135 2.691 2.852 2.852 0 0 0 5.261-.841 2.731 2.731 0 0 0-.673-2.583 3.216 3.216 0 0 0-1.641-.949c-.451-.1-.713-.074-.713-.108a.472.472 0 0 1 .188-.04 2.19 2.19 0 0 1 .545 0 3.181 3.181 0 0 1 1.8.915 3.128 3.128 0 0 1 .76 1.191 2.818 2.818 0 0 1 .074 1.641 3.155 3.155 0 0 1-5.846.928 2.818 2.818 0 0 1-.437-1.581 3.132 3.132 0 0 1 .357-1.345 3.181 3.181 0 0 1 1.426-1.426 2.084 2.084 0 0 1 .518-.182.673.673 0 0 1 .184-.047z" class="cls-9" transform="translate(-116.353 -163.363)"/>
    <path id="Path_43127" d="M210.4 379a1.826 1.826 0 0 1-.242.3c-.161.188-.4.464-.733.807a30.269 30.269 0 0 1-3.014 2.691 31.086 31.086 0 0 1-11.975 5.631 23.791 23.791 0 0 1-7.3.592A11.053 11.053 0 0 1 181.53 387a8.255 8.255 0 0 1-2.577-3.1 7 7 0 0 1-.363-1.036 1.345 1.345 0 0 1-.061-.377 14.3 14.3 0 0 0 .552 1.345 8.341 8.341 0 0 0 2.6 2.953 11.046 11.046 0 0 0 5.49 1.917 24.318 24.318 0 0 0 7.2-.619 31.9 31.9 0 0 0 11.9-5.49 35.727 35.727 0 0 0 3.061-2.577l.787-.76a1.56 1.56 0 0 1 .281-.256z" class="cls-9" transform="translate(-82.809 -151.151)"/>
    <path id="Path_43128" d="M210.4 388.36a1.824 1.824 0 0 1-.242.3c-.161.188-.4.471-.733.814a30.272 30.272 0 0 1-14.988 8.308 23.8 23.8 0 0 1-7.3.6 11.114 11.114 0 0 1-5.611-2.018 8.194 8.194 0 0 1-2.577-3.095 6.78 6.78 0 0 1-.363-1.043 1.3 1.3 0 0 1-.061-.377 14.3 14.3 0 0 0 .552 1.345 8.355 8.355 0 0 0 2.6 2.96 11.046 11.046 0 0 0 5.49 1.911 24.092 24.092 0 0 0 7.2-.619 32.008 32.008 0 0 0 11.9-5.483 35.54 35.54 0 0 0 3.061-2.583l.787-.76a1.644 1.644 0 0 1 .285-.26z" class="cls-9" transform="translate(-82.809 -154.215)"/>
    <path id="Path_43129" d="M209.131 385.53a1.446 1.446 0 0 1 .047.269c0 .2.047.464.087.8.081.727.2 1.763.336 3.088.283 2.691.821 6.546 1.063 11.369a53.518 53.518 0 0 1-.168 7.891 33.986 33.986 0 0 1-2.018 8.833 22.8 22.8 0 0 1-5.442 8.376 20.086 20.086 0 0 1-4.279 3.162 17.243 17.243 0 0 1-5.167 1.823 15.762 15.762 0 0 1-10.46-1.941 20.33 20.33 0 0 1-7.218-6.916 27.3 27.3 0 0 1-3.364-8.4 39.015 39.015 0 0 1-.928-7.858 76.688 76.688 0 0 1 .807-11.389c.2-1.345.343-2.355.444-3.074.054-.336.1-.6.128-.8a1.606 1.606 0 0 1 .061-.269 1.429 1.429 0 0 1 0 .276c0 .2-.054.464-.094.8-.087.726-.215 1.763-.383 3.081a80.677 80.677 0 0 0-.673 11.369 39.078 39.078 0 0 0 .955 7.783 27.2 27.2 0 0 0 3.364 8.288 19.967 19.967 0 0 0 7.084 6.808 15.406 15.406 0 0 0 10.232 1.89 16.6 16.6 0 0 0 5.059-1.783 19.741 19.741 0 0 0 4.211-3.1 22.51 22.51 0 0 0 5.382-8.241 33.855 33.855 0 0 0 2.018-8.746 53.268 53.268 0 0 0 .208-7.851c-.208-4.81-.673-8.685-.949-11.369-.135-1.345-.222-2.388-.276-3.095 0-.336-.04-.605-.054-.807s-.013-.267-.013-.267z" class="cls-9" transform="translate(-80.547 -153.288)"/>
    <g id="Group_13491" class="cls-10" transform="translate(93.555 265.562)">
        <path id="Path_43130" d="M175.33 435.06a22.458 22.458 0 0 0 4 8.443 16.932 16.932 0 0 0 8.712 6.606 15.775 15.775 0 0 0 15.123-2.691c4.11-3.438 5.563-8.746 6.277-12.345-1.789 2.409-3.693 5.833-5.947 7.817a17.721 17.721 0 0 1-8.207 4.238 18.636 18.636 0 0 1-12.3-2.731c-3.451-2.193-5.537-6.122-7.676-9.331" transform="translate(-175.31 -435.06)"/>
    </g>
    <g id="Group_13492" class="cls-10" transform="translate(96.454 239.467)">
        <path id="Path_43131" d="M179.62 396.27a11.557 11.557 0 0 0 8.47 6.64c3.639.673 8.355-.478 10.629-3.9-8.006 2.812-15.964 2.879-19.1-2.745" transform="translate(-179.62 -396.27)"/>
    </g>
    <path id="Path_43132" d="M272.576 377.864a1.529 1.529 0 0 1-.518 0 8.672 8.672 0 0 1-1.345-.3 12.856 12.856 0 0 1-7.232-5.49 9.818 9.818 0 0 1-.673-1.238c-.128-.309-.188-.478-.161-.491s.363.632 1.023 1.594a14.846 14.846 0 0 0 3.122 3.263 14.633 14.633 0 0 0 3.983 2.126c1.095.348 1.808.472 1.801.536z" class="cls-9" transform="translate(-110.335 -148.32)"/>
    <g id="Group_13493" class="cls-10" transform="translate(152.93 222.467)">
        <path id="Path_43133" d="M263.57 371c.828 2.812 3.949 5.436 6.727 6.357a4.094 4.094 0 0 0 1.7.249 1.977 1.977 0 0 0 1.466-.814 2.195 2.195 0 0 0-.78-2.8 7.813 7.813 0 0 0-3-1.07c-2.146-.5-4.084.585-5.86-1.218" transform="translate(-263.57 -371)"/>
    </g>
    <g id="Group_13494" class="cls-10" transform="translate(93.434 210.647)">
        <path id="Path_43134" d="M175.13 360.043c5.019 4.386 12.109 4.575 18.493 2.691s11.948-5.429 17.37-9.3c-5.913 1.177-10.959 3.875-16.926 4.756-5.7.841-11.625.928-17.229-.976" transform="translate(-175.13 -353.43)"/>
    </g>
    <path id="Path_43135" d="M303.61 442.2a.392.392 0 0 1-.128.074 3.459 3.459 0 0 1-.4.182 5.951 5.951 0 0 1-1.635.4 9 9 0 0 1-5.873-1.574c-2.234-1.419-4.265-3.808-6.438-6.458a69.808 69.808 0 0 1-6.263-9.243 78.153 78.153 0 0 1-7.6-18.769c-.673-2.516-1.063-4.575-1.312-6.008-.108-.673-.2-1.245-.262-1.648a5.216 5.216 0 0 1-.067-.578 3.063 3.063 0 0 1 .141.565l.323 1.635c.289 1.419.74 3.471 1.413 5.967a81.608 81.608 0 0 0 7.662 18.662 72.047 72.047 0 0 0 6.216 9.216c2.146 2.651 4.151 5.039 6.317 6.452a9.015 9.015 0 0 0 5.752 1.648 8.145 8.145 0 0 0 2.146-.525z" class="cls-9" transform="translate(-113.935 -157.559)"/>
    <g id="Group_13495" class="cls-10" transform="translate(165.484 259.817)">
        <path id="Path_43136" d="M282.23 426.52s9.93 12.486 17.175 15.547c2.456 1.043 5.16 1.89 6.835 3.962a4.353 4.353 0 0 1 1.043 3.512 1.938 1.938 0 0 1-.135.431c-1.043 2.657-6.055 2.287-8.349.605-1-.733-.41-.262-1.218-.868-2.32-1.749-14.745-16.139-15.351-23.189z" transform="translate(-282.23 -426.52)"/>
    </g>
    <path id="Path_43137" d="M211.853 175.408l6.337-1.258 31.343.37 15.924 3.5 6.075 88.922-70.4 3.29z" class="cls-6" transform="translate(-90.205 -84.111)"/>
    <path id="Path_43138" d="M284.356 263.511l1.5-40.445-2.5-46.9c9.9 2.55 23.445 5.382 30.946 13.932a45.24 45.24 0 0 1 11.436 24.077c2.072 13.455 4.8 39.187 6.512 53.583" class="cls-8" transform="translate(-117.116 -84.772)"/>
    <path id="Path_43139" d="M250.2 256.456l-48.672 7.9L199.8 234.3l-2.69-59.42c-14.127.579-30.206 12.25-35.029 21.346-3.364 6.31-6.182 13.643-7.064 20.74-1.689 13.455-4.548 36.509-6.256 50.912a29.675 29.675 0 0 0 8.167 24.138c7.064 7.286 18.123 9.808 28.066 7.75l74.106-20.855z" class="cls-8" transform="translate(-72.999 -84.35)"/>
    <path id="Path_43140" d="M291.944 257.033a.675.675 0 0 1 .034-.168q.061-.182.141-.484c.141-.451.33-1.076.579-1.877.525-1.655 1.271-4.036 2.2-6.983l7.635-23.842.1.209-7.891-3.263-.309-.128.276-.182 1.823-1.2 5.954-3.888-.067.188c-3.027-10.508-5.691-19.778-7.609-26.445-.935-3.31-1.689-5.974-2.22-7.831-.242-.908-.437-1.615-.579-2.119q-.087-.33-.141-.545a.711.711 0 0 1-.04-.188.431.431 0 0 0 .067.175l.175.545c.155.5.37 1.2.639 2.1l2.321 7.8 7.716 26.418.034.121-.108.074-5.947 3.9-1.827 1.18v-.3l7.884 3.276.148.061-.047.148c-3.108 9.546-5.819 17.854-7.757 23.808-.975 2.947-1.749 5.308-2.294 6.949-.269.794-.484 1.419-.632 1.863-.067.2-.128.35-.168.478a.782.782 0 0 1-.09.15z" class="cls-9" transform="translate(-119.888 -85.466)"/>
    <g id="Group_13496" class="cls-10" transform="translate(171.525 130.006)">
        <path id="Path_43141" d="M302.505 233.56a7 7 0 0 1-2.449 3.68c-.928.531-.4 1.238.37 1.978.922.888 2.4 1.13 3.081 2.207s.3 2.307-.054 3.438a249.579 249.579 0 0 1-12.244 31.376l11.3-34.424-7.878-3.249z" transform="translate(-291.21 -233.56)"/>
    </g>
    <path id="Path_43142" d="M214.528 257.442a.593.593 0 0 1-.081-.141c-.047-.108-.114-.242-.188-.417l-.727-1.641c-.632-1.453-1.534-3.545-2.691-6.156l-9.075-21.272-.054-.121.114-.081 6.223-4.453v.256l-4.124-3.27-1.83-1.44-.908-.673-.222-.182a.777.777 0 0 1-.128-.114.545.545 0 0 1-.094-.188 2.531 2.531 0 0 1-.074-.612 34.732 34.732 0 0 1 .417-4.494c.41-2.913.895-5.712 1.346-8.376.955-5.321 1.9-10.091 2.691-14.127s1.494-7.245 1.971-9.479c.242-1.1.437-1.964.572-2.577l.155-.673a.806.806 0 0 1 .067-.222 1.239 1.239 0 0 1-.034.235 5.863 5.863 0 0 1-.121.673q-.182.922-.5 2.583c-.444 2.26-1.076 5.5-1.857 9.5s-1.7 8.793-2.637 14.127c-.464 2.657-.942 5.456-1.346 8.362a34.7 34.7 0 0 0-.41 4.44 2.018 2.018 0 0 0 .061.511c0 .081.2.2.336.323l.9.713 1.82 1.444 4.117 3.263.182.148-.188.135-6.23 4.44.054-.209 9.021 21.3c1.1 2.63 1.971 4.709 2.577 6.2.289.706.518 1.258.673 1.662l.161.431a1.088 1.088 0 0 1 .061.172z" class="cls-9" transform="translate(-90.055 -85.04)"/>
    <rect id="Rectangle_2362" width="52.863" height="72.615" class="cls-11" rx="2.41" transform="rotate(8.77 -816.535 932.827)"/>
    <g id="Group_13497" class="cls-10" transform="translate(121.609 135.402)">
        <rect id="Rectangle_2363" width="52.863" height="72.615" rx="2.41" transform="rotate(8.77 5.536 72.194)"/>
    </g>
    <path id="Rectangle_2364" d="M0 0H46.963V67.596H0z" class="cls-4" transform="rotate(8.77 -828.072 951.29)"/>
    <path id="Path_43143" d="M276.115 248.016a5.765 5.765 0 0 0-4.608-3.922l.39-2.859a3.956 3.956 0 0 0-3.3-4.507 3.956 3.956 0 0 0-4.514 3.3l-.457 2.96-1-.135a5.739 5.739 0 0 0-5.483 2.381l-.774 1.076 20.182 3.121zm-8.342-5.22a2.126 2.126 0 1 1 2.422-1.776 2.126 2.126 0 0 1-2.422 1.776z" class="cls-9" transform="translate(-108.283 -104.575)"/>
    <path id="Path_43144" d="M254.707 261.607a57.118 57.118 0 0 1-6.324-.794 59.258 59.258 0 0 1-6.263-1.144 57.141 57.141 0 0 1 6.317.794 59.213 59.213 0 0 1 6.27 1.144z" class="cls-9" transform="translate(-103.62 -112.099)"/>
    <path id="Path_43145" d="M247.7 263.754a13.039 13.039 0 0 1-3.061-.3 13.61 13.61 0 0 1-3.007-.639 13.966 13.966 0 0 1 3.061.3 13.61 13.61 0 0 1 3.007.639z" class="cls-9" transform="translate(-103.459 -113.129)"/>
    <path id="Path_43146" d="M276.2 277.156c0 .094-7.871-1.043-17.538-2.529s-17.491-2.785-17.491-2.879 7.864 1.036 17.538 2.53 17.504 2.777 17.491 2.878z" class="cls-9" transform="translate(-103.309 -116.049)"/>
    <path id="Path_43147" d="M275.429 282.119c0 .094-7.864-1.036-17.538-2.529s-17.491-2.779-17.491-2.873 7.864 1.036 17.538 2.53 17.505 2.778 17.491 2.872z" class="cls-9" transform="translate(-103.057 -117.676)"/>
    <path id="Path_43148" d="M274.669 287.086c0 .094-7.871-1.043-17.538-2.529s-17.491-2.785-17.491-2.879 7.871 1.036 17.545 2.53 17.498 2.777 17.484 2.878z" class="cls-9" transform="translate(-102.808 -119.299)"/>
    <path id="Path_43149" d="M273.9 292.046c0 .094-7.864-1.036-17.538-2.53s-17.491-2.778-17.491-2.879 7.864 1.043 17.538 2.536 17.531 2.779 17.491 2.873z" class="cls-9" transform="translate(-102.556 -120.922)"/>
    <path id="Path_43150" d="M273.129 297.009c0 .1-7.864-1.036-17.538-2.529s-17.491-2.78-17.491-2.873 7.864 1.036 17.538 2.53 17.511 2.778 17.491 2.872z" class="cls-9" transform="translate(-102.304 -122.549)"/>
    <path id="Path_43151" d="M272.369 301.976c0 .094-7.871-1.036-17.538-2.529s-17.491-2.778-17.491-2.879 7.864 1.036 17.538 2.53 17.505 2.784 17.491 2.878z" class="cls-9" transform="translate(-102.055 -124.172)"/>
    <path id="Path_43152" d="M254.184 303.751a3.046 3.046 0 0 1-.673-.04c-.451-.047-1.09-.128-1.884-.235-1.594-.215-3.787-.532-6.2-.9s-4.6-.733-6.182-1.009c-.794-.135-1.426-.256-1.87-.343a2.555 2.555 0 0 1-.673-.175 2.625 2.625 0 0 1 .673.04c.451.047 1.09.128 1.884.235 1.594.209 3.788.531 6.2.9s4.6.733 6.182 1.009c.794.135 1.426.256 1.87.343a2.562 2.562 0 0 1 .673.175z" class="cls-9" transform="translate(-101.846 -125.638)"/>
    <path id="Path_43153" d="M294.681 267.318a11.617 11.617 0 0 1-2.832-.262 11.487 11.487 0 0 1-2.778-.606 23.29 23.29 0 0 1 5.61.868z" class="cls-9" transform="translate(-118.985 -114.317)"/>
    <path id="Path_43154" d="M244.755 313.376a30.527 30.527 0 0 1-4.575-.532 30.112 30.112 0 0 1-4.521-.875 61.054 61.054 0 0 1 9.1 1.406z" class="cls-9" transform="translate(-101.506 -129.215)"/>
    <path id="Path_43155" d="M244.44 317.943a31.673 31.673 0 0 1-4.655-.545 30.014 30.014 0 0 1-4.595-.888 31.517 31.517 0 0 1 4.649.545 29.977 29.977 0 0 1 4.601.888z" class="cls-9" transform="translate(-101.352 -130.701)"/>
    <path id="Path_43156" d="M286.363 319.1a14.358 14.358 0 0 1-4.393-.673 7.4 7.4 0 0 1 2.227.161 6.888 6.888 0 0 1 2.166.512z" class="cls-9" transform="translate(-116.661 -131.321)"/>
    <path id="Path_43157" d="M285.963 323.2a14.353 14.353 0 0 1-4.393-.673 14.356 14.356 0 0 1 4.393.673z" class="cls-9" transform="translate(-116.53 -132.671)"/>
    <path id="Path_43158" d="M239.835 322.066a7.028 7.028 0 0 1-2.153-.155 6.666 6.666 0 0 1-2.092-.5 6.729 6.729 0 0 1 2.146.155 6.593 6.593 0 0 1 2.099.5z" class="cls-9" transform="translate(-101.483 -132.295)"/>
    <path id="Path_43159" d="M286.049 328.033a3.935 3.935 0 0 1-1.621-.074 3.887 3.887 0 0 1-1.567-.417 3.743 3.743 0 0 1 1.621.067 3.829 3.829 0 0 1 1.567.424z" class="cls-9" transform="translate(-116.953 -134.292)"/>
    <path id="Path_43160" d="M233.52 330.584a4.5 4.5 0 0 1 .794 0l2.233.067 7.979.316h.182l-.04.175a3.821 3.821 0 0 1-1.4 2.173 3.169 3.169 0 0 1-2.691.612 3.135 3.135 0 0 1-2.213-1.917 2.691 2.691 0 0 1 .821-2.906 2.47 2.47 0 0 1 1.063-.565 1.584 1.584 0 0 1 .3-.047 1.349 1.349 0 0 1 .33 0 .464.464 0 0 1 .343.255.721.721 0 0 1 .04.363 5.269 5.269 0 0 1-.733 2.126 5.384 5.384 0 0 1-1.487 1.574 3.364 3.364 0 0 1-2.018.673 1.89 1.89 0 0 1-1.615-1.164 2.832 2.832 0 0 1-.135-1.877 6.8 6.8 0 0 1 1.884-2.691l.182-.182v.256a4.588 4.588 0 0 1-.511 2.691 4.849 4.849 0 0 1-1.345 1.594 4.213 4.213 0 0 1-1.15.632 1.626 1.626 0 0 1-.444.108 5.422 5.422 0 0 0 1.511-.85 4.9 4.9 0 0 0 1.245-1.574 4.4 4.4 0 0 0 .437-2.583l.215.067a6.639 6.639 0 0 0-1.783 2.61 2.537 2.537 0 0 0 .135 1.675 1.574 1.574 0 0 0 1.345.969 2.972 2.972 0 0 0 1.776-.612 4.918 4.918 0 0 0 2.065-3.458.369.369 0 0 0 0-.182c0-.034 0-.047-.094-.06a1.591 1.591 0 0 0-.484.047 2.194 2.194 0 0 0-.915.484 2.375 2.375 0 0 0-.72 2.53 2.812 2.812 0 0 0 4.38 1.157 3.478 3.478 0 0 0 1.3-1.978l.141.182-7.911-.464-2.233-.148a6.325 6.325 0 0 1-.779-.078z" class="cls-9" transform="translate(-100.805 -134.32)"/>
    <path id="Path_43161" d="M279.039 336.892a1.885 1.885 0 0 1-.383.4 2.4 2.4 0 0 1-.572.363 1.292 1.292 0 0 1-.922.047.9.9 0 0 1-.471-.343 1.2 1.2 0 0 1-.188-.592 10.705 10.705 0 0 1 .094-1.285c.087-.915.188-1.917.3-3l.289.114-2.57 3.478-.639.861-.417.565.1-.673c.276-1.8.525-3.471.747-4.945l.249.135a15.764 15.764 0 0 0-2.765 3.027c-.565.814-.834 1.345-.868 1.305a1.453 1.453 0 0 1 .155-.383 11.139 11.139 0 0 1 .572-1.016 14.287 14.287 0 0 1 2.691-3.162l.3-.262-.06.4c-.2 1.467-.444 3.148-.673 4.951l-.316-.135.673-.861c.915-1.224 1.783-2.395 2.59-3.465l.357-.484-.067.6c-.128 1.083-.242 2.085-.35 2.994a11.509 11.509 0 0 0-.121 1.245.76.76 0 0 0 .484.76 1.467 1.467 0 0 0 1.345-.309 3.368 3.368 0 0 1 .436-.33z" class="cls-9" transform="translate(-113.078 -135.616)"/>
    <path id="Path_43162" d="M278.282 336.664a62.545 62.545 0 0 1-6.6.141 62.632 62.632 0 0 1-6.593-.2 61.343 61.343 0 0 1 6.593-.148 61.592 61.592 0 0 1 6.6.207z" class="cls-9" transform="translate(-111.137 -137.218)"/>
    <path id="Path_43163" d="M282.742 339.89a82.289 82.289 0 0 1-10.582 1.15 38.741 38.741 0 0 1 5.274-.753 39.376 39.376 0 0 1 5.308-.397z" class="cls-9" transform="translate(-113.451 -138.352)"/>
    <g id="Group_13498" class="cls-10" transform="translate(109.636 132.273)">
        <path id="Path_43164" d="M200.368 236.93a5.758 5.758 0 0 0 2.146 5.214 6.594 6.594 0 0 0-3.3 5.812 17.071 17.071 0 0 0 1.628 6.788c2.725 6.68 8.537 16.085 12.97 21.776 0 0-2.247-6.054-2.893-7.474-2.92-6.384-5.5-12.782-8.423-19.186-.323-.673-.9-2.637-.9-2.637a3.735 3.735 0 0 0 .875-.6c1.641-1.345 5.2-3.707 5.2-3.707s-7.306-5.786-7.306-5.987" transform="translate(-199.214 -236.93)"/>
    </g>
    <path id="Path_43165" d="M200.227 257.33c.094 0-.074 7.77-.383 17.343s-.632 17.336-.727 17.33.067-7.763.377-17.343.632-17.337.733-17.33z" class="cls-9" transform="translate(-89.538 -111.333)"/>
    <path id="Path_43166" d="M217.673 206.984H217c0-.256.976-25.705 1.736-35.836a5.227 5.227 0 0 1 1.769-3.74 8.175 8.175 0 0 1 5.382-1.554l-.054.673a7.626 7.626 0 0 0-4.884 1.393 4.615 4.615 0 0 0-1.541 3.283c-.74 10.056-1.702 35.497-1.735 35.781z" class="cls-9" transform="translate(-95.399 -81.391)"/>
    <path id="Path_43167" d="M226.791 280.4H225.6v-1.345h1.191a4.709 4.709 0 0 0 4.709-4.709V260.1h1.346v14.248a6.055 6.055 0 0 1-6.055 6.052z" class="cls-12" transform="translate(-98.213 -112.239)"/>
    <path id="Path_43168" d="M226.686 288.747a1.446 1.446 0 1 1-1.3-1.581 1.446 1.446 0 0 1 1.3 1.581z" class="cls-9" transform="translate(-97.624 -121.095)"/>
    <path id="Path_43169" d="M206.545 280.353h-1.191a6.055 6.055 0 0 1-6.054-6.053l.054-14.248h1.346l-.054 14.248a4.709 4.709 0 0 0 4.709 4.709h1.191z" class="cls-12" transform="translate(-89.606 -112.223)"/>
    <path id="Path_43170" d="M207.587 288.691a1.44 1.44 0 1 0 .322-1.057 1.44 1.44 0 0 0-.322 1.057z" class="cls-9" transform="translate(-92.316 -121.079)"/>
    <path id="Path_43171" d="M198.707 250.613l-.168-10.158c-.128-7.743 5.53-14.127 12.614-14.255a12.3 12.3 0 0 1 9.183 4 14.666 14.666 0 0 1 3.9 9.829l.168 10.165-2.018.034-.168-10.165a12.627 12.627 0 0 0-3.364-8.483 10.225 10.225 0 0 0-7.676-3.364c-5.974.1-10.764 5.57-10.629 12.2l.168 10.158z" class="cls-9" transform="translate(-89.356 -101.145)"/>
    <path id="Path_43172" d="M280.407 206.409c0-.269-3.088-26.714-3.976-35.191l-.061-.619c-.276-2.879-.6-6.135-3.781-7l.175-.673c3.633.982 3.989 4.642 4.279 7.582l.061.612c.881 8.476 3.942 34.922 3.969 35.191z" class="cls-9" transform="translate(-113.592 -80.439)"/>
    <circle id="Ellipse_523" cx="7.218" cy="7.218" r="7.218" class="cls-9" transform="rotate(-45 225.062 -128.733)"/>
    <path id="Path_43173" d="M286.493 219.122a3.485 3.485 0 1 1-1.018-2.469 3.491 3.491 0 0 1 1.018 2.469z" class="cls-12" transform="translate(-115.856 -97.686)"/>
    <path id="Path_43174" d="M216.862 296.58l-9.062 22.288 72.285 20.041a23.182 23.182 0 0 0 19.55-3.364c7.561-5.335 9.418-14.665 8.5-23.9l-1.305-9.822z" class="cls-8" transform="translate(-92.388 -124.178)"/>
    <path id="Path_43175" d="M327.108 322.755c-.074 0-.229-1.52-.976-3.868a19.5 19.5 0 0 0-.673-1.89c-.256-.673-.612-1.346-.969-2.1a27.948 27.948 0 0 0-2.913-4.406 28.3 28.3 0 0 0-3.74-3.727c-.673-.491-1.251-.982-1.863-1.345a19.485 19.485 0 0 0-1.715-1.056c-2.153-1.191-3.626-1.648-3.6-1.722a5.6 5.6 0 0 1 1.029.316 10.231 10.231 0 0 1 1.177.464c.451.209.975.417 1.514.727a17.9 17.9 0 0 1 1.756 1.029c.626.377 1.245.868 1.9 1.346a27.371 27.371 0 0 1 3.814 3.754 26.868 26.868 0 0 1 2.92 4.48c.357.747.706 1.446.955 2.139a17.7 17.7 0 0 1 .673 1.924 14.072 14.072 0 0 1 .41 1.628 8.323 8.323 0 0 1 .222 1.271 5.7 5.7 0 0 1 .079 1.036z" class="cls-9" transform="translate(-126.051 -126.161)"/>
    <g id="Group_13499" class="cls-10" transform="translate(89.352 163.387)">
        <path id="Path_43176" d="M193.508 301.68c-5.516.457-9.775.962-15.473 1.662-3.559.437-7.252.188-8.416-3.2a12.236 12.236 0 0 1 1.487-10.293c1.911-3.034 4.911-10.091 20.976-4.709z" transform="translate(-169.063 -283.18)"/>
    </g>
    <path id="Path_43177" d="M216.46 305.028l.04-.148.155-.444.605-1.7 2.321-6.263.034-.087h.087l24.588 2.227 23.788 2.26 7.205.72 1.958.215.5.067a.547.547 0 0 1 .175.034h-.686l-1.964-.148-7.218-.619-23.795-2.153-24.575-2.334.121-.081-2.422 6.229-.673 1.668-.182.431c-.028.086-.055.133-.062.126z" class="cls-9" transform="translate(-95.222 -124.116)"/>
    <g id="Group_13500" class="cls-10" transform="translate(150.98 192.496)">
        <path id="Path_43178" d="M260.67 337.853c10.266 2.751 16.509 1.157 25.833-3.942a50.152 50.152 0 0 0 5.489-3.727 19.839 19.839 0 0 0 3.518-3.734c-12.008 4.595-21.985 8.073-34.363 11.531" transform="translate(-260.67 -326.45)"/>
    </g>
    <path id="Path_43179" d="M202.136 298.3l2.348-6.559-5.456-8.53a6.438 6.438 0 0 0-4.225-2.859l-20.074-3.788a3.236 3.236 0 0 0 1.7 3.949c2.63 1.5 14.464 4.252 14.464 4.252l-18.224-.309s-.565 2.63 1.5 3.572 15.049 1.419 15.049 1.419l-16.623 2.341s-.094 2.637 3.707 2.691a109.966 109.966 0 0 0 11.2-.706.6.6 0 0 1 .673.491.6.6 0 0 1-.451.673l-11.053 2.61a1.48 1.48 0 0 0-.108 2.859 1.812 1.812 0 0 0 .612.04c1.884-.188 13.132-1.615 13.132-1.615l.585 1.312 11.248-1.83" class="cls-13" transform="translate(-80.865 -117.626)"/>
    <path id="Path_43180" d="M200.673 304.781a3.754 3.754 0 0 0-.619-1 2.738 2.738 0 0 0-1.063-.673 4.135 4.135 0 0 0-1.534-.168c-1.117.081-2.126.4-2.879.5a2.628 2.628 0 0 1-1.238 0 10.354 10.354 0 0 1 1.191-.262 18.124 18.124 0 0 1 2.906-.605 4.1 4.1 0 0 1 1.668.215 2.873 2.873 0 0 1 1.13.794 1.419 1.419 0 0 1 .437 1.2z" class="cls-14" transform="translate(-87.656 -126.136)"/>
    <path id="Path_43181" d="M200.967 297.378c-.034 0-.054-.182-.2-.471a2.314 2.314 0 0 0-.955-.942c-1.016-.592-2.731-.4-4.534-.276s-3.458.39-4.649.545a11.216 11.216 0 0 1-1.937.2 9.8 9.8 0 0 1 1.9-.437 46.648 46.648 0 0 1 4.655-.673 25.089 25.089 0 0 1 2.6-.1 4.129 4.129 0 0 1 2.092.511 2.234 2.234 0 0 1 .955 1.1.888.888 0 0 1 .073.543z" class="cls-14" transform="translate(-86.134 -123.732)"/>
    <path id="Path_43182" d="M204.52 292.276a3.282 3.282 0 0 0-.424-1.52 3.45 3.45 0 0 0-1.211-1.177 5.383 5.383 0 0 0-2.018-.592c-1.507-.141-2.92 0-3.949-.081a3.525 3.525 0 0 1-1.608-.39c0-.054.619.128 1.621.148a35.234 35.234 0 0 1 3.976 0 5.06 5.06 0 0 1 2.133.673 3.473 3.473 0 0 1 1.265 1.346 2.415 2.415 0 0 1 .3 1.2 1.092 1.092 0 0 1-.085.393z" class="cls-14" transform="translate(-88.3 -121.535)"/>
    <path id="Path_43183" d="M305.87 280.783a6.2 6.2 0 0 1 .1-1.09c.087-.673.256-1.709.491-2.947.464-2.476 1.285-5.859 2.153-9.593a86.419 86.419 0 0 0 1.756-9.647c.081-.626.114-1.191.161-1.689s.074-.922.087-1.278a5.759 5.759 0 0 1 .094-1.09 6.687 6.687 0 0 1 .04 1.1v1.285a14.709 14.709 0 0 1-.114 1.7 71.244 71.244 0 0 1-1.655 9.708c-.875 3.74-1.729 7.1-2.254 9.566-.262 1.224-.471 2.227-.6 2.913a6.778 6.778 0 0 1-.262 1.07z" class="cls-9" transform="translate(-124.483 -110.063)"/>
    <path id="Path_43184" d="M297.835 354.548a1.344 1.344 0 0 1-.4-.067l-1.117-.249-4.09-1.009c-3.451-.868-8.207-2.126-13.455-3.579s-9.95-2.846-13.347-3.888l-4.036-1.251-1.09-.363a1.528 1.528 0 0 1-.3-.142 1.457 1.457 0 0 1 .39.081l1.11.3 4.036 1.15 13.374 3.787 13.381 3.673 4.036 1.11 1.1.316a2.018 2.018 0 0 1 .408.131z" class="cls-9" transform="translate(-109.471 -139.697)"/>
    <path id="Path_43185" d="M213.3 60.05c1.48-4.568 9.062-8.692 13.219-11.087 6.223-3.572 11.988-2.859 15.54.323 6.418-5.382 14.874-10.562 22.981-8.443s14.693 10.421 13.212 18.675c-.868 4.864-4.238 9.223-4.036 14.127.135 3.364 1.917 6.4 3.364 9.459s2.509 6.606 1.245 9.728c-1.177 2.9-4.117 4.709-5.7 7.4-1.292 2.207-1.588 4.83-2.415 7.245-3.054 8.947-13.616 13.966-22.94 12.392s-17.094-8.591-21.527-16.96-5.859-17.975-6.371-27.414" class="cls-9" transform="translate(-94.188 -40.325)"/>
    <path id="Path_43186" d="M223.51 74.275l1.863 74.606c.673 8.55 8.55 14.8 17.7 14.006 9.237-.794 16.294-8.443 15.762-17.094-.558-9.075-.976-18.648-.976-18.648s11.564-2.691 13-18.11c.733-7.9-.545-20.855-1.884-31.121a15.3 15.3 0 0 0-17.76-13.132" class="cls-13" transform="translate(-97.529 -48.246)"/>
    <path id="Path_43187" d="M284.106 100a1.951 1.951 0 0 1-1.756 2.092 1.87 1.87 0 0 1-2.132-1.628 1.964 1.964 0 0 1 1.756-2.1 1.877 1.877 0 0 1 2.132 1.636z" class="cls-9" transform="translate(-116.086 -59.301)"/>
    <path id="Path_43188" d="M285.124 96.951c-.229.269-1.783-.733-3.888-.592s-3.579 1.292-3.821 1.049c-.121-.108.094-.579.733-1.117a5.381 5.381 0 0 1 3.047-1.157 5.194 5.194 0 0 1 3.108.787c.68.465.929.902.821 1.03z" class="cls-9" transform="translate(-115.16 -58.248)"/>
    <path id="Path_43189" d="M254.106 103.135a1.951 1.951 0 0 1-1.756 2.1 1.877 1.877 0 0 1-2.133-1.635 1.964 1.964 0 0 1 1.756-2.1 1.877 1.877 0 0 1 2.133 1.635z" class="cls-9" transform="translate(-106.268 -60.329)"/>
    <path id="Path_43190" d="M254.394 99.521c-.229.269-1.783-.733-3.888-.592s-3.579 1.292-3.821 1.049c-.121-.108.094-.579.74-1.117a5.382 5.382 0 0 1 3.041-1.157 5.193 5.193 0 0 1 3.108.787c.712.458.926.902.82 1.03z" class="cls-9" transform="translate(-105.103 -59.089)"/>
    <path id="Path_43191" d="M269.963 114.377a14.74 14.74 0 0 1 3.364-.834c.531-.087 1.036-.229 1.1-.605a2.724 2.724 0 0 0-.464-1.567c-.585-1.271-1.2-2.6-1.85-3.989-2.583-5.691-4.494-10.38-4.265-10.481s2.509 4.427 5.1 10.091c.619 1.4 1.218 2.738 1.783 4.036a3.074 3.074 0 0 1 .417 2.092 1.346 1.346 0 0 1-.834.841 3.364 3.364 0 0 1-.9.182 13.2 13.2 0 0 1-3.451.234z" class="cls-9" transform="translate(-112.035 -58.829)"/>
    <path id="Path_43192" d="M264.468 155.541a38.9 38.9 0 0 1-20.787-4.131s5.779 10.273 20.956 7.858z" class="cls-14" transform="translate(-104.13 -76.669)"/>
    <path id="Path_43193" d="M253.533 87.439c-.175.585-2.294.451-4.743.908s-4.406 1.258-4.77.767c-.161-.235.155-.8.922-1.406a8.4 8.4 0 0 1 7.245-1.278c.928.309 1.413.733 1.346 1.009z" class="cls-9" transform="translate(-104.228 -55.295)"/>
    <path id="Path_43194" d="M283.648 87.9c-.336.5-1.823.1-3.565.188s-3.2.531-3.572.054c-.168-.235 0-.727.673-1.224a5.167 5.167 0 0 1 5.752-.188c.611.45.864.927.712 1.17z" class="cls-9" transform="translate(-114.855 -55.244)"/>
    <path id="Path_43195" d="M265.276 128.763a6.414 6.414 0 0 1 3.868 1.345 2.415 2.415 0 0 1 1 .982 2.086 2.086 0 0 1-.209 1.83 3.68 3.68 0 0 1-3.492 1.864 3.364 3.364 0 0 1-2.926-2.59 3.155 3.155 0 0 1 1.763-3.444" class="cls-14" transform="translate(-110.603 -69.253)"/>
    <path id="Path_43196" d="M270.575 131.908c0 .161-.525.4-1.446.35a7.837 7.837 0 0 1-3.3-1.076 9.17 9.17 0 0 1-2.644-2.213c-.545-.673-.713-1.265-.572-1.345.276-.182 1.662 1.271 3.841 2.469a16.667 16.667 0 0 0 2.832 1.3c.758.252 1.269.34 1.289.515z" class="cls-9" transform="translate(-110.312 -68.879)"/>
    <circle id="Ellipse_524" cx=".558" cy=".558" r=".558" class="cls-14" transform="translate(149.311 48.781)"/>
    <path id="Path_43197" d="M282.807 109.308a.558.558 0 1 1-.558-.558.558.558 0 0 1 .558.558z" class="cls-14" transform="translate(-116.57 -62.708)"/>
    <path id="Path_43198" d="M287.392 111.5a.565.565 0 1 1-.562-.5.565.565 0 0 1 .562.5z" class="cls-14" transform="translate(-118.067 -63.441)"/>
    <path id="Path_43199" d="M288.787 108a.558.558 0 1 1-.558-.558.558.558 0 0 1 .558.558z" class="cls-14" transform="translate(-118.527 -62.279)"/>
    <path id="Path_43200" d="M255.5 117.048a.565.565 0 1 1-.565-.558.565.565 0 0 1 .565.558z" class="cls-14" transform="translate(-107.629 -65.24)"/>
    <path id="Path_43201" d="M252.387 113.728a.558.558 0 1 1-.558-.558.558.558 0 0 1 .558.558z" class="cls-14" transform="translate(-106.614 -64.154)"/>
    <path id="Path_43202" d="M256.994 99.152a15.44 15.44 0 0 0-.37-2.355 9.667 9.667 0 0 0-3.539-5.267 9.465 9.465 0 0 0-4.036-1.776 9.607 9.607 0 0 0-5.019.424 8.941 8.941 0 0 0-2.408 1.305A9.152 9.152 0 0 0 239.6 93.5a9.526 9.526 0 0 0 0 11.282 9.5 9.5 0 0 0 9.445 3.787 9.465 9.465 0 0 0 4.036-1.776 9.681 9.681 0 0 0 3.539-5.261 15.7 15.7 0 0 0 .37-2.355.407.407 0 0 1 0 .155v.468a4.793 4.793 0 0 1-.061.753 6.577 6.577 0 0 1-.182 1.009 9.17 9.17 0 0 1-1.049 2.624 9.788 9.788 0 0 1-11.786 4.265 9.418 9.418 0 0 1-2.5-1.345 9.217 9.217 0 0 1-2.092-2.092 9.808 9.808 0 0 1 0-11.685 9.217 9.217 0 0 1 2.092-2.092 9.418 9.418 0 0 1 2.5-1.345 9.81 9.81 0 0 1 11.788 4.261 9.242 9.242 0 0 1 1.049 2.624 6.515 6.515 0 0 1 .182 1.016 4.672 4.672 0 0 1 .061.747V99a.432.432 0 0 1 .002.152z" class="cls-6" transform="translate(-102.072 -56.345)"/>
    <path id="Path_43203" d="M270.611 99.258a7.651 7.651 0 0 0-2.3-.269 8.006 8.006 0 0 0-2.2.74 1.7 1.7 0 0 1 .518-.511 3.748 3.748 0 0 1 1.641-.579 3.626 3.626 0 0 1 1.736.229c.416.168.625.349.605.39z" class="cls-6" transform="translate(-111.471 -59.391)"/>
    <path id="Path_43204" d="M243.249 59.513A32.562 32.562 0 0 1 221.2 86.3c3.761 5.422 1.393 15.742 1.487 24.353.094 8.006.087 10.293-5.1 14.376-4.285 1.029-6.727-10.71-9.943-13.993s-6.236-7.326-6-11.887c.114-2.139.949-4.184 1.063-6.317.135-2.368-.626-4.709-1.043-7.017-1.857-10.326 3.471-21.433 12.493-26.835s21-5.039 29.93.484" class="cls-9" transform="translate(-90.259 -45.156)"/>
    <path id="Path_43205" d="M210.431 127.082a29.465 29.465 0 0 0-5.644-10.723l.2.417a13.206 13.206 0 1 0-20.342 15.624 3.06 3.06 0 0 0-3.364 2.482 5.752 5.752 0 0 0 1.137 4.386 10.856 10.856 0 0 0 14.8 2.523c3.566 2.415 8.833 1.009 11.477-2.388s2.954-8.19 1.736-12.321z" class="cls-9" transform="translate(-83.186 -62.748)"/>
    <path id="Path_43206" d="M203.31 93.306a3.289 3.289 0 0 1-.384-.431 4.493 4.493 0 0 1-.673-1.487 8.878 8.878 0 0 1 .888-5.92 11.685 11.685 0 0 1 2.435-3.411 22.826 22.826 0 0 1 3.66-3.115 19.194 19.194 0 0 1 4.756-2.381c1.742-.6 3.592-1.063 5.476-1.534s3.727-.935 5.449-1.541a33.508 33.508 0 0 0 4.823-2.1 35.781 35.781 0 0 0 7.26-5.11 36.709 36.709 0 0 0 4.09-4.406c.444-.558.767-1.009.989-1.345a3.087 3.087 0 0 1 .357-.444 4.084 4.084 0 0 1-.3.484c-.208.316-.511.78-.942 1.345a33.428 33.428 0 0 1-4.036 4.507 35.461 35.461 0 0 1-7.292 5.22 33.774 33.774 0 0 1-4.864 2.133c-1.742.612-3.592 1.083-5.476 1.561s-3.727.928-5.456 1.514a19.253 19.253 0 0 0-4.709 2.321 23.607 23.607 0 0 0-3.633 3.054 11.571 11.571 0 0 0-2.368 3.37 8.815 8.815 0 0 0-.975 5.779 5.282 5.282 0 0 0 .925 1.937z" class="cls-12" transform="translate(-90.508 -46.779)"/>
    <path id="Path_43207" d="M242.035 60.13a3.631 3.631 0 0 1-.316.383c-.215.249-.545.6-.969 1.049a42.718 42.718 0 0 1-3.882 3.532 27.159 27.159 0 0 1-6.674 4.036 25.7 25.7 0 0 1-4.454 1.2c-1.567.316-3.2.558-4.871.814a54.162 54.162 0 0 0-9.277 1.944 20.391 20.391 0 0 0-6.727 3.72 13.273 13.273 0 0 0-3.243 4.036 12.971 12.971 0 0 0-.558 1.305 2.208 2.208 0 0 1-.2.457 3.535 3.535 0 0 1 .128-.478 9.594 9.594 0 0 1 .5-1.345 12.835 12.835 0 0 1 3.2-4.157 20.182 20.182 0 0 1 6.774-3.835 53.28 53.28 0 0 1 9.324-2.018c1.675-.249 3.3-.5 4.857-.8a25.882 25.882 0 0 0 4.406-1.171 27.582 27.582 0 0 0 6.633-3.922 48.891 48.891 0 0 0 3.949-3.424l1.016-1a2.481 2.481 0 0 1 .384-.326z" class="cls-12" transform="translate(-90.12 -46.796)"/>
    <path id="Path_43208" d="M279.049 40.337c0 .074-1.312.121-3.364.673a15.748 15.748 0 0 0-1.642.525c-.585.2-1.177.484-1.816.767a20.369 20.369 0 0 0-7.01 5.57c-.417.558-.834 1.07-1.157 1.6a14.909 14.909 0 0 0-.881 1.473c-.989 1.857-1.345 3.135-1.4 3.108a4.344 4.344 0 0 1 .229-.888 7.666 7.666 0 0 1 .363-1.023 12.439 12.439 0 0 1 .592-1.345 13.234 13.234 0 0 1 .854-1.52c.316-.538.727-1.07 1.144-1.641a22 22 0 0 1 3.236-3.249 21.535 21.535 0 0 1 3.9-2.408 17.54 17.54 0 0 1 1.857-.747 17.011 17.011 0 0 1 3.081-.767 7.4 7.4 0 0 1 1.076-.128 4.037 4.037 0 0 1 .938 0z" class="cls-12" transform="translate(-110.054 -40.309)"/>
    <path id="Path_43209" d="M290.6 104.617s0-.047.1-.135l.316-.37c.283-.33.706-.807 1.184-1.473a8.268 8.268 0 0 0 1.345-2.617 4.705 4.705 0 0 0 .141-1.81 5.174 5.174 0 0 0-.673-1.917 34.76 34.76 0 0 0-3.007-3.713 21.723 21.723 0 0 1-4.554-10.629 44.145 44.145 0 0 1-.161-6.559 22.819 22.819 0 0 0-.6-6.451 13.273 13.273 0 0 0-7.292-8.382 12.224 12.224 0 0 0-4.6-1.063 13.455 13.455 0 0 0-8.288 2.442l-.4.283c-.087.061-.135.094-.141.087a9.606 9.606 0 0 1 2.092-1.467 13.455 13.455 0 0 1 6.727-1.594 12.552 12.552 0 0 1 4.711 1.041 13.508 13.508 0 0 1 7.508 8.564 23.131 23.131 0 0 1 .612 6.546 44.283 44.283 0 0 0 .155 6.512 21.446 21.446 0 0 0 4.452 10.488 33.445 33.445 0 0 1 3 3.774 5.3 5.3 0 0 1 .673 2.018 4.84 4.84 0 0 1-.175 1.89 8.154 8.154 0 0 1-1.433 2.644 16.606 16.606 0 0 1-1.238 1.44l-.35.35a.589.589 0 0 1-.104.101z" class="cls-12" transform="translate(-110.771 -46.505)"/>
    <path id="Path_43210" d="M291.7 95.617a15.576 15.576 0 0 0-.37-2.355 9.565 9.565 0 0 0-17.02-3.249 9.513 9.513 0 0 0 0 11.275 8.9 8.9 0 0 0 2.018 2.018 9.1 9.1 0 0 0 2.408 1.3 9.62 9.62 0 0 0 12.594-6.613 15.569 15.569 0 0 0 .37-2.355.434.434 0 0 1 0 .161v.457a4.708 4.708 0 0 1-.061.754 6.8 6.8 0 0 1-.182 1.015 9.245 9.245 0 0 1-1.049 2.624 9.792 9.792 0 0 1-11.786 4.258 9.177 9.177 0 0 1-2.5-1.345 9.42 9.42 0 0 1-2.092-2.1 9.8 9.8 0 0 1 0-11.679 9.219 9.219 0 0 1 2.092-2.092 9.419 9.419 0 0 1 2.5-1.345 9.757 9.757 0 0 1 11.786 4.3 9.141 9.141 0 0 1 1.049 2.617 6.793 6.793 0 0 1 .182 1.016 4.7 4.7 0 0 1 .061.753v.468a.409.409 0 0 1 0 .117z" class="cls-6" transform="translate(-113.431 -55.185)"/>
    <path id="Path_43211" d="M218.319 142.88a1.5 1.5 0 0 1-.33-.222c-.209-.155-.5-.39-.895-.673a27.956 27.956 0 0 1-3.054-2.846 11.046 11.046 0 0 1-2.879-5.463 26.087 26.087 0 0 1-.161-3.66 6.331 6.331 0 0 0-1.049-3.606 22.146 22.146 0 0 0-2.63-2.852 10.709 10.709 0 0 1-2.166-2.98 13.206 13.206 0 0 1-1.049-3.162 12.628 12.628 0 0 1-.276-2.886 17.817 17.817 0 0 1 .289-2.361 8.011 8.011 0 0 0 .04-1.769c-.114-.969-.3-1.487-.269-1.5a1.934 1.934 0 0 1 .148.37 7.769 7.769 0 0 1 .256 1.11 7.576 7.576 0 0 1 0 1.81c-.061.673-.222 1.48-.242 2.348a13.912 13.912 0 0 0 1.345 5.9 10.426 10.426 0 0 0 2.119 2.879 21.743 21.743 0 0 1 2.691 2.893 5.852 5.852 0 0 1 .854 1.85 8.9 8.9 0 0 1 .249 1.94 27.23 27.23 0 0 0 .141 3.619 10.952 10.952 0 0 0 2.738 5.381 31.307 31.307 0 0 0 2.967 2.9l.915.7a1.9 1.9 0 0 1 .249.276z" class="cls-12" transform="translate(-91.088 -62.757)"/>
    <path id="Path_43212" d="M204.4 136.12a1.087 1.087 0 0 1 0 .276 4.75 4.75 0 0 1-.054.787 12.557 12.557 0 0 1-.673 2.832 13.825 13.825 0 0 1-15.244 9.129 12.7 12.7 0 0 1-2.805-.76c-.323-.121-.558-.256-.72-.33s-.242-.128-.235-.141a19.893 19.893 0 0 0 3.794.989 14.557 14.557 0 0 0 4.232-.074 13.414 13.414 0 0 0 8.692-5.2 14.533 14.533 0 0 0 2.059-3.693 20.7 20.7 0 0 0 .954-3.815z" class="cls-12" transform="translate(-84.818 -71.665)"/>
    <path id="Path_43213" d="M201.183 131.42a3.952 3.952 0 0 1-.2.922 13.325 13.325 0 0 1-.949 2.388 15.514 15.514 0 0 1-5.732 6.142 16.717 16.717 0 0 1-8.073 2.368 15.466 15.466 0 0 1-2.563-.135 4.232 4.232 0 0 1-.922-.188 34.457 34.457 0 0 0 3.478.074 17.242 17.242 0 0 0 7.9-2.422 15.957 15.957 0 0 0 5.691-5.96 26.426 26.426 0 0 0 1.359-3.189z" class="cls-12" transform="translate(-84.19 -70.127)"/>
    <path id="Path_43214" d="M180.9 120.658a2.537 2.537 0 0 1 .605-.35 5.751 5.751 0 0 1 .747-.336 9.488 9.488 0 0 1 1.029-.363 14.124 14.124 0 0 1 2.778-.538 16.3 16.3 0 0 1 3.465.067 16.577 16.577 0 0 1 3.364.841 14.019 14.019 0 0 1 2.529 1.278 8.91 8.91 0 0 1 .881.632 4.992 4.992 0 0 1 .626.531 2.894 2.894 0 0 1 .478.511c-.047.054-.753-.673-2.119-1.467a15.18 15.18 0 0 0-2.509-1.184 18.2 18.2 0 0 0-3.3-.794 17.737 17.737 0 0 0-3.364-.1 15.384 15.384 0 0 0-2.738.464c-1.557.404-2.405.868-2.472.808z" class="cls-12" transform="translate(-83.584 -66.065)"/>
    <path id="Path_43215" d="M194.812 111.641c-.061.074-4.306-3.532-9.472-8.073s-9.311-8.234-9.25-8.308 4.306 3.539 9.479 8.073 9.297 8.24 9.243 8.308z" class="cls-11" transform="translate(-82.01 -58.292)"/>
    <path id="Path_43216" d="M232.73 107.41a6.159 6.159 0 0 1 3.216-2.57 12.323 12.323 0 0 1-1.615 1.278 13.329 13.329 0 0 1-1.6 1.292z" class="cls-6" transform="translate(-100.547 -61.428)"/>
    <path id="Path_43217" d="M204.215 96.627a.832.832 0 0 1-.087-.135c-.061-.114-.135-.249-.229-.41a5.975 5.975 0 0 1-.525-1.722 8.611 8.611 0 0 1 1.776-6.26 9.909 9.909 0 0 1 1.5-1.621 11.986 11.986 0 0 1 1.978-1.345 17.443 17.443 0 0 1 4.965-1.709c3.639-.76 7.736-.579 11.907-1.2a18.333 18.333 0 0 0 5.86-1.81 17.49 17.49 0 0 0 4.494-3.5 27.668 27.668 0 0 0 5.207-8.154c1.1-2.55 1.8-4.709 2.3-6.162l.572-1.7.155-.437a.91.91 0 0 1 .061-.148v.155l-.121.451-.558 1.749a62.259 62.259 0 0 1-2.2 6.216 27.487 27.487 0 0 1-5.2 8.281 17.638 17.638 0 0 1-4.588 3.552 18.446 18.446 0 0 1-5.947 1.857c-4.225.632-8.3.431-11.9 1.171s-6.687 2.24-8.308 4.5a8.557 8.557 0 0 0-1.83 6.055 7.733 7.733 0 0 0 .718 2.326z" class="cls-3" transform="translate(-90.922 -46.858)"/>
    <path id="Path_43218" d="M198.759 140.647a9.978 9.978 0 0 1-.807 2.691 12.54 12.54 0 0 1-1.752 2.862 11.8 11.8 0 0 1-3.4 2.866 11.14 11.14 0 0 1-5.207 1.345 10.158 10.158 0 0 1-5.907-1.729 9.889 9.889 0 0 1-3.915-5.537 8.591 8.591 0 0 1-.2-3.639 8.826 8.826 0 0 1 1.406-3.485 8.423 8.423 0 0 1 5-3.539v.336a13.5 13.5 0 0 1-5.772-2.348 11.093 11.093 0 0 1-3.673-4.406 10.373 10.373 0 0 1-.895-5.066 8.591 8.591 0 0 1 1.46-4.191 8.745 8.745 0 0 1 2.691-2.489 8.28 8.28 0 0 1 2.55-.982 7.083 7.083 0 0 1 1.709-.128l.437.047a.5.5 0 0 1 .148 0 8.9 8.9 0 0 0-2.274.175 8.167 8.167 0 0 0-2.476 1.016 8.577 8.577 0 0 0-2.57 2.462 8.361 8.361 0 0 0-1.379 4.083 10.192 10.192 0 0 0 .9 4.918 10.838 10.838 0 0 0 3.586 4.265 13.388 13.388 0 0 0 5.638 2.281l.868.135-.854.2a8.073 8.073 0 0 0-4.79 3.4 8.477 8.477 0 0 0-1.345 3.364 8.382 8.382 0 0 0 .188 3.5 9.573 9.573 0 0 0 3.774 5.382 9.9 9.9 0 0 0 5.718 1.7 10.892 10.892 0 0 0 5.093-1.285 11.631 11.631 0 0 0 3.364-2.765 12.91 12.91 0 0 0 1.789-2.792 15.171 15.171 0 0 0 .747-1.964c.06-.215.108-.39.141-.531z" class="cls-9" transform="translate(-81.194 -64.163)"/>
    <path id="Path_43219" d="M201.481 93.117a.62.62 0 0 1-.162-.074l-.471-.249a12.455 12.455 0 0 1-1.675-1.15 13.935 13.935 0 0 1 .39-21.958 19.691 19.691 0 0 1 6.317-3.095 35.353 35.353 0 0 1 6.963-1.231c2.26-.215 4.44-.316 6.512-.457a57.108 57.108 0 0 0 5.853-.673 26.626 26.626 0 0 0 4.931-1.345 17.679 17.679 0 0 0 6.2-3.909 15.146 15.146 0 0 0 1.3-1.541l.309-.424a.716.716 0 0 1 .114-.141 10.338 10.338 0 0 1-1.628 2.2 17.215 17.215 0 0 1-6.23 4.036 26.47 26.47 0 0 1-4.971 1.393 55.972 55.972 0 0 1-5.88.673c-4.137.33-8.746.363-13.354 1.729a19.623 19.623 0 0 0-6.209 3.027 13.791 13.791 0 0 0-4.709 15.554 14.222 14.222 0 0 0 4.171 6 13.764 13.764 0 0 0 1.628 1.2l.444.276a.827.827 0 0 1 .157.159z" class="cls-9" transform="translate(-87.879 -45.729)"/>
    <path id="Path_43220" d="M309.681 80.245a.868.868 0 0 1-.626.309 1.742 1.742 0 0 1-1.641-1.07 1.587 1.587 0 0 1 .094-1.467 2.731 2.731 0 0 1 1.345-1.137 4.272 4.272 0 0 1 4.11.673 4.413 4.413 0 0 1 1.527 1.971 4.662 4.662 0 0 1 .188 2.691 4.44 4.44 0 0 1-1.493 2.482 5.341 5.341 0 0 1-2.832 1.2 7.44 7.44 0 0 1-5.987-2.355 8.418 8.418 0 0 1-1.917-2.913 6.639 6.639 0 0 1-.336-3.572 15.716 15.716 0 0 1 1.09-3.4c.451-1.076.868-2.139 1.218-3.2a26.972 26.972 0 0 0 1.345-6.31 19.058 19.058 0 0 0-.35-5.8 15.031 15.031 0 0 0-1.917-4.709 13.232 13.232 0 0 0-5.382-4.911 12.221 12.221 0 0 0-1.877-.673l-.511-.128a.605.605 0 0 1-.168-.061h.175l.518.094a10.453 10.453 0 0 1 1.924.639 13.145 13.145 0 0 1 5.51 4.911 15.109 15.109 0 0 1 2.018 4.709 19.2 19.2 0 0 1 .39 5.893 27.113 27.113 0 0 1-1.345 6.391c-.35 1.076-.774 2.153-1.224 3.222a16 16 0 0 0-1.063 3.364 6.3 6.3 0 0 0 .323 3.364 7.944 7.944 0 0 0 1.837 2.8 7.124 7.124 0 0 0 5.7 2.281 5.066 5.066 0 0 0 2.691-1.117 4.144 4.144 0 0 0 1.413-2.307 4.453 4.453 0 0 0-.155-2.543 4.271 4.271 0 0 0-1.426-1.877 4.036 4.036 0 0 0-3.888-.673 2.53 2.53 0 0 0-1.271 1.036 1.446 1.446 0 0 0-.121 1.345 1.675 1.675 0 0 0 1.514 1.049 1.21 1.21 0 0 0 .6-.201z" class="cls-9" transform="translate(-121.109 -42.78)"/>
    <g id="Group_13501" class="cls-10" transform="translate(182.696 167.71)">
        <path id="Path_43221" d="M309.4 311.614c3.27-.922 6.66 2.018 9.977 1.258 2.018-.471 3.539-2.274 4.454-4.164s1.406-3.976 2.375-5.846 2.583-3.586 4.669-3.875c1.911-.256 4.178.639 5.6-.673a3.185 3.185 0 0 0 .074-4.084 9.274 9.274 0 0 0-3.6-2.57 20.479 20.479 0 0 0-4.649-1.843 6.863 6.863 0 0 0-4.864.565c-2.8 1.628-3.364 5.321-4.178 8.456a16.938 16.938 0 0 1-2.745 6.129 9.1 9.1 0 0 1-5.543 3.579 5.987 5.987 0 0 0-2.469.632c-.706.484-.982 1.7-.249 2.146" transform="translate(-307.817 -289.605)"/>
    </g>
    <path id="Path_43222" d="M284.84 290.53l12.257-4.272 10.986-17.175a7.313 7.313 0 0 1 4.79-3.243l19.7-3.72a3.236 3.236 0 0 1-1.689 3.949c-2.63 1.5-14.464 4.258-14.464 4.258l18.224-.309s.558 2.63-1.507 3.572-15.044 1.41-15.044 1.41l16.637 2.368s.094 2.644-3.707 2.691a110.316 110.316 0 0 1-11.2-.673.592.592 0 0 0-.673.491.592.592 0 0 0 .451.673l11.053 2.61a1.48 1.48 0 0 1 .114 2.859 1.7 1.7 0 0 1-.619.04c-1.877-.188-13.132-1.615-13.132-1.615s-3.969 13.912-6.539 15.036-7.958 1.433-7.958 1.433l-11.437 4.528z" class="cls-13" transform="translate(-117.601 -112.9)"/>
    <path id="Path_43223" d="M345.813 273.764a4.383 4.383 0 0 1-.955.094l-2.61.128c-2.2.094-5.247.2-8.6.289l-4.743.121a10.385 10.385 0 0 0-3.761.538 4.037 4.037 0 0 0-1.931 1.594 6.882 6.882 0 0 0-.383.861.769.769 0 0 1 0-.249 2.8 2.8 0 0 1 .242-.673 4.037 4.037 0 0 1 1.958-1.756 10.2 10.2 0 0 1 3.848-.632l4.709-.148c3.364-.087 6.411-.155 8.611-.188h2.61a6.047 6.047 0 0 1 1.005.021z" class="cls-14" transform="translate(-130.029 -116.701)"/>
    <path id="Path_43224" d="M347.193 283.672a4.106 4.106 0 0 1-.881-.061l-2.382-.3c-2.018-.262-4.79-.673-7.851-1.117-1.527-.215-2.987-.491-4.306-.605a5.818 5.818 0 0 0-3.364.605 5.282 5.282 0 0 0-1.742 1.561c-.323.457-.451.747-.478.733a.74.74 0 0 1 .067-.222 3.962 3.962 0 0 1 .3-.592 5.073 5.073 0 0 1 1.736-1.7 5.9 5.9 0 0 1 3.512-.713c1.345.1 2.805.37 4.339.579 3.061.458 5.833.895 7.831 1.225l2.368.41a4.5 4.5 0 0 1 .851.197z" class="cls-14" transform="translate(-131.133 -119.154)"/>
    <path id="Path_43225" d="M338.272 290.155a13.519 13.519 0 0 1-1.924-.417c-1.184-.289-2.812-.72-4.615-1.09a8.079 8.079 0 0 0-1.305-.2 2.377 2.377 0 0 0-1.117.33 4.037 4.037 0 0 0-1.473 1.4 5.484 5.484 0 0 0-.585 1.83 1.144 1.144 0 0 1-.04-.538 3.571 3.571 0 0 1 .4-1.413 4.123 4.123 0 0 1 1.534-1.561 2.8 2.8 0 0 1 1.271-.39 8.507 8.507 0 0 1 1.379.188c1.83.383 3.444.848 4.608 1.2a9.958 9.958 0 0 1 1.867.661z" class="cls-14" transform="translate(-131.463 -121.406)"/>
    <path id="Path_43226" d="M149.59 310.782l36.765-4.521 64.481-10.481 8.322 20.915c-24.218 8.4-49.069 15.971-73.449 22.631a27.02 27.02 0 0 1-6.055.511c-8.14.034-28.214-3.237-30.064-29.055z" class="cls-8" transform="translate(-73.338 -123.916)"/>
    <path id="Path_43227" d="M269.7 316.627a3.708 3.708 0 0 1-.168-.37c-.114-.262-.262-.626-.464-1.1l-1.709-4.2-6.115-15.2.155.087-31.329 5.234c-7.4 1.271-14.5 2.1-20.929 2.953-3.222.424-6.277.848-9.122 1.345q-2.139.343-4.117.673a33.864 33.864 0 0 0-3.747.821 15.305 15.305 0 0 0-8.746 7.1 15.932 15.932 0 0 0-1.285 2.873c-.114.343-.188.612-.235.787a1.582 1.582 0 0 1-.094.269 8.078 8.078 0 0 1 .262-1.077 15.043 15.043 0 0 1 1.231-2.92 15.688 15.688 0 0 1 3.081-3.949 15.513 15.513 0 0 1 5.732-3.323 35.36 35.36 0 0 1 3.774-.854c1.345-.242 2.691-.491 4.117-.726 2.852-.471 5.907-.915 9.122-1.346 6.438-.868 13.529-1.7 20.915-2.98l31.343-5.16h.114l.04.108c2.5 6.351 4.561 11.584 6 15.244l1.641 4.225c.182.478.316.848.424 1.11a1.161 1.161 0 0 1 .109.376z" class="cls-9" transform="translate(-83.876 -123.848)"/>
    <path id="Path_43228" d="M179 338.74a1.564 1.564 0 0 1 .3.061l.854.208c.753.161 1.863.417 3.317.592a36.261 36.261 0 0 0 12.3-.592c1.278-.269 2.6-.632 3.976-1.023l4.292-1.211 9.418-2.691c6.653-1.937 13.952-4.11 21.588-6.485 12.782-3.969 24.528-7.858 33.637-11l-.081.182c-2.516-6.391-4.581-11.618-6.014-15.271-.706-1.81-1.251-3.229-1.635-4.211-.182-.471-.316-.834-.417-1.1s-.128-.377-.128-.377.06.121.168.363.256.626.451 1.09l1.7 4.178 6.129 15.231.054.135-.135.047c-9.122 3.189-20.855 7.1-33.637 11.073-7.635 2.375-14.941 4.541-21.6 6.465l-9.472 2.691-4.3 1.184c-1.345.384-2.691.747-3.989 1.009a35.857 35.857 0 0 1-12.378.491 23.459 23.459 0 0 1-4.4-1.036z" class="cls-9" transform="translate(-82.963 -123.929)"/>
    <path id="Path_43229" d="M188.736 311.35a4.4 4.4 0 0 1-.922.141l-2.523.249-8.315.814-8.315.888-2.523.262a4.188 4.188 0 0 1-.928.054 5.569 5.569 0 0 1 .915-.188c.592-.094 1.446-.222 2.509-.37 2.119-.3 5.052-.673 8.3-.989s6.2-.572 8.335-.713c1.07-.074 1.937-.121 2.536-.148a5.483 5.483 0 0 1 .928 0z" class="cls-9" transform="translate(-78.45 -129.006)"/>
    <path id="Path_43230" d="M98.648 398.205c-1.857 2.657-5.476 1.776-7.151.155s-2.381-3.969-3.027-6.209c-1.473-5.119-2.96-10.488-1.863-15.7a8.745 8.745 0 0 1 2.018-4.272 4.548 4.548 0 0 1 4.319-1.433c1.823.478 2.953 2.26 3.774 3.962a37.418 37.418 0 0 1 3.7 16.065c0 2.583-.3 5.3-1.756 7.434" class="cls-11" transform="translate(-52.601 -148.419)"/>
    <g id="Group_13502" class="cls-10" transform="translate(33.626 222.231)">
        <path id="Path_43231" d="M98.648 398.205c-1.857 2.657-5.476 1.776-7.151.155s-2.381-3.969-3.027-6.209c-1.473-5.119-2.96-10.488-1.863-15.7a8.745 8.745 0 0 1 2.018-4.272 4.548 4.548 0 0 1 4.319-1.433c1.823.478 2.953 2.26 3.774 3.962a37.418 37.418 0 0 1 3.7 16.065c0 2.583-.3 5.3-1.756 7.434" transform="translate(-86.227 -370.65)"/>
    </g>
    <path id="Path_43232" d="M86.568 430.873a16.118 16.118 0 0 0-10-1.211 8.268 8.268 0 0 0-4.938 2.207c-1.231 1.366-1.467 3.761-.054 4.931a4.764 4.764 0 0 0 3.115.787c2.644-.034 5.577-.5 7.689 1.1 1.2.9 2.018 2.415 3.444 2.859a3.4 3.4 0 0 0 3.747-1.655A5.806 5.806 0 0 0 90 435.6a6.552 6.552 0 0 0-3.432-4.727z" class="cls-11" transform="translate(-47.491 -167.639)"/>
    <path id="Path_43233" d="M111.326 406.173a9.661 9.661 0 0 1-1.5-8.893 17.206 17.206 0 0 1 5.261-7.642 28.368 28.368 0 0 1 9.418-5.564 9.89 9.89 0 0 1 4.238-.72 4.434 4.434 0 0 1 3.559 2.153c1 1.89.04 4.191-.989 6.055a71.2 71.2 0 0 1-6.2 9.418c-1.857 2.395-3.983 4.756-6.808 5.839s-5.772.955-7.272-1.009" class="cls-11" transform="translate(-60.174 -152.572)"/>
    <path id="Path_43234" d="M98.119 459.281a5.5 5.5 0 0 1-.168-1.2c-.087-.875-.2-1.978-.323-3.29a48.424 48.424 0 0 0-.74-4.837 37.116 37.116 0 0 0-1.756-5.7 21.062 21.062 0 0 0-2.913-5.16 10.911 10.911 0 0 0-3.68-3.061 10.271 10.271 0 0 0-3.121-.962 5.894 5.894 0 0 1-1.2-.175 5.687 5.687 0 0 1 1.218 0 9.419 9.419 0 0 1 3.236.841 10.871 10.871 0 0 1 3.882 3.088 20.518 20.518 0 0 1 3.021 5.261 35.654 35.654 0 0 1 1.742 5.8 40.671 40.671 0 0 1 .673 4.891c.108 1.4.148 2.53.161 3.31a5.687 5.687 0 0 1-.032 1.194z" class="cls-9" transform="translate(-51.944 -169.433)"/>
    <path id="Path_43235" d="M101.562 440.914a2.275 2.275 0 0 1-.034-.558v-1.608c0-1.386 0-3.4-.074-5.88-.121-4.965-.552-11.827-1.345-19.361s-1.958-14.316-2.947-19.18c-.242-1.224-.478-2.321-.673-3.283s-.4-1.79-.572-2.462-.276-1.15-.377-1.561a2.7 2.7 0 0 1-.1-.552 2.173 2.173 0 0 1 .2.525c.128.4.276.915.471 1.534s.417 1.493.673 2.455.518 2.052.78 3.27a181.64 181.64 0 0 1 3.088 19.2c.827 7.555 1.2 14.43 1.238 19.408 0 2.489 0 4.507-.087 5.893-.04.673-.074 1.184-.1 1.6a2.211 2.211 0 0 1-.141.56z" class="cls-9" transform="translate(-55.616 -153.596)"/>
    <path id="Path_43236" d="M104.474 429.631a10.9 10.9 0 0 1 0-1.668c.061-1.076.209-2.63.511-4.534a59.758 59.758 0 0 1 1.473-6.6 58.9 58.9 0 0 1 2.758-7.817 41.708 41.708 0 0 1 8.113-12.627 20.073 20.073 0 0 1 1.9-1.769 10.439 10.439 0 0 1 .814-.673l.74-.511a11.477 11.477 0 0 1 1.413-.9 49.957 49.957 0 0 0-4.615 4.124 43.828 43.828 0 0 0-7.911 12.58 61.851 61.851 0 0 0-2.772 7.737 67.006 67.006 0 0 0-1.574 6.539c-.343 1.884-.545 3.424-.673 4.487a10.133 10.133 0 0 1-.177 1.632z" class="cls-9" transform="translate(-58.562 -155.58)"/>
    <path id="Path_43237" fill="#2f6060" d="M374.6 124.562c-.673-5.335-5.173-10.306-10.548-10.306a11.769 11.769 0 0 0-8.355 3.976 21.15 21.15 0 0 0-2.119 2.509 21.628 21.628 0 0 0-1.588-2.879 11.814 11.814 0 0 0-7.4-5.543c-5.274-1.049-10.67 2.933-12.372 8.032s-.283 10.817 2.509 15.406a30.212 30.212 0 0 0 16.462 13.569c6.1-.78 14.282-6.2 17.922-10.152s6.152-9.274 5.489-14.612z" transform="translate(-132.866 -63.82)"/>
    <path id="Path_43238" d="M373.028 139.8h-.175l-.518-.034-2.018-.168-7.306-.673.128-.081-3.041 7.938-.188.478-.121-.5c-.922-3.855-1.964-8.167-3.061-12.715l-.989-4.137.309.067-5.577 7.669-.054.067h-.06l-12.843-1.346-3.633-.4-.962-.121-.33-.061a1.812 1.812 0 0 1 .336 0l.962.074 3.646.316 12.849 1.211-.141.067 5.55-7.689.222-.3.088.363c.323 1.346.673 2.738 1 4.151 1.083 4.548 2.112 8.867 3.034 12.721h-.309l3.108-7.918.034-.087h.094l7.3.78 1.984.235.511.067z" class="cls-3" transform="translate(-133.228 -69.485)"/>
    <path id="Path_43239" d="M.02 0h11.349v6.526a2.994 2.994 0 0 1-2.993 2.993H2.994A2.994 2.994 0 0 1 0 6.526V0z" class="cls-11" transform="rotate(16.5 -551.075 217.757)"/>
    <path id="Path_43240" d="M0 0h11.349v6.532a2.98 2.98 0 0 1-2.98 2.98H2.987a2.98 2.98 0 0 1-2.98-2.98V0z" opacity="0.3" transform="rotate(16.5 -551.082 217.829)"/>
    <path id="Path_43241" d="M102.818 298.816a45.247 45.247 0 0 1-5.518-1.446 46.414 46.414 0 0 1-5.382-1.789 46.431 46.431 0 0 1 5.516 1.453 47.262 47.262 0 0 1 5.384 1.782z" class="cls-9" transform="translate(-54.464 -123.851)"/>
    <path id="Path_43242" d="M97 296.514a1.346 1.346 0 0 1 1.662-.948l2.18.673a1.345 1.345 0 0 1 .875 1.7z" class="cls-9" transform="translate(-56.127 -123.83)"/>
    <path id="Path_43243" d="M103.971 207.73l-12.109 50.058a4.258 4.258 0 0 0 2.832 5.14l7.932 2.355a4.252 4.252 0 0 0 5.113-2.61l19.018-48.2z" class="cls-5" transform="translate(-54.399 -95.1)"/>
    <path id="Path_43244" d="M130.67 220.447c0 .094-5.019-1.305-11.147-3.121s-11.08-3.364-11.053-3.458 5.019 1.305 11.154 3.122 11.076 3.363 11.046 3.457z" class="cls-9" transform="translate(-59.88 -97.108)"/>
    <path id="Path_43245" d="M111.07 212.714a6.729 6.729 0 0 1 .444-2.106 7 7 0 0 1 .774-2.018 6.6 6.6 0 0 1-.437 2.106 6.679 6.679 0 0 1-.781 2.018z" class="cls-9" transform="translate(-60.731 -95.382)"/>
    <path id="Path_43246" d="M113.76 213.51a12.936 12.936 0 0 1 1.218-4.11 6.728 6.728 0 0 1-.444 2.106 6.9 6.9 0 0 1-.774 2.004z" class="cls-9" transform="translate(-61.612 -95.647)"/>
    <path id="Path_43247" d="M116.44 214.3a13.646 13.646 0 0 1 1.218-4.124 6.6 6.6 0 0 1-.437 2.106 6.679 6.679 0 0 1-.781 2.018z" class="cls-9" transform="translate(-62.489 -95.902)"/>
    <path id="Path_43248" d="M119.13 215.1a12.938 12.938 0 0 1 1.218-4.11 13.415 13.415 0 0 1-1.218 4.11z" class="cls-9" transform="translate(-63.369 -96.167)"/>
    <path id="Path_43249" d="M121.81 215.894a13.645 13.645 0 0 1 1.218-4.124 6.6 6.6 0 0 1-.437 2.106 6.68 6.68 0 0 1-.78 2.018z" class="cls-9" transform="translate(-64.246 -96.423)"/>
    <path id="Path_43250" d="M124.5 216.69a12.937 12.937 0 0 1 1.218-4.11 13.413 13.413 0 0 1-1.218 4.11z" class="cls-9" transform="translate(-65.127 -96.688)"/>
    <path id="Path_43251" d="M127.18 217.484a13.643 13.643 0 0 1 1.218-4.124 6.6 6.6 0 0 1-.437 2.106 6.682 6.682 0 0 1-.781 2.018z" class="cls-9" transform="translate(-66.004 -96.943)"/>
    <path id="Path_43252" d="M129.86 218.274a6.97 6.97 0 0 1 .444-2.106 6.594 6.594 0 0 1 .78-2.018 6.969 6.969 0 0 1-.444 2.106 6.592 6.592 0 0 1-.78 2.018z" class="cls-9" transform="translate(-66.881 -97.201)"/>
    <path id="Path_43253" d="M132.55 219.074a6.571 6.571 0 0 1 .437-2.106 6.9 6.9 0 0 1 .78-2.018 13.644 13.644 0 0 1-1.218 4.124z" class="cls-9" transform="translate(-67.761 -97.463)"/>
    <path id="Path_43254" d="M135.23 219.87a13.413 13.413 0 0 1 1.218-4.11 12.936 12.936 0 0 1-1.218 4.11z" class="cls-9" transform="translate(-68.638 -97.728)"/>
    <path id="Path_43255" d="M137.92 220.664a6.572 6.572 0 0 1 .437-2.106 6.679 6.679 0 0 1 .78-2.018 13.644 13.644 0 0 1-1.218 4.124z" class="cls-9" transform="translate(-69.518 -97.984)"/>
    <path id="Path_43256" d="M140.6 221.46a13.417 13.417 0 0 1 1.218-4.11 12.934 12.934 0 0 1-1.218 4.11z" class="cls-9" transform="translate(-70.395 -98.249)"/>
    <path id="Path_43257" d="M112.676 245.236l.854-2.866 2.832.841-.794 2.684 2.314.679-.834 2.819-2.563-.753-.727 2.455-2.368-.706.78-2.637-2.792-.827.74-2.5z" class="cls-6" transform="translate(-60.178 -106.437)"/>
    <path id="Path_43258" d="M118.516 247.411c-.04 0 .148-.538.2-1.527a6.4 6.4 0 0 0-1.144-3.915 5.926 5.926 0 0 0-2.112-1.87 5.852 5.852 0 0 0-3.155-.626 6.055 6.055 0 0 0-3.283 1.345 6.438 6.438 0 0 0-2.065 6.97 6.007 6.007 0 0 0 2.018 2.906 5.892 5.892 0 0 0 2.987 1.191 5.967 5.967 0 0 0 2.792-.41 6.364 6.364 0 0 0 3.088-2.691c.5-.854.632-1.4.673-1.386a1.483 1.483 0 0 1-.094.39 5.462 5.462 0 0 1-.457 1.063 6.411 6.411 0 0 1-3.115 2.832 6.054 6.054 0 0 1-6.055-.753 6.3 6.3 0 0 1-2.153-3.054 6.727 6.727 0 0 1 2.153-7.333 6.27 6.27 0 0 1 3.471-1.393 6.1 6.1 0 0 1 3.317.673 6.222 6.222 0 0 1 2.186 1.985 6.391 6.391 0 0 1 1.07 4.036 5.852 5.852 0 0 1-.2 1.144 1.408 1.408 0 0 1-.122.423z" class="cls-6" transform="translate(-59.169 -105.377)"/>
</svg>
