<svg xmlns="http://www.w3.org/2000/svg" width="50" height="50" viewBox="0 0 50 50">
  <g id="Group_14550" data-name="Group 14550" transform="translate(4016 -226)">
    <rect id="Rectangle_2612" data-name="Rectangle 2612" width="50" height="50" transform="translate(-4016 226)" fill="none"/>
    <path id="Path_43703" data-name="Path 43703" d="M18.5,22.965a.64.64,0,0,1-.627.621h-2.34a.64.64,0,0,1-.627-.621V20.645a.64.64,0,0,1,.627-.621h2.34a.64.64,0,0,1,.627.621ZM23.43,20.6a.64.64,0,0,0-.627-.621h-2.34a.64.64,0,0,0-.627.621v2.319a.64.64,0,0,0,.627.621H22.8a.64.64,0,0,0,.627-.621Zm4.93,0a.64.64,0,0,0-.627-.621H25.352a.64.64,0,0,0-.627.621v2.319a.64.64,0,0,0,.627.621h2.34a.64.64,0,0,0,.627-.621V20.6ZM18.5,25.367a.64.64,0,0,0-.627-.621h-2.34a.64.64,0,0,0-.627.621v2.319a.64.64,0,0,0,.627.621h2.34a.64.64,0,0,0,.627-.621Zm4.93,0a.64.64,0,0,0-.627-.621h-2.34a.64.64,0,0,0-.627.621v2.319a.64.64,0,0,0,.627.621H22.8a.64.64,0,0,0,.627-.621Zm4.3-.621H25.352a.64.64,0,0,0-.627.621v2.319a.64.64,0,0,0,.627.621h2.34a.64.64,0,0,0,.627-.621V25.367A.578.578,0,0,0,27.734,24.745ZM12.943,29.508H10.6a.64.64,0,0,0-.627.621v2.319a.64.64,0,0,0,.627.621h2.34a.64.64,0,0,0,.627-.621V30.13A.59.59,0,0,0,12.943,29.508Zm.627-4.142a.64.64,0,0,0-.627-.621H10.6a.64.64,0,0,0-.627.621v2.319a.64.64,0,0,0,.627.621h2.34a.64.64,0,0,0,.627-.621ZM22.8,29.508h-2.34a.64.64,0,0,0-.627.621v2.319a.64.64,0,0,0,.627.621H22.8a.64.64,0,0,0,.627-.621V30.13A.613.613,0,0,0,22.8,29.508Zm-4.93,0h-2.34a.64.64,0,0,0-.627.621v2.319a.64.64,0,0,0,.627.621h2.34a.64.64,0,0,0,.627-.621V30.13A.613.613,0,0,0,17.874,29.508Zm14.749-5.923a.64.64,0,0,0,.627-.621V20.645a.64.64,0,0,0-.627-.621h-2.34a.64.64,0,0,0-.627.621v2.319a.64.64,0,0,0,.627.621ZM8.431,38.123H26.313a9.246,9.246,0,0,1-.46-2.816H8.431a.834.834,0,0,1-.836-.828V17.787H35.631v7.786a10.454,10.454,0,0,1,2.841.414V11.948A3.666,3.666,0,0,0,34.8,8.3H30.659V6.025A1.314,1.314,0,0,0,29.322,4.7H27.233A1.314,1.314,0,0,0,25.9,6.025V8.3H17.372V6.025A1.314,1.314,0,0,0,16.035,4.7H13.946a1.314,1.314,0,0,0-1.337,1.325V8.3H8.473A3.666,3.666,0,0,0,4.8,11.948v22.53A3.554,3.554,0,0,0,8.431,38.123Zm27.158-9.9a7,7,0,1,1-7.061,7A7.048,7.048,0,0,1,35.589,28.224Zm1.421,4.432-1.421,1.408-1.421-1.408a.813.813,0,0,0-1.17,0,.8.8,0,0,0,0,1.16l1.421,1.408L33,36.632a.8.8,0,0,0,0,1.16.813.813,0,0,0,1.17,0l1.421-1.408,1.421,1.408a.813.813,0,0,0,1.17,0,.8.8,0,0,0,0-1.16l-1.421-1.408,1.421-1.408a.8.8,0,0,0,0-1.16A.9.9,0,0,0,37.01,32.656Z" transform="translate(-4014.793 227.3)" fill="#9a9a9a"/>
  </g>
</svg>
