<svg xmlns="http://www.w3.org/2000/svg" width="50" height="50" viewBox="0 0 50 50">
  <g id="Group_14550" data-name="Group 14550" transform="translate(4016 -226)">
    <rect id="Rectangle_2612" data-name="Rectangle 2612" width="50" height="50" transform="translate(-4016 226)" fill="none"/>
    <path id="Path_43704" data-name="Path 43704" d="M28.8,963.72a2.94,2.94,0,0,0-2.974,2.944v2.655a2.953,2.953,0,0,0,2.974,2.959h6.737a.413.413,0,0,1,.273.106l2.473,2.382-.319-2.018a.413.413,0,0,1,.41-.466,2.953,2.953,0,0,0,2.974-2.959v-2.655a2.94,2.94,0,0,0-2.974-2.943H28.8Zm-4.719,1.806a2.94,2.94,0,0,0-2.974,2.944v2.67a2.94,2.94,0,0,0,2.974,2.943.432.432,0,0,1,.41.5l-.425,2.018,2.579-2.412a.418.418,0,0,1,.273-.106h6.737a2.979,2.979,0,0,0,1.972-.728l-.273-.258H28.8a3.8,3.8,0,0,1-3.808-3.778v-2.655a3.744,3.744,0,0,1,.167-1.138H24.079Zm4.446.561a.416.416,0,0,1,.091,0h9.711a.413.413,0,1,1,0,.819H28.616a.413.413,0,0,1-.091-.819Zm0,2.913a.4.4,0,0,1,.091,0H35.4a.413.413,0,1,1,0,.819H28.616a.413.413,0,0,1-.091-.819Zm-7.935,9.574a4.006,4.006,0,1,0,3.945,4.006A3.972,3.972,0,0,0,20.59,978.575Zm19.785,0a4.006,4.006,0,1,0,3.945,4.006A3.972,3.972,0,0,0,40.375,978.575ZM20.59,987.208a8.724,8.724,0,0,0-8.527,8.831.413.413,0,0,0,.41.425l3.869.046v4.324a.413.413,0,0,0,.41.41h7.662a.413.413,0,0,0,.41-.41v-4.294h3.884a.413.413,0,0,0,.41-.425,8.72,8.72,0,0,0-8.421-8.891c-.037,0-.07-.015-.106-.015Zm19.785,0a8.724,8.724,0,0,0-8.527,8.831.413.413,0,0,0,.41.425l3.869.046v4.324a.413.413,0,0,0,.41.41H44.2a.413.413,0,0,0,.41-.41v-4.294h3.884a.413.413,0,0,0,.41-.425,8.72,8.72,0,0,0-8.421-8.891c-.037,0-.07-.015-.106-.015Z" transform="translate(-4021.174 -731.72)" fill="#00c2cb"/>
  </g>
</svg>
