<svg xmlns="http://www.w3.org/2000/svg" width="50" height="50" viewBox="0 0 50 50">
  <g id="Group_14550" data-name="Group 14550" transform="translate(4016 -226)">
    <rect id="Rectangle_2612" data-name="Rectangle 2612" width="50" height="50" transform="translate(-4016 226)" fill="none"/>
    <path id="Path_43702" data-name="Path 43702" d="M-215.01,389h-12.173a2.009,2.009,0,0,1-2.029-2.029V374.8a2.009,2.009,0,0,1,2.029-2.029h12.173a2.009,2.009,0,0,1,2.029,2.029v12.173A2.009,2.009,0,0,1-215.01,389ZM-220,368.27a1.543,1.543,0,0,1-2.191,0l-6.573-6.573a1.543,1.543,0,0,1,0-2.191l6.573-6.573a1.543,1.543,0,0,1,2.191,0l6.573,6.573a1.543,1.543,0,0,1,0,2.191Zm5.4-8.6-5.6-5.6a1.3,1.3,0,0,0-1.867,0l-5.6,5.6a1.3,1.3,0,0,0,0,1.867l5.6,5.6a1.3,1.3,0,0,0,1.867,0l5.6-5.6A1.3,1.3,0,0,0-214.6,359.667ZM-235.3,389h-12.173a2.009,2.009,0,0,1-2.029-2.029V374.8a2.009,2.009,0,0,1,2.029-2.029H-235.3a2.009,2.009,0,0,1,2.029,2.029v12.173A2.009,2.009,0,0,1-235.3,389Zm0-20.288h-12.173a2.009,2.009,0,0,1-2.029-2.029V354.514a2.009,2.009,0,0,1,2.029-2.029H-235.3a2.009,2.009,0,0,1,2.029,2.029v12.173A2.009,2.009,0,0,1-235.3,368.716Z" transform="translate(-3759.5 -119.475)" fill="#9a9a9a" fill-rule="evenodd"/>
  </g>
</svg>
