<svg xmlns="http://www.w3.org/2000/svg" width="50" height="50" viewBox="0 0 50 50">
  <g id="Group_14556" data-name="Group 14556" transform="translate(4016 -226)">
    <rect id="Rectangle_2612" data-name="Rectangle 2612" width="50" height="50" transform="translate(-4016 226)" fill="none"/>
    <g id="Group_14555" data-name="Group 14555" transform="translate(-4059.996 -841)">
      <path id="Path_43463" data-name="Path 43463" d="M23.452,20.329a1.563,1.563,0,0,0-1.563,1.563v6.254a1.565,1.565,0,0,1-1.564,1.563h-4.69V6.258a3.151,3.151,0,0,0-2.129-2.972l-.463-.155h7.283a1.565,1.565,0,0,1,1.564,1.564v4.69a1.563,1.563,0,1,0,3.127,0V4.694A4.7,4.7,0,0,0,20.325,0H3.518a1.228,1.228,0,0,0-.167.034C3.275.032,3.2,0,3.127,0A3.13,3.13,0,0,0,0,3.131V31.273a3.151,3.151,0,0,0,2.129,2.972l9.409,3.136a3.237,3.237,0,0,0,.969.145A3.13,3.13,0,0,0,15.634,34.4V32.836h4.69a4.7,4.7,0,0,0,4.69-4.69V21.892a1.563,1.563,0,0,0-1.563-1.563Zm0,0" transform="translate(49.996 1072.996)" fill="#00c2cb"/>
      <path id="Path_43464" data-name="Path 43464" d="M294.072,113.378l-6.254-6.254a1.563,1.563,0,0,0-2.669,1.105v4.69H278.9a1.563,1.563,0,1,0,0,3.127h6.254v4.69a1.563,1.563,0,0,0,2.669,1.106l6.254-6.254A1.562,1.562,0,0,0,294.072,113.378Zm0,0" transform="translate(-207.011 974.151)" fill="#00c2cb"/>
    </g>
  </g>
</svg>
