<svg xmlns="http://www.w3.org/2000/svg" width="50" height="50" viewBox="0 0 50 50">
  <g id="Group_14551" data-name="Group 14551" transform="translate(4016 -226)">
    <rect id="Rectangle_2612" data-name="Rectangle 2612" width="50" height="50" transform="translate(-4016 226)" fill="none"/>
    <g id="Group_14550" data-name="Group 14550" transform="translate(-4048.068 -306.849)">
      <path id="Path_43356" data-name="Path 43356" d="M32.6,13.839c0,.069.011.137.018.206.459,5.2,3.5,9.222,7.19,9.222s6.73-4.02,7.19-9.222c.007-.068.012-.137.018-.206.033-.226.055-.454.068-.686.009-.158.015-.317.015-.478a8.18,8.18,0,0,0-.083-1.164,7.244,7.244,0,0,0-14.414,0,8.118,8.118,0,0,0-.083,1.164c0,.161.006.32.015.478C32.542,13.385,32.563,13.614,32.6,13.839ZM35.306,9.7a12.367,12.367,0,0,0,4.5,1.084A12.354,12.354,0,0,0,44.3,9.7c1.52.6.8,4.875.8,4.876a3.072,3.072,0,0,1,1.011-.474c-.419,4.544-3.083,8.048-6.308,8.048s-5.891-3.5-6.309-8.048a3.064,3.064,0,0,1,1.011.474S33.786,10.3,35.306,9.7Z" transform="translate(17.699 533.849)" fill="#00c2cb"/>
      <path id="Path_43357" data-name="Path 43357" d="M35.6,46.858C35.558,48.595,32.983,50,29.813,50a7.423,7.423,0,0,1-5.061-1.639l3.4,7.9.923,2.146h3.064a2.737,2.737,0,0,1,2.736,2.736v.9a2.736,2.736,0,0,1-2.736,2.737h-11.8A2.737,2.737,0,0,1,17.6,62.046v-.9a2.736,2.736,0,0,1,1.887-2.6l.235-2.239.886-8.461a9.526,9.526,0,0,0-5.228,8.5,5.835,5.835,0,0,0,.552,2.7,4.84,4.84,0,0,0-.478,2.1v.9a4.888,4.888,0,0,0,4.883,4.882h11.8a4.887,4.887,0,0,0,4.882-4.883v-.469c4.15-.1,7.227-.763,7.227-5.232A9.529,9.529,0,0,0,35.6,46.858Zm4.231,9.066a.271.271,0,0,1-.286.255H37.987v1.554a.272.272,0,0,1-.254.286H36.2a.271.271,0,0,1-.254-.286V56.179H34.391a.272.272,0,0,1-.287-.255V54.391a.272.272,0,0,1,.287-.255h1.554V52.582A.271.271,0,0,1,36.2,52.3h1.534a.272.272,0,0,1,.254.286v1.554h1.554a.272.272,0,0,1,.286.255Z" transform="translate(27.69 509.442)" fill="#00c2cb"/>
    </g>
  </g>
</svg>
