<svg xmlns="http://www.w3.org/2000/svg" width="50" height="50" viewBox="0 0 50 50">
  <g id="Group_14552" data-name="Group 14552" transform="translate(4016 -226)">
    <rect id="Rectangle_2612" data-name="Rectangle 2612" width="50" height="50" transform="translate(-4016 226)" fill="none"/>
    <g id="Group_14551" data-name="Group 14551" transform="translate(-4049.429 -578)">
      <path id="Path_43373" data-name="Path 43373" d="M21.594,41.289a1.112,1.112,0,0,1,1.179-1.2q1.574-.007,3.148,0a1.105,1.105,0,0,1,1.181,1.2q0,5.431,0,10.862a1.114,1.114,0,0,1-1.213,1.2q-1.522,0-3.044,0a1.13,1.13,0,0,1-1.252-1.267q0-2.663,0-5.327C21.593,44.933,21.591,43.111,21.594,41.289Z" transform="translate(30.629 791.852)" fill="#00c2cb"/>
      <path id="Path_43374" data-name="Path 43374" d="M36.728,32.135a1.112,1.112,0,0,1,1.179-1.2q1.574-.007,3.148,0a1.105,1.105,0,0,1,1.181,1.2c0,3.621.072,12.755.069,16.375a1.114,1.114,0,0,1-1.213,1.2q-1.522,0-3.044,0A1.13,1.13,0,0,1,36.8,48.442q0-2.663,0-5.327C36.8,41.293,36.724,33.957,36.728,32.135Z" transform="translate(25.032 795.492)" fill="#00c2cb"/>
      <path id="Path_43375" data-name="Path 43375" d="M51.863,22.836a1.112,1.112,0,0,1,1.179-1.2q1.574-.007,3.148,0a1.105,1.105,0,0,1,1.181,1.2c0,3.621.072,18.357.069,21.977a1.114,1.114,0,0,1-1.213,1.2q-1.522,0-3.044,0a1.13,1.13,0,0,1-1.252-1.267q0-2.663,0-5.327C51.931,37.595,51.859,24.658,51.863,22.836Z" transform="translate(19.433 799.19)" fill="#00c2cb"/>
      <path id="Path_43376" data-name="Path 43376" d="M6.346,53.125c0-.876,0-1.753,0-2.629a1.116,1.116,0,0,1,1.2-1.215q1.557-.006,3.113,0a1.111,1.111,0,0,1,1.2,1.214q0,2.646,0,5.292a1.119,1.119,0,0,1-1.231,1.218q-1.521.005-3.044,0a1.126,1.126,0,0,1-1.235-1.25C6.343,54.878,6.346,54,6.346,53.125Z" transform="translate(36.174 788.196)" fill="#00c2cb"/>
      <path id="Path_43377" data-name="Path 43377" d="M30.2,8.177l-.155,8.928a.709.709,0,0,1-.1.366,0,0,0,0,0,0,0c0,.047.005.1.008.144l-.076-.054a.719.719,0,0,1-1.043.051L27.253,15.73l-.474-.331C23.576,22.3,8.539,27.8,3.1,25.7c-.385-.149-.231-.753.183-.752,10.21.012,18.261-7.446,20.192-11.624l-2.721-.588a.72.72,0,0,1-.115-1.314l.295-.162,4-2.192L28.466,7.13A1.171,1.171,0,0,1,30.2,8.177Z" transform="translate(37.553 805.016)" fill="#00c2cb"/>
    </g>
  </g>
</svg>
