<svg xmlns="http://www.w3.org/2000/svg" width="100" height="100" viewBox="0 0 100 100">
  <g id="Group_14568" data-name="Group 14568" transform="translate(3365 -1514)">
    <rect id="Rectangle_2614" data-name="Rectangle 2614" width="100" height="100" transform="translate(-3365 1514)" fill="none"/>
    <g id="Group_14567" data-name="Group 14567" transform="translate(-4089 1194)">
      <path id="Path_43467" data-name="Path 43467" d="M9.551,20.109h3.177v3.177a2.166,2.166,0,0,0,2.161,2.161h6.193a2.165,2.165,0,0,0,2.164-2.161V20.109h3.177a2.164,2.164,0,0,0,2.161-2.161V11.754a2.166,2.166,0,0,0-2.161-2.161H23.247V6.416a2.167,2.167,0,0,0-2.164-2.161H14.889a2.164,2.164,0,0,0-2.161,2.161V9.593H9.551A2.164,2.164,0,0,0,7.39,11.754v6.193A2.169,2.169,0,0,0,9.551,20.109Zm.366-7.992H13.99a1.262,1.262,0,0,0,1.262-1.262V6.779h5.461v4.076a1.264,1.264,0,0,0,1.262,1.262h4.073v5.468H21.975a1.262,1.262,0,0,0-1.262,1.262v4.076H15.255V18.847a1.264,1.264,0,0,0-1.262-1.262H9.917Z" transform="translate(752.18 341.1)" fill="#00cece"/>
      <path id="Path_43468" data-name="Path 43468" d="M10.079,75.606h7.01c.025,0,.044-.013.066-.013l39.977-.076a7.241,7.241,0,0,0,7.234-7.231V11.232a1.262,1.262,0,0,0-2.524,0V68.283a4.715,4.715,0,0,1-4.71,4.71l-43.015.082c-.013,0-.025.006-.038.006h-4a5.417,5.417,0,1,1,0-10.834h39.1a7.239,7.239,0,0,0,7.231-7.231V7.253A7.239,7.239,0,0,0,49.176.022H9.372A7.241,7.241,0,0,0,2.138,7.253V67.636s0,.006,0,.009,0,.013,0,.019A7.952,7.952,0,0,0,10.079,75.606ZM9.372,2.543h39.8a4.711,4.711,0,0,1,4.7,4.71V55.017a4.711,4.711,0,0,1-4.7,4.707H9.372a1.259,1.259,0,0,0-.53.126,7.881,7.881,0,0,0-4.177,2.041V7.253A4.708,4.708,0,0,1,9.372,2.543Z" transform="translate(740.862 331.978)" fill="#00cece"/>
      <path id="Path_43469" data-name="Path 43469" d="M7.564,15.807H33.1a1.262,1.262,0,0,0,0-2.524H7.564a1.262,1.262,0,1,0,0,2.524Z" transform="translate(749.835 360.555)" fill="#00cece"/>
      <path id="Path_43470" data-name="Path 43470" d="M7.564,18.137H33.1a1.262,1.262,0,0,0,0-2.524H7.564a1.262,1.262,0,0,0,0,2.524Z" transform="translate(749.835 365.576)" fill="#00cece"/>
    </g>
  </g>
</svg>
