<svg xmlns="http://www.w3.org/2000/svg" width="30" height="30" viewBox="0 0 30 30">
  <g id="Group_14557" data-name="Group 14557" transform="translate(3898 -1515)">
    <rect id="Rectangle_2613" data-name="Rectangle 2613" width="30" height="30" transform="translate(-3898 1515)" fill="none"/>
    <g id="noun_Email_1002247" transform="translate(-3899 1514.75)">
      <path id="Path_43559" data-name="Path 43559" d="M6.264,27.25H25.353a2.267,2.267,0,0,0,2.264-2.267V12.861a.642.642,0,0,0-.228-.49L24.229,9.7V5.047a1.8,1.8,0,0,0-1.8-1.8H9.311a1.8,1.8,0,0,0-1.8,1.8V9.6L4.228,12.371a.642.642,0,0,0-.228.49V24.983A2.267,2.267,0,0,0,6.264,27.25Zm19.087-1.284H6.264a.983.983,0,0,1-.981-.983v-10.9L12.6,19.261,7.407,23.235a.642.642,0,1,0,.77,1.027L13.7,20.036l1.8,1.284a.642.642,0,0,0,.742,0l1.8-1.284,5.524,4.218a.642.642,0,0,0,.77-1.027l-5.183-3.966,7.188-5.083V24.986a.983.983,0,0,1-.981.981Zm.624-13.108-1.746,1.235V11.38ZM9.311,4.536H22.434a.513.513,0,0,1,.513.513v9.945L15.873,20,8.8,14.995V5.047A.513.513,0,0,1,9.311,4.536Zm-1.8,9.557L5.7,12.81l1.818-1.54Zm8.294,2.613h.164a.642.642,0,1,0,0-1.284h-.164A4.092,4.092,0,1,1,19.9,11.331v1.1a.716.716,0,0,1-1.43,0v-1.1a2.67,2.67,0,1,0-1.027,2.087,2,2,0,0,0,3.74-.991v-1.1a5.376,5.376,0,1,0-5.376,5.376Zm0-4a1.379,1.379,0,1,1,1.379-1.379A1.379,1.379,0,0,1,15.809,12.71Z" fill="#00c2cb"/>
    </g>
  </g>
</svg>
