<svg xmlns="http://www.w3.org/2000/svg" width="30" height="30" viewBox="0 0 30 30">
  <g id="Group_14557" data-name="Group 14557" transform="translate(3899 -1515)">
    <rect id="Rectangle_2613" data-name="Rectangle 2613" width="30" height="30" transform="translate(-3899 1515)" fill="none"/>
    <g id="noun_Location_74739" transform="translate(-3893 1518)">
      <g id="Group_14318" data-name="Group 14318" transform="translate(0 0)">
        <g id="Group_14317" data-name="Group 14317">
          <path id="Path_43563" data-name="Path 43563" d="M33.474,29.881l-.693.82c2.888.367,4.906,1.2,4.906,2.168,0,1.309-3.676,2.369-8.21,2.369s-8.21-1.061-8.21-2.369c0-.969,2.018-1.8,4.906-2.168l-.693-.82C22.248,30.434,20,31.633,20,33.027c0,1.918,4.241,3.473,9.473,3.473s9.473-1.555,9.473-3.473C38.949,31.633,36.705,30.434,33.474,29.881Zm3.942-9.441a7.94,7.94,0,0,0-15.88,0c0,4.385,7.94,13.233,7.94,13.233S37.417,24.825,37.417,20.44Zm-7.94-6.617a6.659,6.659,0,0,1,6.617,6.7c0,3.7-6.617,11.166-6.617,11.166S22.86,24.222,22.86,20.522A6.658,6.658,0,0,1,29.477,13.823Zm3.309,5.955a3.308,3.308,0,1,0-3.309,3.308A3.308,3.308,0,0,0,32.785,19.778Zm-5.294,0a1.985,1.985,0,1,1,1.985,1.985A1.985,1.985,0,0,1,27.491,19.778Z" transform="translate(-20.004 -12.5)" fill="#00c2cb"/>
        </g>
      </g>
    </g>
  </g>
</svg>
