<svg xmlns="http://www.w3.org/2000/svg" width="30" height="30" viewBox="0 0 30 30">
  <g id="Group_14557" data-name="Group 14557" transform="translate(3898 -1515)">
    <rect id="Rectangle_2613" data-name="Rectangle 2613" width="30" height="30" transform="translate(-3898 1515)" fill="none"/>
    <g id="noun_Video_2701807" transform="translate(-3897.4 1518)">
      <g id="Group_14325" data-name="Group 14325">
        <path id="Path_43575" data-name="Path 43575" d="M6.987,23.666a.55.55,0,0,1-.826.225.574.574,0,0,1-.3-.826l3.681-6.837H2.254A2.327,2.327,0,0,1,0,13.9V2.254A2.311,2.311,0,0,1,2.254,0H19.91a2.311,2.311,0,0,1,2.254,2.254V4.808l4.282-3.231A1.417,1.417,0,0,1,28.7,2.7V13.523a1.412,1.412,0,0,1-2.254,1.052l-4.282-3.231V13.9a2.327,2.327,0,0,1-2.254,2.329H12.622L16.3,23.065a.574.574,0,0,1-.3.826.55.55,0,0,1-.826-.225l-3.982-7.438h-.225ZM22.163,6.386V9.767L27.272,13.6s.15,0,.15-.075V2.7c0-.075-.075-.15-.15-.075ZM19.91,1.277H2.254a1,1,0,0,0-.977.977V13.9a1.012,1.012,0,0,0,.977,1.052H19.91a1.012,1.012,0,0,0,.977-1.052V2.254A1,1,0,0,0,19.91,1.277Z" fill="#00c2cb"/>
      </g>
    </g>
  </g>
</svg>
