<svg xmlns="http://www.w3.org/2000/svg" width="139.213" height="139.194" viewBox="0 0 139.213 139.194">
    <defs>
        <style>
            .cls-1{fill:#00c2cb}
        </style>
    </defs>
    <g id="play-button" transform="translate(0 -.002)">
        <path id="Path_43529" d="M46.99 31.438L18.083 10.425a3.486 3.486 0 0 0-5.536 2.812V55.25a3.475 3.475 0 0 0 1.9 3.108 3.511 3.511 0 0 0 1.584.375 3.465 3.465 0 0 0 2.048-.676L46.99 37.062a3.458 3.458 0 0 0 0-5.624z" class="cls-1" transform="translate(45.578 35.439)"/>
        <path id="Path_43530" d="M69.609 0a69.6 69.6 0 1 0 69.6 69.609A69.6 69.6 0 0 0 69.609 0zm0 127.58a57.981 57.981 0 1 1 57.971-57.969 57.972 57.972 0 0 1-57.971 57.971z" class="cls-1"/>
    </g>
</svg>
