<svg xmlns="http://www.w3.org/2000/svg" width="100" height="100" viewBox="0 0 100 100">
  <g id="Group_14566" data-name="Group 14566" transform="translate(3365 -1514)">
    <rect id="Rectangle_2614" data-name="Rectangle 2614" width="100" height="100" transform="translate(-3365 1514)" fill="none"/>
    <g id="Group_14565" data-name="Group 14565" transform="translate(-4092 1003.86)">
      <path id="Path_43484" data-name="Path 43484" d="M63.351,56.769a9.415,9.415,0,0,0-9.158,8.487H47.186a1.185,1.185,0,0,1-1.155-1.212V61.619a4.624,4.624,0,1,0-9.237,0v9.7a2.312,2.312,0,1,1-4.619,0V51.92H33.33a1.185,1.185,0,0,0,1.155-1.212v-6.28c15.1-1.909,26.49-15.33,26.557-31.3V9.487a5.93,5.93,0,0,0-5.773-6.062H49.5V2.212A1.185,1.185,0,0,0,48.341,1H43.722a1.185,1.185,0,0,0-1.155,1.212v9.7a1.185,1.185,0,0,0,1.155,1.212h4.619A1.185,1.185,0,0,0,49.5,11.911V10.7h4.619v2.425c0,13.392-10.339,24.248-23.093,24.248S7.928,26.515,7.928,13.124V10.7h4.619v1.212A1.185,1.185,0,0,0,13.7,13.124H18.32a1.185,1.185,0,0,0,1.155-1.212v-9.7A1.185,1.185,0,0,0,18.32,1H13.7a1.185,1.185,0,0,0-1.155,1.212V3.425H6.773A5.93,5.93,0,0,0,1,9.487v3.637c.067,15.973,11.453,29.394,26.557,31.3v6.28a1.185,1.185,0,0,0,1.155,1.212h1.155v19.4a4.624,4.624,0,1,0,9.237,0v-9.7a2.312,2.312,0,1,1,4.619,0v2.425a3.554,3.554,0,0,0,3.464,3.637h7.008a9.36,9.36,0,0,0,9.938,8.453,9.548,9.548,0,0,0,8.456-10.075A9.453,9.453,0,0,0,63.351,56.769ZM47.186,10.7H44.877V3.425h2.309ZM14.856,3.425h2.309V10.7H14.856ZM28.8,42.119c-14.369-1.27-25.434-13.854-25.494-29V9.487A3.554,3.554,0,0,1,6.773,5.85h5.773V8.274H7.928A2.369,2.369,0,0,0,5.619,10.7v2.425c0,14.731,11.373,26.672,25.4,26.672s25.4-11.942,25.4-26.672V10.7a2.369,2.369,0,0,0-2.309-2.425H49.5V5.85h5.773a3.554,3.554,0,0,1,3.464,3.637v3.637c-.059,15.141-11.124,27.726-25.494,29a1.19,1.19,0,0,0-1.063,1.212V49.5H29.866V43.328A1.19,1.19,0,0,0,28.8,42.119ZM63.351,73.743a7.283,7.283,0,1,1,6.928-7.274A7.107,7.107,0,0,1,63.351,73.743Z" transform="translate(740 521.14)" fill="#00cece"/>
      <path id="Path_43485" data-name="Path 43485" d="M55.85,51A4.85,4.85,0,1,0,60.7,55.85,4.85,4.85,0,0,0,55.85,51Zm0,7.274a2.425,2.425,0,1,1,2.425-2.425A2.425,2.425,0,0,1,55.85,58.274Z" transform="translate(747.04 531.758)" fill="#00cece"/>
    </g>
  </g>
</svg>
