<svg xmlns="http://www.w3.org/2000/svg" width="35" height="35" viewBox="0 0 35 35">
  <g id="Group_14576" data-name="Group 14576" transform="translate(-6071 -4849)">
    <rect id="Rectangle_2611" data-name="Rectangle 2611" width="35" height="35" transform="translate(6071 4849)" fill="none"/>
    <g id="noun_Address_1595349" transform="translate(6063.998 4843.007)">
      <g id="Group_14464" data-name="Group 14464" transform="translate(10 7.993)">
        <path id="Path_43662" data-name="Path 43662" d="M31.868,960.356a8.037,8.037,0,0,0-8.014,7.453l-4.661-1.449a.749.749,0,0,0-.292-.023c-.051,0-8.376,2.57-8.376,2.57a.769.769,0,0,0-.526.724V991.01a.784.784,0,0,0,.97.713l8-2.478,8,2.477a.755.755,0,0,0,.444,0l8.224-2.547a.769.769,0,0,0,.526-.713V976.056c.326-.39.651-.788.958-1.192,1.509-1.988,2.74-4.147,2.78-6.472,0-.008,0-.016,0-.023a8.033,8.033,0,0,0-8.037-8.014Zm0,1.5a6.517,6.517,0,0,1,6.542,6.507s0,.008,0,.012a10.239,10.239,0,0,1-2.476,5.584c-1.251,1.648-2.751,3.235-4.065,4.72-1.315-1.486-2.815-3.058-4.065-4.708a10.289,10.289,0,0,1-2.476-5.6s0-.008,0-.012A6.516,6.516,0,0,1,31.868,961.851Zm0,2.617a3.925,3.925,0,1,0,3.925,3.925A3.936,3.936,0,0,0,31.868,964.468Zm0,1.5a2.43,2.43,0,1,1-2.43,2.43A2.419,2.419,0,0,1,31.868,965.963ZM18.224,968.1v19.8L11.5,989.982v-19.8Zm1.5,0,4.205,1.3a12.415,12.415,0,0,0,2.523,5.234s0,.009,0,.012v15.339L19.719,987.9Zm8.224,8.4c1.165,1.361,2.374,2.631,3.353,3.773a.781.781,0,0,0,1.133,0c.668-.78,1.443-1.614,2.243-2.5V987.9l-6.729,2.079Z" transform="translate(-10 -960.355)" fill="#00c2cb"/>
      </g>
    </g>
  </g>
</svg>
