<svg xmlns="http://www.w3.org/2000/svg" width="35" height="35" viewBox="0 0 35 35">
  <g id="Group_14574" data-name="Group 14574" transform="translate(2104 -4737)">
    <rect id="Rectangle_2611" data-name="Rectangle 2611" width="35" height="35" transform="translate(-2104 4737)" fill="none"/>
    <g id="noun_year_1719923" transform="translate(-2124 4656)">
      <path id="Path_43676" data-name="Path 43676" d="M37.953,100.273a5.136,5.136,0,1,1,5.136-5.136A5.142,5.142,0,0,1,37.953,100.273Zm0-6.849a1.712,1.712,0,1,0,1.712,1.712A1.714,1.714,0,0,0,37.953,93.424Zm8.561,0H52.9v3.424H49.816a11.986,11.986,0,0,1-23.726,0H23V93.424h6.391v1.712a8.561,8.561,0,1,0,17.122,0Z" transform="translate(0 0)" fill="#0ac4cd"/>
    </g>
  </g>
</svg>
