<svg xmlns="http://www.w3.org/2000/svg" width="35" height="35" viewBox="0 0 35 35">
  <g id="Group_14549" data-name="Group 14549" transform="translate(9357 1306)">
    <rect id="Rectangle_2611" data-name="Rectangle 2611" width="35" height="35" transform="translate(-9357 -1306)" fill="none"/>
    <g id="noun_Email_3555191" transform="translate(-9354 -1304)">
      <path id="Path_42987" data-name="Path 42987" d="M33.952,19A15.223,15.223,0,0,0,19,34.48a15.223,15.223,0,0,0,14.952,15.48H35.4v-3H33.952A12.277,12.277,0,0,1,21.894,34.48,12.277,12.277,0,0,1,33.952,22,12.277,12.277,0,0,1,46.011,34.48v2a2.413,2.413,0,1,1-4.823,0v-2A7.454,7.454,0,0,0,35.3,27.075a7.217,7.217,0,0,0-8.123,4.607,7.657,7.657,0,0,0,2.861,9.12,7.08,7.08,0,0,0,9.187-1.213,5.212,5.212,0,0,0,5.944,2.131A5.475,5.475,0,0,0,48.9,36.478v-2A15.223,15.223,0,0,0,33.952,19Zm0,19.975a4.5,4.5,0,1,1,4.341-4.494,4.42,4.42,0,0,1-4.341,4.494Z" transform="translate(-19 -19)" fill="#00c2cb"/>
    </g>
  </g>
</svg>
