<svg xmlns="http://www.w3.org/2000/svg" width="30" height="30" viewBox="0 0 30 30">
  <g id="Group_14574" data-name="Group 14574" transform="translate(1910 -1944)">
    <g id="Group_14557" data-name="Group 14557" transform="translate(1988 429)">
      <rect id="Rectangle_2613" data-name="Rectangle 2613" width="30" height="30" transform="translate(-3898 1515)" fill="none"/>
    </g>
    <g id="Group_14428" transform="translate(-1902.225 1947.035)">
      <path id="Path_43647" d="M34.5,2.5H26.053A2.456,2.456,0,0,0,23.6,4.953V24.047A2.456,2.456,0,0,0,26.053,26.5h8.469a2.456,2.456,0,0,0,2.453-2.453V4.953A2.478,2.478,0,0,0,34.5,2.5Zm1.34,21.573a1.323,1.323,0,0,1-1.319,1.315H26.053a1.323,1.323,0,0,1-1.315-1.315V21.594H35.866v2.479Zm0-3.642H24.711V7.406h11.13Zm0-14.161H24.711V4.953a1.328,1.328,0,0,1,1.342-1.314h8.469a1.323,1.323,0,0,1,1.319,1.314Z" transform="translate(-23.6 -2.5)" fill="#00c2cb"/>
      <circle id="Ellipse_586" cx="1.137" cy="1.137" r="1.137" transform="translate(5.54 19.835)" fill="#00c2cb"/>
      <path id="Path_43648" d="M46.748,10H45.055a.555.555,0,0,0,0,1.109h1.692a.555.555,0,1,0,0-1.109Z" transform="translate(-39.212 -8.106)" fill="#00c2cb"/>
      <path id="Path_43649" d="M41.362,39.319a5.983,5.983,0,0,0,.808.328.724.724,0,0,0,.732-.177l.832-.783a.518.518,0,0,0,0-.732l-1.262-1.109a.53.53,0,0,0-.631-.025l-.707.555a5.638,5.638,0,0,1-1.769-2.982l.808-.354a.479.479,0,0,0,.277-.555l-.425-1.616a.512.512,0,0,0-.656-.354l-1.086.379a.76.76,0,0,0-.48.555,5.281,5.281,0,0,0-.1.859,6.953,6.953,0,0,0,1.06,3.46A7.579,7.579,0,0,0,41.362,39.319Z" transform="translate(-34.129 -24.15)" fill="#00c2cb"/>
    </g>
  </g>
</svg>
