<svg xmlns="http://www.w3.org/2000/svg" width="30" height="30" viewBox="0 0 30 30">
  <g id="Group_14557" data-name="Group 14557" transform="translate(3901 -1515)">
    <rect id="Rectangle_2613" data-name="Rectangle 2613" width="30" height="30" transform="translate(-3901 1515)" fill="none"/>
    <g id="noun_Language_2053718" transform="translate(-3903.5 1510)">
      <g id="Group_14322" data-name="Group 14322" transform="translate(4 8)">
        <path id="Path_43572" data-name="Path 43572" d="M26.136,16a6.136,6.136,0,1,0,6.136,6.136A6.136,6.136,0,0,0,26.136,16Zm4.847,5.523h-1.2a8.507,8.507,0,0,0-.878-3.435A4.9,4.9,0,0,1,30.983,21.523Zm-5.461-4.1v4.1H23.716C23.853,19.451,24.649,17.932,25.523,17.427Zm0,5.323v4.1c-.874-.5-1.67-2.024-1.807-4.1Zm1.227,4.1v-4.1h1.807C28.42,24.821,27.624,26.341,26.75,26.845Zm0-5.323v-4.1c.874.5,1.67,2.024,1.807,4.1Zm-3.381-3.435a8.507,8.507,0,0,0-.878,3.435h-1.2A4.9,4.9,0,0,1,23.369,18.087ZM21.289,22.75h1.2a8.507,8.507,0,0,0,.878,3.435A4.9,4.9,0,0,1,21.289,22.75ZM28.9,26.185a8.507,8.507,0,0,0,.878-3.435h1.2A4.9,4.9,0,0,1,28.9,26.185Z" transform="translate(-15.091 -13.545)" fill="#0cc"/>
        <path id="Path_43573" data-name="Path 43573" d="M26.091,22.114V11.068A3.072,3.072,0,0,0,23.023,8H7.068A3.072,3.072,0,0,0,4,11.068V22.114a3.072,3.072,0,0,0,3.068,3.068h4.3V28.25a.613.613,0,0,0,.982.491l4.745-3.559h5.932A3.072,3.072,0,0,0,26.091,22.114Zm-9.2,1.841a.612.612,0,0,0-.368.123l-3.928,2.945V24.568a.613.613,0,0,0-.614-.614H7.068a1.843,1.843,0,0,1-1.841-1.841V11.068A1.843,1.843,0,0,1,7.068,9.227H23.023a1.843,1.843,0,0,1,1.841,1.841V22.114a1.843,1.843,0,0,1-1.841,1.841Z" transform="translate(-4 -8)" fill="#0cc"/>
        <path id="Path_43574" data-name="Path 43574" d="M58.432,20a.614.614,0,0,0,0,1.227,1.843,1.843,0,0,1,1.841,1.841V34.114a1.843,1.843,0,0,1-1.841,1.841H53.523a.613.613,0,0,0-.614.614v2.455l-3.928-2.945a.613.613,0,1,0-.736.982l4.909,3.682a.613.613,0,0,0,.982-.491V37.182h4.3A3.072,3.072,0,0,0,61.5,34.114V23.068A3.072,3.072,0,0,0,58.432,20Z" transform="translate(-34.5 -16.318)" fill="#0cc"/>
      </g>
    </g>
  </g>
</svg>
