<svg xmlns="http://www.w3.org/2000/svg" width="30" height="30" viewBox="0 0 30 30">
  <g id="Group_14575" data-name="Group 14575" transform="translate(1910 -1944)">
    <g id="Group_14574" data-name="Group 14574" transform="translate(0)">
      <g id="Group_14557" data-name="Group 14557" transform="translate(1988 429)">
        <rect id="Rectangle_2613" data-name="Rectangle 2613" width="30" height="30" transform="translate(-3898 1515)" fill="none"/>
      </g>
    </g>
    <g id="Group_14431" transform="translate(-1907 1951)">
      <path id="Path_43656" d="M23.876,36.379,21.83,36.2a.54.54,0,0,1-.43-.3l-.783-1.891a.516.516,0,0,0-.935,0L18.9,35.9a.464.464,0,0,1-.43.3l-2.046.177a.5.5,0,0,0-.278.884L17.713,38.6a.471.471,0,0,1,.151.506l-.506,2a.516.516,0,0,0,.758.555L19.886,40.6a.5.5,0,0,1,.53,0l1.768,1.062a.51.51,0,0,0,.758-.555l-.48-2a.539.539,0,0,1,.151-.506l1.566-1.339a.524.524,0,0,0-.3-.884Z" transform="translate(-12.557 -29.861)" fill="#00c2cb"/>
      <path id="Path_43657" d="M24.1,18.5H4.9a2.4,2.4,0,0,0-2.4,2.4V31.965a2.4,2.4,0,0,0,2.4,2.4H24.1a2.4,2.4,0,0,0,2.4-2.4V20.925A2.421,2.421,0,0,0,24.1,18.5Zm.834,13.491a.852.852,0,0,1-.86.86H4.9a.852.852,0,0,1-.86-.86V20.925a.852.852,0,0,1,.86-.86H24.1a.852.852,0,0,1,.86.86V31.991Z" transform="translate(-2.5 -18.5)" fill="#00c2cb"/>
      <path id="Path_43658" d="M61.268,32.7H55.583a.783.783,0,1,0,0,1.566h5.709a.788.788,0,0,0,.783-.783.827.827,0,0,0-.808-.783Z" transform="translate(-41.588 -29.112)" fill="#00c2cb"/>
      <path id="Path_43659" d="M61.268,46.9H55.583a.783.783,0,0,0,0,1.566h5.709a.788.788,0,0,0,.783-.783.809.809,0,0,0-.808-.783Z" transform="translate(-41.588 -39.726)" fill="#00c2cb"/>
      <path id="Path_43660" d="M61.268,61.1H55.583a.783.783,0,1,0,0,1.566h5.709a.788.788,0,0,0,.783-.783.827.827,0,0,0-.808-.783Z" transform="translate(-41.588 -50.338)" fill="#00c2cb"/>
    </g>
  </g>
</svg>
