<svg xmlns="http://www.w3.org/2000/svg" width="17.668" height="29.262">
    <defs>
        <style>
            .cls-1{fill:#747f9e;stroke:#747f9e}
        </style>
    </defs>
    <g id="noun_Mobile_1923217" transform="translate(.5 .5)">
        <g id="Group_14321" data-name="Group 14321">
            <g id="Group_14320" data-name="Group 14320">
                <path id="Path_43567" data-name="Path 43567" class="cls-1" d="M251.486 69.545v.169c-.006.066-.006.054.006-.036.018.036-.03.157-.039.2-.006.03-.045.226-.072.232.021 0 .06-.121.006-.015-.021.042-.042.085-.063.124-.036.063-.085.121-.118.184s.1-.112.009-.012l-.078.091a2.077 2.077 0 0 1-.142.139c-.018.018-.066.072-.091.075.069-.054.078-.06.027-.024-.021.015-.042.03-.066.045a1.958 1.958 0 0 1-.172.1c-.021.012-.085.054-.109.051.024-.009.045-.021.069-.03l-.075.027c-.063.021-.13.039-.2.054-.039.009-.081.015-.121.024-.124.024.136-.012-.024 0-.06 0-.124.006-.184.006h-11.528c-.042 0-.13.018-.045 0 .012 0 .027 0 .039.006a.777.777 0 0 1-.082-.015c-.039-.009-.081-.015-.121-.027a1.592 1.592 0 0 0-.232-.072c.024.009.045.021.069.03l-.072-.033-.106-.054c-.057-.033-.112-.069-.169-.106-.118-.072.1.088 0 0l-.091-.078a2.193 2.193 0 0 1-.163-.172.212.212 0 0 1-.024-.03l.021.027c-.009 0-.048-.069-.057-.081a1.942 1.942 0 0 1-.109-.19c-.012-.021-.054-.084-.051-.109 0 .039.039.109.015.033-.027-.091-.057-.181-.078-.272l-.015-.081c-.027-.139.006.139 0 0 0-.057-.006-.112-.006-.169V46.432c0-.036.006-.069.006-.106 0-.091-.03.151 0 .015.015-.081.033-.16.054-.238l.024-.078c0-.012.009-.024.012-.039a.528.528 0 0 0-.015.033c-.006-.057.091-.181.118-.229.018-.027.033-.057.054-.084.006-.012.015-.021.021-.033.039-.051.03-.042-.024.027.009-.045.1-.115.13-.148a2.2 2.2 0 0 1 .175-.16c.1-.084-.088.048-.012.009.039-.021.078-.054.115-.075a2.022 2.022 0 0 1 .211-.112c.081-.039-.033.006-.033.015 0-.012.1-.036.115-.039a1.922 1.922 0 0 1 .217-.057c.021 0 .081-.027.1-.018a.782.782 0 0 0-.036.006c.027 0 .057 0 .085-.006H250.149c.036 0 .069.006.106.006.145.006-.136-.03 0 0q.1.018.2.045l.115.036.075.027c-.081-.036-.094-.039-.033-.015s.118.057.178.091l.1.063c.012.006.021.015.033.021.051.039.042.03-.027-.024.045.006.118.1.148.13a2.2 2.2 0 0 1 .16.175c.091.1-.072-.112 0 0 .021.033.045.066.066.1l.1.175.018.036-.015-.033c.012 0 .036.1.039.115a2.111 2.111 0 0 1 .06.238.176.176 0 0 1 .006.039c.009.066.009.054-.006-.036a.553.553 0 0 1 .009.106V69.165c.006.121.006.25.006.38a.6.6 0 1 0 1.207 0V46.6a2.62 2.62 0 0 0-2.622-2.7h-11.421a2.666 2.666 0 0 0-1.793.709 2.7 2.7 0 0 0-.821 2.019v22.543a5.457 5.457 0 0 0 .012.588 2.664 2.664 0 0 0 1.117 1.934 2.608 2.608 0 0 0 1.5.465c1.047.006 2.1 0 3.147 0h5.326c.981 0 1.965.009 2.945 0a2.645 2.645 0 0 0 2.613-2.61.607.607 0 0 0-1.213 0z" transform="translate(-236.031 -43.9)"/>
                <path id="Path_43568" data-name="Path 43568" class="cls-1" d="M251.94 183.484h-13.559c-.622 0-1.246-.015-1.868 0h-.027a.6.6 0 0 0 0 1.207h13.559c.622 0 1.246.015 1.868 0h.027a.6.6 0 0 0 0-1.207z" transform="translate(-235.882 -179.266)"/>
                <path id="Path_43569" data-name="Path 43569" class="cls-1" d="M236.586 779.392h13.559c.622 0 1.246.015 1.868 0h.027a.6.6 0 0 0 0-1.207h-13.559c-.622 0-1.246-.015-1.868 0h-.027a.6.6 0 0 0 0 1.207z" transform="translate(-235.979 -756.019)"/>
                <path id="Path_43570" data-name="Path 43570" class="cls-1" d="M460.777 825.9a1.626 1.626 0 0 0-1.506 1.074 1.6 1.6 0 0 0 .45 1.714 1.593 1.593 0 1 0 1.056-2.788.6.6 0 0 0 0 1.207h.063c.063 0-.051-.006-.057-.009a.518.518 0 0 0 .118.027.422.422 0 0 0 .057.018c.075.015-.1-.06-.036-.012a1.021 1.021 0 0 1 .118.069c0 .006-.091-.085-.045-.033a.5.5 0 0 0 .042.039.652.652 0 0 1 .078.084c-.006.009-.063-.106-.036-.042a.261.261 0 0 0 .03.048l.027.051c.039.048-.024-.1-.012-.036a1.154 1.154 0 0 0 .039.136c.03.106 0-.109 0 0 0 .027-.015.1 0 .124 0 0 .024-.124.009-.06l-.018.078c-.006.027-.012.039-.018.057-.015.06-.024.012 0 0s.03-.054 0 0c-.009.015-.021.033-.03.051 0 0-.03.051-.033.048s.091-.1.021-.03a1.57 1.57 0 0 0-.1.1c-.045.048.042-.042.045-.033l-.048.033a.289.289 0 0 0-.051.03c-.054.036 0 .015 0 0s.057-.018 0 0l-.057.018c-.018.006-.039.009-.057.015-.1.024.039-.006.039 0s-.127 0-.145 0c-.063 0 .051.006.057.009a.193.193 0 0 0-.06-.012c-.039-.009-.075-.024-.115-.033-.066-.015.057.015.054.021s-.063-.033-.069-.036a.41.41 0 0 0-.048-.03c-.063-.027.054.03.042.036a.665.665 0 0 1-.084-.078.7.7 0 0 1-.051-.057c.006-.009.063.106.036.042a1.31 1.31 0 0 1-.069-.118c.006 0 .036.118.021.054a.429.429 0 0 0-.018-.057.516.516 0 0 0-.027-.118c0 .006.006.121.009.057v-.126c-.006-.075-.024.112-.006.039.012-.051.03-.1.042-.154.015-.066-.015.057-.021.054s.033-.063.036-.069a.414.414 0 0 0 .03-.048c.027-.06-.072.072-.024.03.033-.03.063-.066.1-.1s.03 0 0 0c-.036.027-.039.03-.015.012s.021-.015.033-.021a.273.273 0 0 0 .051-.03c.1-.063-.081.018-.018.006.045-.009.091-.027.136-.039.015 0 .088-.018 0 0s.03 0 .045 0a.609.609 0 0 0 .6-.6.618.618 0 0 0-.61-.612z" transform="translate(-452.444 -802.298)"/>
                <path id="Path_43571" data-name="Path 43571" class="cls-1" d="M428.317 111.3h-4.131a.6.6 0 0 0 0 1.207h4.131a.6.6 0 1 0 0-1.207z" transform="translate(-417.918 -109.266)"/>
            </g>
        </g>
    </g>
</svg>
