<svg xmlns="http://www.w3.org/2000/svg" width="18.31" height="28.26">
    <g data-name="Group 14496" style="isolation:isolate">
        <path data-name="Path 43696" d="m18.749 2.39.01.181V7.28h1.526A1.542 1.542 0 0 1 21.8 8.667l.01.183v18.839a1.548 1.548 0 0 1-1.526 1.57H5.026a1.548 1.548 0 0 1-1.526-1.57V8.85a1.58 1.58 0 0 1 .708-1.325l.136-.079 12.206-6.28a1.523 1.523 0 0 1 2.199 1.224zm.01 8.03H6.552v15.7h12.206zm-3.815 10.989a1.573 1.573 0 0 1 .178 3.129l-.178.011h-4.578a1.573 1.573 0 0 1-.178-3.129l.178-.011zm-2.289-9.419a3.926 3.926 0 1 1-3.815 3.925 3.871 3.871 0 0 1 3.815-3.925zm0 3.14a.785.785 0 1 0 .763.785.774.774 0 0 0-.763-.785zm3.052-10.019L11.489 7.28h4.217z" transform="translate(-3.5 -.999)" style="fill:#747f9e"/>
    </g>
</svg>
