<svg xmlns="http://www.w3.org/2000/svg" width="20.811" height="21.139">
    <path data-name="Path 43559" d="M5.947 23.889h16.416a1.949 1.949 0 0 0 1.947-1.949V11.516a.552.552 0 0 0-.2-.422L21.4 8.8v-4a1.545 1.545 0 0 0-1.549-1.55H8.568A1.545 1.545 0 0 0 7.022 4.8v3.914L4.2 11.094a.552.552 0 0 0-.2.422V21.94a1.949 1.949 0 0 0 1.947 1.949zm16.414-1.1H5.947a.846.846 0 0 1-.847-.849v-9.371l6.3 4.45-4.47 3.418a.552.552 0 0 0 .662.883l4.749-3.634 1.545 1.1a.552.552 0 0 0 .638 0l1.545-1.1 4.751 3.627a.552.552 0 0 0 .662-.883l-4.457-3.411 6.181-4.371v9.294a.846.846 0 0 1-.843.843zm.539-11.276-1.5 1.062v-2.333zM8.568 4.356h11.285a.442.442 0 0 1 .442.442v8.552l-6.085 4.307-6.082-4.307V4.8a.442.442 0 0 1 .44-.444zm-1.546 8.219-1.563-1.1 1.563-1.325zm7.133 2.247h.145a.552.552 0 1 0 0-1.1h-.141a3.519 3.519 0 1 1 3.515-3.522v.943a.616.616 0 0 1-1.23 0V10.2a2.3 2.3 0 1 0-.883 1.795 1.718 1.718 0 0 0 3.217-.852V10.2a4.623 4.623 0 1 0-4.623 4.623zm0-3.437a1.186 1.186 0 1 1 1.186-1.185 1.186 1.186 0 0 1-1.186 1.186z" transform="translate(-3.75 -3)" style="fill:#747f9e;stroke:#747f9e;stroke-width:.5px"/>
</svg>
