<svg xmlns="http://www.w3.org/2000/svg" width="21.525" height="27.001">
    <g data-name="Group 14318">
        <g data-name="Group 14317">
            <path data-name="Path 43563" d="m34.6 31.33-.751.888c3.128.4 5.315 1.3 5.315 2.349 0 1.418-3.982 2.567-8.894 2.567s-8.894-1.149-8.894-2.567c0-1.05 2.187-1.951 5.315-2.349l-.751-.888c-3.5.6-5.931 1.9-5.931 3.408C20 36.816 24.6 38.5 30.266 38.5s10.262-1.685 10.262-3.763c.001-1.509-2.428-2.808-5.928-3.407zm4.268-10.23a8.6 8.6 0 0 0-17.2 0c0 4.751 8.6 14.337 8.6 14.337s8.6-9.584 8.6-14.337zm-8.6-7.168a7.214 7.214 0 0 1 7.168 7.258c0 4.008-7.168 12.1-7.168 12.1S23.1 25.2 23.1 21.191a7.214 7.214 0 0 1 7.166-7.258zm3.584 6.452a3.584 3.584 0 1 0-3.584 3.584 3.584 3.584 0 0 0 3.583-3.583zm-5.735 0a2.151 2.151 0 1 1 2.151 2.151 2.151 2.151 0 0 1-2.152-2.15z" transform="translate(-19.504 -12)" style="fill:#747f9e;stroke:#747f9e"/>
        </g>
    </g>
</svg>
