<svg xmlns="http://www.w3.org/2000/svg" width="35" height="35" viewBox="0 0 35 35">
  <g id="Group_14549" data-name="Group 14549" transform="translate(9357 1306)">
    <rect id="Rectangle_2611" data-name="Rectangle 2611" width="35" height="35" transform="translate(-9357 -1306)" fill="none"/>
    <g id="noun_password_3383741" transform="translate(-9354 -1304)">
      <g id="Group_13313" data-name="Group 13313" transform="translate(0 0)">
        <path id="Path_42992" data-name="Path 42992" d="M36,13.109H33.111V7.727C33.111,4.012,28.793,1,23.467,1s-9.644,3.012-9.644,6.727v5.382H10.929c-1.065,0-1.929.6-1.929,1.345v14.8c0,1.486,1.728,2.689,3.858,2.691H34.076c2.13,0,3.856-1.205,3.858-2.691v-14.8C37.933,13.711,37.07,13.109,36,13.109ZM17.68,7.727c0-2.229,2.591-4.036,5.787-4.036S29.253,5.5,29.253,7.727v5.382H17.68Zm16.4,21.527H12.858V15.8H34.076ZM21.538,19.163H25.4c2.488,0,2.483,2.691,0,2.691v2.691c0,1.736-3.858,1.732-3.858,0V21.854C19.05,21.854,19.054,19.163,21.538,19.163Z" transform="translate(-9 -1)" fill="#00c2cb"/>
      </g>
    </g>
  </g>
</svg>
