<svg xmlns="http://www.w3.org/2000/svg" width="35" height="35" viewBox="0 0 35 35">
  <g id="Group_14549" data-name="Group 14549" transform="translate(9357 1306)">
    <rect id="Rectangle_2611" data-name="Rectangle 2611" width="35" height="35" transform="translate(-9357 -1306)" fill="none"/>
    <g id="noun_Passport_3601535" transform="translate(-9350 -1304)">
      <g id="Group_14496" data-name="Group 14496">
        <path id="Path_43696" data-name="Path 43696" d="M20.836,2.536l.011.2v5.2h1.735A1.735,1.735,0,0,1,24.3,9.472l.012.2V30.49a1.735,1.735,0,0,1-1.735,1.735H5.235A1.735,1.735,0,0,1,3.5,30.49h0V9.674A1.733,1.733,0,0,1,4.3,8.21l.154-.087L18.336,1.184A1.735,1.735,0,0,1,20.836,2.536Zm.011,8.873H6.969V28.756H20.847ZM16.51,23.552a1.735,1.735,0,0,1,.2,3.458l-.2.012h-5.2a1.735,1.735,0,0,1-.2-3.458l.2-.012Zm-2.6-10.408A4.337,4.337,0,1,1,9.571,17.48,4.337,4.337,0,0,1,13.908,13.144Zm0,3.469a.867.867,0,1,0,.867.867A.867.867,0,0,0,13.908,16.613ZM17.377,5.542l-4.795,2.4h4.795Z" transform="translate(-3.5 -0.999)" fill="#00c2cb"/>
      </g>
    </g>
  </g>
</svg>
