<svg xmlns="http://www.w3.org/2000/svg" width="17" height="26.174" viewBox="0 0 17 26.174">
    <g>
        <path fill="#878888" d="M17.215 1.88v5h1c.708 0 1.92.281 2 1v18c0 .8-1.237 1-2 1h-13c-.763 0-2-.2-2-1v-18c0-.513.615-.744 1-1l11-6a1.331 1.331 0 0 1 2 1zm0 8h-11v14h11zm-3 10c.763 0 1 .2 1 1 0 .741-.313 1.916-1 2h-5c-.763 0-1-1.2-1-2 0-.741.313-.916 1-1h5zm-2-9c1.906 0 3 2 3 4a2.692 2.692 0 0 1-3 3c-1.906 0-4-1-4-3a4.384 4.384 0 0 1 4-4zm0 3a1.312 1.312 0 0 0-1 1 1.312 1.312 0 0 0 1 1c.381 0 0-.6 0-1s.385-1 0-1zm2-9l-3 2h3z" transform="translate(-3.215 -0.707)"/>
    </g>
</svg>
