<svg xmlns="http://www.w3.org/2000/svg" width="35" height="35" viewBox="0 0 35 35">
  <g id="Group_14549" data-name="Group 14549" transform="translate(9364 1230)">
    <rect id="Rectangle_2611" data-name="Rectangle 2611" width="35" height="35" transform="translate(-9364 -1230)" fill="none"/>
    <g id="noun_Phone_3612570" transform="translate(-9362 -1228)">
      <path id="Path_43694" data-name="Path 43694" d="M45.475,92.708a3.616,3.616,0,0,0-2.63-1.194A3.71,3.71,0,0,0,40.2,92.692L38.291,94.6c-.047-.023-.094-.047-.138-.07l-.1-.047c-.2-.1-.44-.221-.634-.342a22.948,22.948,0,0,1-5.472-4.989,13.387,13.387,0,0,1-1.634-2.5c.48-.453.926-.906,1.345-1.335.094-.094.188-.191.285-.289s.191-.195.289-.292a3.537,3.537,0,0,0,0-5.341L30.38,77.536c-.107-.107-.215-.215-.319-.322S29.85,77,29.746,76.9l-.148-.151c-.366-.372-.745-.758-1.127-1.111a3.659,3.659,0,0,0-2.6-1.134,3.793,3.793,0,0,0-2.637,1.134s-.007,0-.007.007L20.9,77.963A5.417,5.417,0,0,0,19.291,81.4v0a12.158,12.158,0,0,0,.9,5.237,29.761,29.761,0,0,0,5.274,8.8,32.554,32.554,0,0,0,10.8,8.455h0a16.948,16.948,0,0,0,6.15,1.812h.027c.138.007.282.013.433.013a5.563,5.563,0,0,0,4.244-1.825l.017-.017a.333.333,0,0,0,.034-.037,15.141,15.141,0,0,1,1.154-1.191c.3-.285.6-.577.9-.892a3.844,3.844,0,0,0,1.161-2.677A3.745,3.745,0,0,0,49.2,96.439l-3.724-3.731Zm-.369,9.351a2.807,2.807,0,0,1-2.214.923c-.087,0-.185-.007-.285-.013a14.442,14.442,0,0,1-5.137-1.543,29.56,29.56,0,0,1-9.894-7.74h0a27.123,27.123,0,0,1-4.8-8,9.347,9.347,0,0,1-.738-4.06,2.627,2.627,0,0,1,.812-1.728l2.308-2.308a1.089,1.089,0,0,1,.721-.356,1.044,1.044,0,0,1,.695.359l.01.01c.4.376.788.772,1.2,1.188l.013.013c.2.2.426.44.658.664l1.852,1.852c.54.54.54.919,0,1.459-.195.195-.393.393-.587.594l-.138.141c-.52.527-1.01,1.023-1.543,1.5a.155.155,0,0,0-.023.023l-.034.034a1.816,1.816,0,0,0-.456,2.01c.007.02.013.037.02.054h0a.119.119,0,0,0,.013.03,15.358,15.358,0,0,0,2.268,3.694s0,0,0,.007a25.538,25.538,0,0,0,6.147,5.593,9.95,9.95,0,0,0,.876.48c.208.1.443.225.637.342a.25.25,0,0,0,.04.023l.01.007c.02.01.04.023.064.034a1.913,1.913,0,0,0,.879.218,1.848,1.848,0,0,0,1.359-.611l2.322-2.322a1.1,1.1,0,0,1,.7-.369,1.033,1.033,0,0,1,.664.366l.007.007,3.748,3.748c.369.369.621.805-.03,1.49l0,0c-.2.221-.423.433-.654.658-.05.047-.1.1-.151.148a15.813,15.813,0,0,0-1.342,1.379Z" transform="translate(-19.263 -74.5)" fill="#00c2cb"/>
    </g>
  </g>
</svg>
