<svg xmlns="http://www.w3.org/2000/svg" width="30" height="30" viewBox="0 0 30 30">
  <g id="Group_14575" data-name="Group 14575" transform="translate(1910 -1944)">
    <g id="Group_14574" data-name="Group 14574" transform="translate(0)">
      <g id="Group_14557" data-name="Group 14557" transform="translate(1988 429)">
        <rect id="Rectangle_2613" data-name="Rectangle 2613" width="30" height="30" transform="translate(-3898 1515)" fill="none"/>
      </g>
      <path id="noun_Planning_965708" d="M5.049,7.792h10.39a.7.7,0,0,0,0-1.39H5.049a.7.7,0,0,0,0,1.39Zm8.341,2.415H5.049a.7.7,0,0,0,0,1.39H13.39a.7.7,0,0,0,0-1.39Zm-1.755,3.8H5.049a.7.7,0,0,0,0,1.39h6.585a.7.7,0,0,0,0-1.39Zm-.878,4.1H5.049a.7.7,0,0,0,0,1.39h5.707a.7.7,0,0,0,0-1.39ZM20.487,13.6V1.976A1.992,1.992,0,0,0,18.438,0H2.049A1.992,1.992,0,0,0,0,1.976V22.022A1.991,1.991,0,0,0,2.049,24H19.3a5.266,5.266,0,0,0,1.185-10.4ZM2.049,21.95V3.8H18.438v9.74a5.258,5.258,0,0,0-3.286,8.4Zm17.267.732a3.951,3.951,0,1,1,3.954-3.95,3.951,3.951,0,0,1-3.954,3.95Zm1.773-6.447L19,19.214l-1.605-1.6-.923.891,2.676,2.674,2.97-4.2Z" transform="translate(-1907.3 1947.001)" fill="#00c2cb"/>
    </g>
  </g>
</svg>
