<svg xmlns="http://www.w3.org/2000/svg" width="35" height="35" viewBox="0 0 35 35">
  <g id="Group_14549" data-name="Group 14549" transform="translate(9364 1230)">
    <rect id="Rectangle_2611" data-name="Rectangle 2611" width="35" height="35" transform="translate(-9364 -1230)" fill="none"/>
    <g id="noun_Checklist_794732" transform="translate(-9361 -1228)">
      <g id="Group_14495" data-name="Group 14495">
        <path id="Path_43695" data-name="Path 43695" d="M24.42,0H5.684A4.6,4.6,0,0,0,1,4.684V26.542a4.6,4.6,0,0,0,4.684,4.684H24.42A4.6,4.6,0,0,0,29.1,26.542V4.684A4.6,4.6,0,0,0,24.42,0Zm1.561,26.542A1.475,1.475,0,0,1,24.42,28.1H5.684a1.475,1.475,0,0,1-1.561-1.561V4.684A1.475,1.475,0,0,1,5.684,3.123H24.42a1.475,1.475,0,0,1,1.561,1.561Z" transform="translate(-1)" fill="#00c2cb"/>
        <rect id="Rectangle_2605" data-name="Rectangle 2605" width="10" height="3" transform="translate(12.13 7.613)" fill="#00c2cb"/>
        <rect id="Rectangle_2606" data-name="Rectangle 2606" width="10" height="4" transform="translate(12.13 13.613)" fill="#00c2cb"/>
        <rect id="Rectangle_2607" data-name="Rectangle 2607" width="10" height="3" transform="translate(12.13 20.613)" fill="#00c2cb"/>
        <rect id="Rectangle_2608" data-name="Rectangle 2608" width="3" height="3" transform="translate(6.13 7.613)" fill="#00c2cb"/>
        <rect id="Rectangle_2609" data-name="Rectangle 2609" width="3" height="4" transform="translate(6.13 13.613)" fill="#00c2cb"/>
        <rect id="Rectangle_2610" data-name="Rectangle 2610" width="3" height="3" transform="translate(6.13 20.613)" fill="#00c2cb"/>
      </g>
    </g>
  </g>
</svg>
