<svg xmlns="http://www.w3.org/2000/svg" width="30" height="30" viewBox="0 0 30 30"><g transform="translate(15852 18880)"><rect width="30" height="30" transform="translate(-15852 -18880)" fill="rgba(255,255,255,0)"/><g transform="translate(-15859 -19838.359)"><path d="M27.836,960.359a6.555,6.555,0,0,0-6.536,6.079l-3.8-1.182a.785.785,0,0,0-.362,0l-6.708,2.077a.61.61,0,0,0-.429.591v6.46a.61.61,0,1,0,1.22,0v-6.012l5.488-1.7v16.151l-5.488,1.7v-7.7a.61.61,0,1,0-1.22,0v8.537a.61.61,0,0,0,.791.581l6.527-2.021,6.527,2.02a.61.61,0,0,0,.362,0l6.708-2.077a.61.61,0,0,0,.429-.58V973.165c.266-.318.531-.643.781-.972a9.316,9.316,0,0,0,2.268-5.279q0-.01,0-.019a6.552,6.552,0,0,0-6.555-6.536Zm0,1.22a5.315,5.315,0,0,1,5.336,5.307s0,.006,0,.01a8.351,8.351,0,0,1-2.02,4.555c-1.02,1.344-2.244,2.639-3.316,3.849-1.072-1.212-2.3-2.494-3.316-3.84A8.393,8.393,0,0,1,22.5,966.9s0-.006,0-.01a5.315,5.315,0,0,1,5.336-5.307Zm0,2.134a3.2,3.2,0,1,0,3.2,3.2A3.211,3.211,0,0,0,27.836,963.713Zm0,1.22a1.982,1.982,0,1,1-1.982,1.982A1.973,1.973,0,0,1,27.836,964.933Zm-9.909,1.744,3.43,1.058A10.126,10.126,0,0,0,23.415,972s0,.008,0,.01v12.511l-5.488-1.7V966.676Zm6.708,6.851c.95,1.11,1.937,2.146,2.735,3.078a.61.61,0,0,0,.924,0c.545-.636,1.177-1.316,1.829-2.039v8.261l-5.488,1.7v-11Z" fill="#0cc"/></g></g></svg>