<svg xmlns="http://www.w3.org/2000/svg" width="35" height="35" viewBox="0 0 35 35">
  <g id="Group_14574" data-name="Group 14574" transform="translate(-8588 -4290)">
    <rect id="Rectangle_2611" data-name="Rectangle 2611" width="35" height="35" transform="translate(8588 4290)" fill="none"/>
    <g id="noun_rand_3452228" transform="translate(8591 4293)">
      <g id="Group_13527" data-name="Group 13527">
        <path id="Path_43262" data-name="Path 43262" d="M24.94,24.869,23.925,22.32a2.567,2.567,0,0,0-.368-.623A2.492,2.492,0,0,0,22.492,17H21.246A1.246,1.246,0,0,0,20,18.246V25.1a.623.623,0,1,0,1.246,0V21.984h.287a1.315,1.315,0,0,1,1.246.8l1.015,2.542a.618.618,0,1,0,1.146-.461Zm-3.694-6.623h1.246a1.246,1.246,0,0,1,1.246,1.315,1.327,1.327,0,0,1-1.352,1.177h-1.14Z" transform="translate(-7.54 -6.409)" fill="#0ac4cd"/>
        <path id="Path_43263" data-name="Path 43263" d="M16.837,28.674A11.837,11.837,0,1,1,28.674,16.837,11.837,11.837,0,0,1,16.837,28.674Zm0-22.428A10.591,10.591,0,1,0,27.428,16.837,10.591,10.591,0,0,0,16.837,6.246Z" transform="translate(-1.885 -1.885)" fill="#0ac4cd"/>
        <path id="Path_43264" data-name="Path 43264" d="M14.952,29.9A14.952,14.952,0,1,1,29.9,14.952,14.952,14.952,0,0,1,14.952,29.9Zm0-28.658A13.706,13.706,0,1,0,28.658,14.952,13.706,13.706,0,0,0,14.952,1.246Z" fill="#0ac4cd"/>
        <path id="Path_43265" data-name="Path 43265" d="M16.837,28.674A11.837,11.837,0,1,1,28.674,16.837,11.837,11.837,0,0,1,16.837,28.674Zm0-22.428A10.591,10.591,0,1,0,27.428,16.837,10.591,10.591,0,0,0,16.837,6.246Z" transform="translate(-1.885 -1.885)" fill="#0ac4cd"/>
        <path id="Path_43266" data-name="Path 43266" d="M14.952,29.9A14.952,14.952,0,1,1,29.9,14.952,14.952,14.952,0,0,1,14.952,29.9Zm0-28.658A13.706,13.706,0,1,0,28.658,14.952,13.706,13.706,0,0,0,14.952,1.246Z" fill="#0ac4cd"/>
      </g>
    </g>
  </g>
</svg>
