<svg xmlns="http://www.w3.org/2000/svg" width="35" height="35" viewBox="0 0 35 35">
  <g id="Group_14574" data-name="Group 14574" transform="translate(2104 -4737)">
    <rect id="Rectangle_2611" data-name="Rectangle 2611" width="35" height="35" transform="translate(-2104 4737)" fill="none"/>
    <g id="noun_Certificate_1556210" transform="translate(-2111 4722)">
      <path id="Path_43677" data-name="Path 43677" d="M38.908,19H11a1,1,0,0,0-1,1V39.435a1,1,0,0,0,1,1H26.447v5.482a1,1,0,0,0,1.55.827l2.437-1.625,2.437,1.625a1,1,0,0,0,1.55-.827V40.432h4.486a1,1,0,0,0,1-1V20A1,1,0,0,0,38.908,19ZM32.882,37.441a1,1,0,0,0-.454.852V44.05l-1.44-.962a1,1,0,0,0-1.106,0l-1.44.962V38.293a1,1,0,0,0-.454-.852,4.486,4.486,0,1,1,4.889,0Zm5.029,1H34.846a6.479,6.479,0,1,0-8.817,0H11.994V20.994H37.911Z" fill="#0ac4cd"/>
      <path id="Path_43678" data-name="Path 43678" d="M18,28.994h9.968a1,1,0,1,0,0-1.994H18a1,1,0,0,0,0,1.994Z" transform="translate(-3.511 -4.013)" fill="#0ac4cd"/>
      <path id="Path_43679" data-name="Path 43679" d="M18,37.994h6.479a1,1,0,0,0,0-1.994H18a1,1,0,0,0,0,1.994Z" transform="translate(-3.511 -8.527)" fill="#0ac4cd"/>
      <path id="Path_43680" data-name="Path 43680" d="M18,43.994h6.479a1,1,0,0,0,0-1.994H18a1,1,0,0,0,0,1.994Z" transform="translate(-3.511 -11.537)" fill="#0ac4cd"/>
      <path id="Path_43681" data-name="Path 43681" d="M18,49.994h6.479a1,1,0,0,0,0-1.994H18a1,1,0,0,0,0,1.994Z" transform="translate(-3.511 -14.546)" fill="#0ac4cd"/>
      <path id="Path_43682" data-name="Path 43682" d="M50.541,44.3a.5.5,0,0,1-.459-.628.5.5,0,0,0-.733-.533.5.5,0,0,1-.743-.239.5.5,0,0,0-.907,0,.5.5,0,0,1-.743.239.5.5,0,0,0-.733.533.5.5,0,0,1-.449.628.5.5,0,0,0-.279.862.5.5,0,0,1,0,.778.5.5,0,0,0,.279.852.5.5,0,0,1,.459.628.5.5,0,0,0,.733.533.5.5,0,0,1,.743.239.5.5,0,0,0,.907,0,.5.5,0,0,1,.743-.239.5.5,0,0,0,.733-.533.5.5,0,0,1,.449-.628.5.5,0,0,0,.279-.862.5.5,0,0,1,0-.778.5.5,0,0,0-.279-.852Z" transform="translate(-17.724 -11.84)" fill="#0ac4cd"/>
    </g>
  </g>
</svg>
