<svg xmlns="http://www.w3.org/2000/svg" width="35" height="35" viewBox="0 0 35 35">
  <g id="Group_14549" data-name="Group 14549" transform="translate(9364 1230)">
    <rect id="Rectangle_2611" data-name="Rectangle 2611" width="35" height="35" transform="translate(-9364 -1230)" fill="none"/>
    <g id="noun_password_2035459" transform="translate(-9362.529 -1221.646)">
      <g id="Group_14621" transform="translate(0.529 2.646)">
        <path id="Path_43719" d="M.529,291.179v13.336h31.12V291.179Zm1.112,1.111h28.9V303.4H1.641Z" transform="translate(-0.529 -291.179)" fill="#00c2cb" stroke="#00c2cb" stroke-width="1"/>
        <path id="Path_43720" d="M11.642,293.3v1.111H6.085V293.3Z" transform="translate(17.253 -284.405)" fill="#00c2cb" stroke="#00c2cb" stroke-width="1"/>
        <path id="Path_43721" d="M7.882,296.27v1.814a.556.556,0,0,1-1.111,0V296.27l-1.573.907a.556.556,0,1,1-.556-.962l1.573-.907L4.642,294.4a.556.556,0,1,1,.556-.963l1.573.907v-1.814a.556.556,0,0,1,1.111,0v1.814l1.573-.907a.556.556,0,1,1,.556.963l-1.573.907,1.573.907a.556.556,0,1,1-.556.962Z" transform="translate(11.742 -288.638)" fill="#00c2cb" stroke="#00c2cb" stroke-width="1"/>
        <path id="Path_43722" d="M5.1,296.255v1.814a.556.556,0,0,0,1.111,0v-1.814l1.573.907a.556.556,0,1,0,.556-.962l-1.573-.907,1.573-.907a.556.556,0,1,0-.556-.963l-1.573.907v-1.814a.556.556,0,0,0-1.111,0v1.814l-1.573-.907a.556.556,0,0,0-.556.963l1.573.907L2.97,296.2a.556.556,0,1,0,.556.962Z" transform="translate(6.394 -288.623)" fill="#00c2cb" stroke="#00c2cb" stroke-width="1"/>
        <path id="Path_43723" d="M1.855,293.437a.556.556,0,0,0-.556.963l1.573.907-1.573.907a.556.556,0,1,0,.556.962l1.573-.907v1.814a.556.556,0,0,0,1.111,0v-1.814l1.573.907a.556.556,0,0,0,.556-.962l-1.573-.907,1.573-.907a.556.556,0,0,0-.556-.963l-1.573.907V292.53a.556.556,0,0,0-1.111,0v1.814Z" transform="translate(1.046 -288.639)" fill="#00c2cb" stroke="#00c2cb" stroke-width="1"/>
      </g>
    </g>
  </g>
</svg>
